SplineFontDB: 3.2
FontName: Montserrat-Bold
FullName: Montserrat Bold
FamilyName: Montserrat
Weight: Bold
Copyright: Copyright 2011 The Montserrat Project Authors (https://github.com/JulietaUla/Montserrat)
Version: 9.000
ItalicAngle: 0
UnderlinePosition: -125
UnderlineWidth: 50
Ascent: 800
Descent: 200
InvalidEm: 0
sfntRevision: 0x00090000
LayerCount: 2
Layer: 0 1 "Arri+AOgA-re" 1
Layer: 1 1 "Avant" 0
XUID: [1021 923 -1794144914 4516]
StyleMap: 0x0020
FSType: 0
OS2Version: 4
OS2_WeightWidthSlopeOnly: 0
OS2_UseTypoMetrics: 1
CreationTime: 1624264748
ModificationTime: 1757371628
PfmFamily: 81
TTFWeight: 700
TTFWidth: 5
LineGap: 0
VLineGap: 0
Panose: 0 0 0 0 0 0 0 0 0 0
OS2TypoAscent: 968
OS2TypoAOffset: 0
OS2TypoDescent: -251
OS2TypoDOffset: 0
OS2TypoLinegap: 0
OS2WinAscent: 1109
OS2WinAOffset: 0
OS2WinDescent: 453
OS2WinDOffset: 0
HheadAscent: 968
HheadAOffset: 0
HheadDescent: -251
HheadDOffset: 0
OS2SubXSize: 650
OS2SubYSize: 600
OS2SubXOff: 0
OS2SubYOff: 75
OS2SupXSize: 650
OS2SupYSize: 600
OS2SupXOff: 0
OS2SupYOff: 350
OS2StrikeYSize: 50
OS2StrikeYPos: 323
OS2CapHeight: 700
OS2XHeight: 538
OS2Vendor: 'ULA '
OS2CodePages: 20000197.00000000
OS2UnicodeRanges: a00002ff.4000247b.00000000.00000000
Lookup: 1 0 0 "'rvrn' Required Variation Alternates lookups0" { "sous-table 'rvrn' Required Variation Alternates lookups0"  } ['rvrn' ('DFLT' <'NAV ' 'dflt' > 'cyrl' <'BGR ' 'BSH ' 'CHU ' 'MKD ' 'SRB ' 'dflt' > 'latn' <'AZE ' 'CAT ' 'CRT ' 'KAZ ' 'MOL ' 'NAV ' 'NLD ' 'NSM ' 'ROM ' 'TAT ' 'TOD0' 'TRK ' 'VIT ' 'XPE ' 'dflt' > ) ]
Lookup: 1 0 0 "'rvrn' Required Variation Alternates lookups1" { "sous-table 'rvrn' Required Variation Alternates lookups1"  } ['rvrn' ('DFLT' <'NAV ' 'dflt' > 'cyrl' <'BGR ' 'BSH ' 'CHU ' 'MKD ' 'SRB ' 'dflt' > 'latn' <'AZE ' 'CAT ' 'CRT ' 'KAZ ' 'MOL ' 'NAV ' 'NLD ' 'NSM ' 'ROM ' 'TAT ' 'TOD0' 'TRK ' 'VIT ' 'XPE ' 'dflt' > ) ]

StartChar: .notdef
Encoding: 65536 -1 0
Width: 587
GlyphClass: 1
Flags: W
LayerCount: 2
Fore
SplineSet
40 0 m 1,0,-1
 40 700 l 1,1,-1
 547 700 l 1,2,-1
 547 0 l 1,3,-1
 40 0 l 1,0,-1
120 70 m 1,4,-1
 467 70 l 1,5,-1
 467 630 l 1,6,-1
 120 630 l 1,7,-1
 120 70 l 1,4,-1
EndSplineSet
Validated: 1
EndChar

StartChar: A
Encoding: 65 65 1
Width: 766
GlyphClass: 2
Flags: W
AnchorPoint: "Ancre-3" 383 700 basechar 0
AnchorPoint: "Ancre-2" 776 0 basechar 0
AnchorPoint: "Ancre-0" 383 0 basechar 0
LayerCount: 2
Fore
SplineSet
-9 0 m 1,0,-1
 303 700 l 1,1,-1
 463 700 l 1,2,-1
 776 0 l 1,3,-1
 606 0 l 1,4,-1
 350 618 l 1,5,-1
 414 618 l 1,6,-1
 157 0 l 1,7,-1
 -9 0 l 1,0,-1
147 150 m 1,8,-1
 190 273 l 1,9,-1
 550 273 l 1,10,-1
 594 150 l 1,11,-1
 147 150 l 1,8,-1
EndSplineSet
Validated: 5
Substitution2: "sous-table 'ss01' Jeu stylistique 1 lookups52" A.ss01
Substitution2: "sous-table 'c2sc' Capitales vers petites capitales lookups47" a.sc
Substitution2: "sous-table Substitution simple lookups41" ordfeminine
AlternateSubs2: "sous-table 'aalt' Activer toutes les variantes lookups3" ordfeminine a.sc A.ss01
EndChar

StartChar: Abreve
Encoding: 258 258 3
Width: 1310
VWidth: 1466
GlyphClass: 2
Flags: W
LayerCount: 2
Fore
SplineSet
655 372.75 m 0,0,1
 550 372.75 550 372.75 491.5 381.75 c 1,2,3
 502 360.75 502 360.75 502 345.75 c 0,4,5
 502 323.25 502 323.25 493 308.25 c 1,6,7
 536.5 321.75 536.5 321.75 655 321.75 c 128,-1,8
 773.5 321.75 773.5 321.75 817 308.25 c 1,9,10
 808 323.25 808 323.25 808 345.75 c 0,11,12
 808 363.75 808 363.75 817 381.75 c 1,13,14
 746.5 372.75 746.5 372.75 655 372.75 c 0,0,1
655 915.75 m 128,-1,16
 637 915.75 637 915.75 622.75 902.25 c 128,-1,17
 608.5 888.75 608.5 888.75 608.5 872.25 c 0,18,19
 608.5 852.75 608.5 852.75 622 840 c 128,-1,20
 635.5 827.25 635.5 827.25 655 827.25 c 128,-1,21
 674.5 827.25 674.5 827.25 688 840 c 128,-1,22
 701.5 852.75 701.5 852.75 701.5 872.25 c 0,23,24
 701.5 890.25 701.5 890.25 687.25 903 c 128,-1,15
 673 915.75 673 915.75 655 915.75 c 128,-1,16
655 278.25 m 0,25,26
 581.5 278.25 581.5 278.25 541.75 273 c 128,-1,27
 502 267.75 502 267.75 490 260.25 c 128,-1,28
 478 252.75 478 252.75 478 239.25 c 128,-1,29
 478 225.75 478 225.75 505 222 c 128,-1,30
 532 218.25 532 218.25 592 218.25 c 2,31,-1
 622 218.25 l 1,32,-1
 655 218.25 l 2,33,34
 830.5 218.25 830.5 218.25 830.5 239.25 c 0,35,36
 830.5 263.25 830.5 263.25 796 270.75 c 128,-1,37
 761.5 278.25 761.5 278.25 655 278.25 c 0,25,26
652 768.75 m 1,38,39
 586 761.25 586 761.25 502.75 690.75 c 128,-1,40
 419.5 620.25 419.5 620.25 413.5 551.25 c 1,41,42
 422.5 489.75 422.5 489.75 433.75 467.25 c 128,-1,43
 445 444.75 445 444.75 494.5 430.5 c 128,-1,44
 544 416.25 544 416.25 653.5 416.25 c 0,45,46
 721 416.25 721 416.25 764.5 421.5 c 128,-1,47
 808 426.75 808 426.75 832.75 434.25 c 128,-1,48
 857.5 441.75 857.5 441.75 870.25 462 c 128,-1,49
 883 482.25 883 482.25 887.5 498 c 128,-1,50
 892 513.75 892 513.75 896.5 551.25 c 1,51,52
 890.5 620.25 890.5 620.25 805.75 690.75 c 128,-1,53
 721 761.25 721 761.25 652 768.75 c 1,38,39
628 489.75 m 1,54,-1
 628 555.75 l 1,55,-1
 577 555.75 l 1,56,-1
 577 614.25 l 1,57,-1
 628 614.25 l 1,58,-1
 628 678.75 l 1,59,-1
 682 678.75 l 1,60,-1
 682 614.25 l 1,61,-1
 733 614.25 l 1,62,-1
 733 555.75 l 1,63,-1
 682 555.75 l 1,64,-1
 682 489.75 l 1,65,-1
 628 489.75 l 1,54,-1
655 129.75 m 1,66,67
 682 78.75 682 78.75 766 54.75 c 128,-1,68
 850 30.75 850 30.75 943 27.75 c 0,69,70
 947.5 27.75 947.5 27.75 985 21.75 c 128,-1,71
 1022.5 15.75 1022.5 15.75 1024 15.75 c 0,72,73
 1055.5 15.75 1055.5 15.75 1055.5 45.75 c 0,74,75
 1055.5 66.75 1055.5 66.75 1024.75 77.25 c 128,-1,76
 994 87.75 994 87.75 898 93.75 c 0,77,78
 832 98.25 832 98.25 784 113.25 c 128,-1,79
 736 128.25 736 128.25 717.25 144 c 128,-1,80
 698.5 159.75 698.5 159.75 682 171.75 c 128,-1,81
 665.5 183.75 665.5 183.75 652 183.75 c 128,-1,82
 638.5 183.75 638.5 183.75 622.75 171 c 128,-1,83
 607 158.25 607 158.25 589.75 142.5 c 128,-1,84
 572.5 126.75 572.5 126.75 528.25 111.75 c 128,-1,85
 484 96.75 484 96.75 422.5 93.75 c 0,86,87
 355 93.75 355 93.75 316.75 87 c 128,-1,88
 278.5 80.25 278.5 80.25 266.5 70.5 c 128,-1,89
 254.5 60.75 254.5 60.75 254.5 45.75 c 0,90,91
 259 15.75 259 15.75 286 15.75 c 0,92,93
 287.5 15.75 287.5 15.75 324.25 21.75 c 128,-1,94
 361 27.75 361 27.75 365.5 27.75 c 0,95,96
 463 27.75 463 27.75 545.5 52.5 c 128,-1,97
 628 77.25 628 77.25 655 129.75 c 1,66,67
860.5 353.25 m 1,98,99
 860.5 336.75 860.5 336.75 875.5 291.75 c 128,-1,100
 890.5 246.75 890.5 246.75 890.5 236.25 c 0,101,102
 890.5 185.25 890.5 185.25 784 171.75 c 1,103,104
 865 143.25 865 143.25 928 143.25 c 0,105,106
 932.5 143.25 932.5 143.25 971.5 145.5 c 128,-1,107
 1010.5 147.75 1010.5 147.75 1016.5 147.75 c 0,108,109
 1090 147.75 1090 147.75 1139.5 53.25 c 1,110,111
 1135 47.25 1135 47.25 1118.5 20.25 c 128,-1,112
 1102 -6.75 1102 -6.75 1093.75 -18 c 128,-1,113
 1085.5 -29.25 1085.5 -29.25 1069 -45 c 128,-1,114
 1052.5 -60.75 1052.5 -60.75 1036 -68.25 c 1,115,116
 1030 -41.25 1030 -41.25 958.75 -33 c 128,-1,117
 887.5 -24.75 887.5 -24.75 793.75 -8.25 c 128,-1,118
 700 8.25 700 8.25 655 53.25 c 1,119,120
 617.5 15.75 617.5 15.75 550.75 -3.75 c 128,-1,121
 484 -23.25 484 -23.25 427 -25.5 c 128,-1,122
 370 -27.75 370 -27.75 324.25 -37.5 c 128,-1,123
 278.5 -47.25 278.5 -47.25 274 -68.25 c 1,124,125
 257.5 -63.75 257.5 -63.75 239.5 -43.5 c 128,-1,126
 221.5 -23.25 221.5 -23.25 197.5 12.75 c 2,127,-1
 170.5 53.25 l 1,128,129
 220 147.75 220 147.75 293.5 147.75 c 0,130,131
 295 147.75 295 147.75 336.25 145.5 c 128,-1,132
 377.5 143.25 377.5 143.25 382 143.25 c 0,133,134
 443.5 143.25 443.5 143.25 526 171.75 c 1,135,136
 419.5 185.25 419.5 185.25 419.5 236.25 c 0,137,138
 419.5 245.25 419.5 245.25 434.5 292.5 c 128,-1,139
 449.5 339.75 449.5 339.75 449.5 351.75 c 0,140,141
 449.5 356.25 449.5 356.25 427 380.25 c 128,-1,142
 404.5 404.25 404.5 404.25 382 446.25 c 128,-1,143
 359.5 488.25 359.5 488.25 359.5 539.25 c 0,144,145
 359.5 633.75 359.5 633.75 445.75 712.5 c 128,-1,146
 532 791.25 532 791.25 583 795.75 c 1,147,148
 550 836.25 550 836.25 550 879.75 c 128,-1,149
 550 923.25 550 923.25 579.25 947.25 c 128,-1,150
 608.5 971.25 608.5 971.25 655 971.25 c 0,151,152
 700 971.25 700 971.25 729.25 946.5 c 128,-1,153
 758.5 921.75 758.5 921.75 758.5 879.75 c 0,154,155
 758.5 833.25 758.5 833.25 727 795.75 c 1,156,157
 775 789.75 775 789.75 862.75 711.75 c 128,-1,158
 950.5 633.75 950.5 633.75 950.5 539.25 c 0,159,160
 950.5 455.25 950.5 455.25 860.5 353.25 c 1,98,99
EndSplineSet
Substitution2: "sous-table 'ss01' Jeu stylistique 1 lookups52" Abreve.ss01
Substitution2: "sous-table 'c2sc' Capitales vers petites capitales lookups47" abreve.sc
AlternateSubs2: "sous-table 'aalt' Activer toutes les variantes lookups3" abreve.sc Abreve.ss01
EndChar

StartChar: uni2C6D
Encoding: 11373 11373 25
Width: 884
GlyphClass: 2
Flags: W
AnchorPoint: "Ancre-3" 428 700 basechar 0
AnchorPoint: "Ancre-2" 801 0 basechar 0
AnchorPoint: "Ancre-0" 428 0 basechar 0
LayerCount: 2
Fore
SplineSet
399 -9 m 0,0,1
 322 -9 322 -9 257 16.5 c 128,-1,2
 192 42 192 42 143 89.5 c 128,-1,3
 94 137 94 137 66.5 203.5 c 128,-1,4
 39 270 39 270 39 351 c 0,5,6
 39 433 39 433 66.5 499 c 128,-1,7
 94 565 94 565 142.5 612.5 c 128,-1,8
 191 660 191 660 256 685.5 c 128,-1,9
 321 711 321 711 397 711 c 0,10,11
 467 711 467 711 525 688.5 c 128,-1,12
 583 666 583 666 625.5 621 c 128,-1,13
 668 576 668 576 691 508 c 128,-1,14
 714 440 714 440 714 350 c 256,15,16
 714 260 714 260 691.5 193 c 128,-1,17
 669 126 669 126 627 81 c 128,-1,18
 585 36 585 36 527 13.5 c 128,-1,19
 469 -9 469 -9 399 -9 c 0,0,1
423 127 m 0,20,21
 485 127 485 127 534.5 154.5 c 128,-1,22
 584 182 584 182 612.5 232 c 128,-1,23
 641 282 641 282 641 351 c 256,24,25
 641 420 641 420 612.5 470 c 128,-1,26
 584 520 584 520 534.5 547.5 c 128,-1,27
 485 575 485 575 423 575 c 256,28,29
 361 575 361 575 311 547.5 c 128,-1,30
 261 520 261 520 232.5 469.5 c 128,-1,31
 204 419 204 419 204 351 c 256,32,33
 204 283 204 283 232.5 232.5 c 128,-1,34
 261 182 261 182 310.5 154.5 c 128,-1,35
 360 127 360 127 423 127 c 0,20,21
646 0 m 1,36,-1
 646 169 l 1,37,-1
 652 352 l 1,38,-1
 639 535 l 1,39,-1
 639 700 l 1,40,-1
 801 700 l 1,41,-1
 801 0 l 1,42,-1
 646 0 l 1,36,-1
EndSplineSet
Validated: 5
Substitution2: "sous-table 'c2sc' Capitales vers petites capitales lookups47" uni0251.sc
Substitution2: "sous-table 'aalt' Activer toutes les variantes lookups2" uni0251.sc
EndChar

StartChar: Amacron
Encoding: 256 256 26
Width: 1250
VWidth: 1128
GlyphClass: 2
Flags: W
LayerCount: 2
Fore
SplineSet
570.25 390.5 m 0,0,1
 570.25 372.5 570.25 372.5 548.5 356 c 128,-1,2
 526.75 339.5 526.75 339.5 495.25 319.25 c 128,-1,3
 463.75 299 463.75 299 432.25 269 c 128,-1,4
 400.75 239 400.75 239 379 180.5 c 128,-1,5
 357.25 122 357.25 122 357.25 41 c 1,6,-1
 892.75 41 l 1,7,8
 892.75 108.5 892.75 108.5 877 161.75 c 128,-1,9
 861.25 215 861.25 215 837.25 244.25 c 128,-1,10
 813.25 273.5 813.25 273.5 785.5 296.75 c 128,-1,11
 757.75 320 757.75 320 733.75 332 c 128,-1,12
 709.75 344 709.75 344 694 359 c 128,-1,13
 678.25 374 678.25 374 678.25 390.5 c 0,14,15
 678.25 405.5 678.25 405.5 691.75 415.25 c 128,-1,16
 705.25 425 705.25 425 722.5 431.75 c 128,-1,17
 739.75 438.5 739.75 438.5 753.25 460.25 c 128,-1,18
 766.75 482 766.75 482 766.75 516.5 c 128,-1,19
 766.75 551 766.75 551 750.25 576.5 c 128,-1,20
 733.75 602 733.75 602 714.25 613.25 c 128,-1,21
 694.75 624.5 694.75 624.5 678.25 637.25 c 128,-1,22
 661.75 650 661.75 650 661.75 660.5 c 0,23,24
 661.75 683 661.75 683 676.75 707.75 c 128,-1,25
 691.75 732.5 691.75 732.5 691.75 747.5 c 0,26,27
 691.75 774.5 691.75 774.5 670.75 793.25 c 128,-1,28
 649.75 812 649.75 812 622.75 812 c 0,29,30
 597.25 812 597.25 812 577 793.25 c 128,-1,31
 556.75 774.5 556.75 774.5 556.75 750.5 c 0,32,33
 556.75 735.5 556.75 735.5 571.75 709.25 c 128,-1,34
 586.75 683 586.75 683 586.75 660.5 c 0,35,36
 586.75 650 586.75 650 570.25 637.25 c 128,-1,37
 553.75 624.5 553.75 624.5 535 612.5 c 128,-1,38
 516.25 600.5 516.25 600.5 499.75 575 c 128,-1,39
 483.25 549.5 483.25 549.5 483.25 516.5 c 0,40,41
 483.25 482 483.25 482 505 456.5 c 128,-1,42
 526.75 431 526.75 431 548.5 416 c 128,-1,43
 570.25 401 570.25 401 570.25 390.5 c 0,0,1
304.75 -19 m 1,44,45
 303.25 -1 303.25 -1 303.25 50 c 0,46,47
 303.25 180.5 303.25 180.5 351.25 256.25 c 128,-1,48
 399.25 332 399.25 332 502.75 384.5 c 1,49,50
 466.75 396.5 466.75 396.5 442.75 434 c 128,-1,51
 418.75 471.5 418.75 471.5 418.75 518 c 0,52,53
 418.75 618.5 418.75 618.5 520.75 662 c 1,54,55
 496.75 705.5 496.75 705.5 496.75 747.5 c 0,56,57
 496.75 798.5 496.75 798.5 535 830.75 c 128,-1,58
 573.25 863 573.25 863 625.75 863 c 128,-1,59
 678.25 863 678.25 863 716.5 830 c 128,-1,60
 754.75 797 754.75 797 754.75 747.5 c 0,61,62
 754.75 707 754.75 707 727.75 662 c 1,63,64
 831.25 620 831.25 620 831.25 518 c 0,65,66
 831.25 470 831.25 470 806.5 433.25 c 128,-1,67
 781.75 396.5 781.75 396.5 745.75 384.5 c 1,68,69
 849.25 330.5 849.25 330.5 898 255.5 c 128,-1,70
 946.75 180.5 946.75 180.5 946.75 50 c 0,71,72
 946.75 0.5 946.75 0.5 945.25 -19 c 1,73,-1
 304.75 -19 l 1,44,45
EndSplineSet
Substitution2: "sous-table 'ss01' Jeu stylistique 1 lookups52" Amacron.ss01
Substitution2: "sous-table 'c2sc' Capitales vers petites capitales lookups47" amacron.sc
AlternateSubs2: "sous-table 'aalt' Activer toutes les variantes lookups3" amacron.sc Amacron.ss01
EndChar

StartChar: Aogonek
Encoding: 260 260 27
Width: 1310
VWidth: 1466
GlyphClass: 2
Flags: W
LayerCount: 2
Fore
SplineSet
654.25 304 m 0,0,1
 736.75 304 736.75 304 808 298.75 c 128,-1,2
 879.25 293.5 879.25 293.5 891.25 293.5 c 0,3,4
 909.25 293.5 909.25 293.5 913.75 295.75 c 128,-1,5
 918.25 298 918.25 298 918.25 307 c 0,6,7
 918.25 337 918.25 337 826 352.75 c 128,-1,8
 733.75 368.5 733.75 368.5 655.75 368.5 c 0,9,10
 576.25 368.5 576.25 368.5 484.75 352.75 c 128,-1,11
 393.25 337 393.25 337 393.25 307 c 0,12,13
 393.25 299.5 393.25 299.5 397.75 296.5 c 128,-1,14
 402.25 293.5 402.25 293.5 420.25 293.5 c 0,15,16
 421.75 293.5 421.75 293.5 510.25 298.75 c 128,-1,17
 598.75 304 598.75 304 654.25 304 c 0,0,1
898.75 236.5 m 1,18,19
 780.25 251.5 780.25 251.5 655.75 251.5 c 0,20,21
 525.25 251.5 525.25 251.5 412.75 236.5 c 1,22,23
 430.75 221.5 430.75 221.5 430.75 178 c 0,24,25
 430.75 149.5 430.75 149.5 421.75 143.5 c 1,26,27
 513.25 160 513.25 160 655.75 160 c 128,-1,28
 798.25 160 798.25 160 889.75 143.5 c 1,29,30
 880.75 149.5 880.75 149.5 880.75 178 c 0,31,32
 880.75 221.5 880.75 221.5 898.75 236.5 c 1,18,19
900.25 65.5 m 0,33,34
 900.25 107.5 900.25 107.5 655.75 107.5 c 128,-1,35
 411.25 107.5 411.25 107.5 411.25 65.5 c 0,36,37
 411.25 28 411.25 28 655.75 28 c 128,-1,38
 900.25 28 900.25 28 900.25 65.5 c 0,33,34
655.75 892 m 0,39,40
 618.25 892 618.25 892 618.25 856 c 0,41,42
 618.25 817 618.25 817 655.75 817 c 0,43,44
 691.75 817 691.75 817 691.75 856 c 0,45,46
 691.75 892 691.75 892 655.75 892 c 0,39,40
603.25 707.5 m 0,47,48
 603.25 758.5 603.25 758.5 587.5 802 c 128,-1,49
 571.75 845.5 571.75 845.5 571.75 851.5 c 0,50,51
 571.75 886 571.75 886 596.5 910.75 c 128,-1,52
 621.25 935.5 621.25 935.5 655.75 935.5 c 128,-1,53
 690.25 935.5 690.25 935.5 714.25 910.75 c 128,-1,54
 738.25 886 738.25 886 738.25 851.5 c 0,55,56
 738.25 845.5 738.25 845.5 721.75 802.75 c 128,-1,57
 705.25 760 705.25 760 705.25 707.5 c 0,58,59
 705.25 634 705.25 634 738.25 490 c 1,60,61
 819.25 661 819.25 661 819.25 748 c 0,62,63
 819.25 757 819.25 757 814.75 781.75 c 128,-1,64
 810.25 806.5 810.25 806.5 810.25 812.5 c 0,65,66
 810.25 847 810.25 847 834.25 871.75 c 128,-1,67
 858.25 896.5 858.25 896.5 892.75 896.5 c 0,68,69
 928.75 896.5 928.75 896.5 953.5 871.75 c 128,-1,70
 978.25 847 978.25 847 978.25 812.5 c 0,71,72
 978.25 785.5 978.25 785.5 967.75 769.75 c 128,-1,73
 957.25 754 957.25 754 943.75 745.75 c 128,-1,74
 930.25 737.5 930.25 737.5 919.75 706 c 128,-1,75
 909.25 674.5 909.25 674.5 909.25 619 c 0,76,77
 909.25 580 909.25 580 916.75 493 c 1,78,79
 1014.25 593.5 1014.25 593.5 1014.25 656.5 c 1,80,-1
 1011.25 683.5 l 2,81,82
 1006.75 710.5 1006.75 710.5 1006.75 715 c 0,83,84
 1006.75 748 1006.75 748 1031.5 773.5 c 128,-1,85
 1056.25 799 1056.25 799 1089.25 799 c 0,86,87
 1123.75 799 1123.75 799 1149.25 774.25 c 128,-1,88
 1174.75 749.5 1174.75 749.5 1174.75 715 c 0,89,90
 1174.75 653.5 1174.75 653.5 1105.75 622 c 1,91,92
 1102.75 562 1102.75 562 1051.75 352 c 0,93,94
 1051.75 338.5 1051.75 338.5 995.5 269.5 c 128,-1,95
 939.25 200.5 939.25 200.5 939.25 179.5 c 0,96,97
 939.25 166 939.25 166 960.25 122.5 c 128,-1,98
 981.25 79 981.25 79 981.25 50.5 c 2,99,-1
 981.25 26.5 l 2,100,101
 981.25 -8 981.25 -8 872.5 -20.75 c 128,-1,102
 763.75 -33.5 763.75 -33.5 654.25 -33.5 c 0,103,104
 532.75 -33.5 532.75 -33.5 430.75 -19.25 c 128,-1,105
 328.75 -5 328.75 -5 328.75 26.5 c 2,106,-1
 328.75 50.5 l 2,107,108
 328.75 82 328.75 82 349 125.5 c 128,-1,109
 369.25 169 369.25 169 369.25 179.5 c 0,110,111
 369.25 211 369.25 211 320.5 265 c 128,-1,112
 271.75 319 271.75 319 258.25 352 c 0,113,114
 207.25 559 207.25 559 204.25 622 c 1,115,116
 135.25 653.5 135.25 653.5 135.25 715 c 0,117,118
 135.25 749.5 135.25 749.5 160.75 774.25 c 128,-1,119
 186.25 799 186.25 799 219.25 799 c 0,120,121
 253.75 799 253.75 799 278.5 774.25 c 128,-1,122
 303.25 749.5 303.25 749.5 303.25 715 c 0,123,124
 303.25 713.5 303.25 713.5 299.5 686.5 c 128,-1,125
 295.75 659.5 295.75 659.5 295.75 656.5 c 0,126,127
 295.75 590.5 295.75 590.5 391.75 493 c 1,128,129
 399.25 559 399.25 559 399.25 619 c 0,130,131
 399.25 673 399.25 673 388.75 705.25 c 128,-1,132
 378.25 737.5 378.25 737.5 364.75 745.75 c 128,-1,133
 351.25 754 351.25 754 340.75 770.5 c 128,-1,134
 330.25 787 330.25 787 330.25 812.5 c 0,135,136
 330.25 847 330.25 847 355.75 871.75 c 128,-1,137
 381.25 896.5 381.25 896.5 415.75 896.5 c 128,-1,138
 450.25 896.5 450.25 896.5 475 871.75 c 128,-1,139
 499.75 847 499.75 847 499.75 812.5 c 2,140,-1
 495.25 784 l 2,141,142
 490.75 755.5 490.75 755.5 490.75 748 c 0,143,144
 490.75 662.5 490.75 662.5 571.75 490 c 1,145,146
 603.25 626.5 603.25 626.5 603.25 707.5 c 0,47,48
1089.25 751 m 0,147,148
 1075.75 751 1075.75 751 1064.5 740.5 c 128,-1,149
 1053.25 730 1053.25 730 1053.25 715 c 0,150,151
 1053.25 698.5 1053.25 698.5 1063.75 687.25 c 128,-1,152
 1074.25 676 1074.25 676 1089.25 676 c 0,153,154
 1126.75 676 1126.75 676 1126.75 715 c 0,155,156
 1126.75 751 1126.75 751 1089.25 751 c 0,147,148
892.75 847 m 0,157,158
 877.75 847 877.75 847 867.25 835.75 c 128,-1,159
 856.75 824.5 856.75 824.5 856.75 809.5 c 128,-1,160
 856.75 794.5 856.75 794.5 867.25 783.25 c 128,-1,161
 877.75 772 877.75 772 892.75 772 c 0,162,163
 931.75 772 931.75 772 931.75 809.5 c 128,-1,164
 931.75 847 931.75 847 892.75 847 c 0,157,158
415.75 847 m 0,165,166
 378.25 847 378.25 847 378.25 809.5 c 128,-1,167
 378.25 772 378.25 772 415.75 772 c 0,168,169
 451.75 772 451.75 772 451.75 809.5 c 128,-1,170
 451.75 847 451.75 847 415.75 847 c 0,165,166
219.25 751 m 0,171,172
 181.75 751 181.75 751 181.75 715 c 0,173,174
 181.75 676 181.75 676 219.25 676 c 0,175,176
 255.25 676 255.25 676 255.25 715 c 0,177,178
 255.25 730 255.25 730 244 740.5 c 128,-1,179
 232.75 751 232.75 751 219.25 751 c 0,171,172
655.75 655 m 1,180,181
 642.25 572.5 642.25 572.5 625.75 525.25 c 128,-1,182
 609.25 478 609.25 478 595.75 458.5 c 128,-1,183
 582.25 439 582.25 439 579.25 427 c 1,184,185
 571.75 436 571.75 436 553.75 457 c 128,-1,186
 535.75 478 535.75 478 531.25 485.5 c 128,-1,187
 526.75 493 526.75 493 514 511.75 c 128,-1,188
 501.25 530.5 501.25 530.5 493.75 548.5 c 128,-1,189
 486.25 566.5 486.25 566.5 474.25 596.5 c 128,-1,190
 462.25 626.5 462.25 626.5 448.75 665.5 c 1,191,192
 451.75 644.5 451.75 644.5 451.75 622 c 0,193,194
 451.75 551.5 451.75 551.5 426.25 404.5 c 1,195,196
 345.25 452.5 345.25 452.5 268.75 557.5 c 1,197,198
 304.75 379 304.75 379 324.25 358 c 0,199,200
 327.25 355 327.25 355 330.25 353.5 c 0,201,202
 453.25 424 453.25 424 655.75 424 c 0,203,204
 859.75 424 859.75 424 981.25 353.5 c 1,205,206
 1008.25 362.5 1008.25 362.5 1041.25 557.5 c 1,207,208
 963.25 449.5 963.25 449.5 885.25 404.5 c 1,209,210
 859.75 535 859.75 535 859.75 610 c 0,211,212
 859.75 629.5 859.75 629.5 862.75 665.5 c 1,213,214
 840.25 596.5 840.25 596.5 817 549.25 c 128,-1,215
 793.75 502 793.75 502 779.5 485.5 c 128,-1,216
 765.25 469 765.25 469 751.75 454 c 128,-1,217
 738.25 439 738.25 439 732.25 427 c 1,218,219
 724.75 440.5 724.75 440.5 714.25 457.75 c 128,-1,220
 703.75 475 703.75 475 700.75 482.5 c 128,-1,221
 697.75 490 697.75 490 690.25 511.75 c 128,-1,222
 682.75 533.5 682.75 533.5 675.25 565.75 c 128,-1,223
 667.75 598 667.75 598 655.75 655 c 1,180,181
EndSplineSet
Substitution2: "sous-table 'ss01' Jeu stylistique 1 lookups52" Aogonek.ss01
Substitution2: "sous-table 'c2sc' Capitales vers petites capitales lookups47" aogonek.sc
Substitution2: "sous-table 'locl' Formes localis+AOkA-es g+AOkA-ographiquement dans Latin lookup 17" Aogonek.loclNAV
AlternateSubs2: "sous-table 'aalt' Activer toutes les variantes lookups3" Aogonek.loclNAV aogonek.sc Aogonek.ss01
EndChar

StartChar: uni023A
Encoding: 570 570 31
Width: 754
GlyphClass: 1
Flags: W
LayerCount: 2
Fore
SplineSet
-9 0 m 1,0,-1
 304 700 l 1,1,-1
 450 700 l 1,2,-1
 764 0 l 1,3,-1
 610 0 l 1,4,-1
 346 627 l 1,5,-1
 405 627 l 1,6,-1
 142 0 l 1,7,-1
 -9 0 l 1,0,-1
142 158 m 1,8,-1
 181 267 l 1,9,-1
 550 267 l 1,10,-1
 589 158 l 1,11,-1
 142 158 l 1,8,-1
229 -70 m 1,12,-1
 581 770 l 1,13,-1
 680 770 l 1,14,-1
 329 -70 l 1,15,-1
 229 -70 l 1,12,-1
EndSplineSet
Validated: 5
Substitution2: "sous-table 'ss01' Jeu stylistique 1 lookups52" uni023A.ss01
Substitution2: "sous-table 'c2sc' Capitales vers petites capitales lookups47" uni2C65.sc
AlternateSubs2: "sous-table 'aalt' Activer toutes les variantes lookups3" uni2C65.sc uni023A.ss01
Substitution2: "sous-table 'rvrn' Required Variation Alternates lookups0" uni023A.BRACKET.varAlt01
EndChar

StartChar: uni2C6F
Encoding: 11375 11375 33
Width: 766
GlyphClass: 2
Flags: W
AnchorPoint: "Ancre-3" 383 700 basechar 0
AnchorPoint: "Ancre-2" -9 700 basechar 0
AnchorPoint: "Ancre-0" 383 0 basechar 0
LayerCount: 2
Fore
SplineSet
776 700 m 1,0,-1
 463 0 l 1,1,-1
 303 0 l 1,2,-1
 -9 700 l 1,3,-1
 160 700 l 1,4,-1
 417 82 l 1,5,-1
 352 82 l 1,6,-1
 609 700 l 1,7,-1
 776 700 l 1,0,-1
619 550 m 1,8,-1
 576 427 l 1,9,-1
 216 427 l 1,10,-1
 173 550 l 1,11,-1
 619 550 l 1,8,-1
EndSplineSet
Validated: 5
Substitution2: "sous-table 'ss01' Jeu stylistique 1 lookups52" uni2C6F.ss01
Substitution2: "sous-table 'c2sc' Capitales vers petites capitales lookups47" uni0250.sc
AlternateSubs2: "sous-table 'aalt' Activer toutes les variantes lookups3" uni0250.sc uni2C6F.ss01
EndChar

StartChar: AE
Encoding: 198 198 34
Width: 1080
GlyphClass: 2
Flags: W
AnchorPoint: "Ancre-3" 648 700 basechar 0
AnchorPoint: "Ancre-2" 1034 0 basechar 0
AnchorPoint: "Ancre-0" 572 0 basechar 0
LayerCount: 2
Fore
SplineSet
-9 0 m 1,0,-1
 386 700 l 1,1,-1
 547 700 l 1,2,-1
 547 570 l 1,3,-1
 408 570 l 1,4,-1
 506 638 l 1,5,-1
 157 0 l 1,6,-1
 -9 0 l 1,0,-1
197 150 m 1,7,-1
 200 273 l 1,8,-1
 547 273 l 1,9,-1
 547 150 l 1,10,-1
 197 150 l 1,7,-1
492 0 m 1,11,-1
 492 700 l 1,12,-1
 1021 700 l 1,13,-1
 1021 570 l 1,14,-1
 653 570 l 1,15,-1
 653 130 l 1,16,-1
 1034 130 l 1,17,-1
 1034 0 l 1,18,-1
 492 0 l 1,11,-1
641 292 m 1,19,-1
 641 418 l 1,20,-1
 979 418 l 1,21,-1
 979 292 l 1,22,-1
 641 292 l 1,19,-1
EndSplineSet
Validated: 5
Substitution2: "sous-table 'ss01' Jeu stylistique 1 lookups52" AE.ss01
Substitution2: "sous-table 'c2sc' Capitales vers petites capitales lookups47" ae.sc
AlternateSubs2: "sous-table 'aalt' Activer toutes les variantes lookups3" ae.sc AE.ss01
EndChar

StartChar: B
Encoding: 66 66 37
Width: 765
GlyphClass: 2
Flags: W
AnchorPoint: "Ancre-3" 380 700 basechar 0
AnchorPoint: "Ancre-0" 380 0 basechar 0
LayerCount: 2
Fore
SplineSet
83 0 m 1,0,-1
 83 700 l 1,1,-1
 425 700 l 2,2,3
 557 700 557 700 623.5 650 c 128,-1,4
 690 600 690 600 690 518 c 0,5,6
 690 463 690 463 663 422.5 c 128,-1,7
 636 382 636 382 589 360 c 128,-1,8
 542 338 542 338 481 338 c 1,9,-1
 500 379 l 1,10,11
 566 379 566 379 617 357.5 c 128,-1,12
 668 336 668 336 696.5 294 c 128,-1,13
 725 252 725 252 725 191 c 0,14,15
 725 101 725 101 654 50.5 c 128,-1,16
 583 0 583 0 445 0 c 2,17,-1
 83 0 l 1,0,-1
244 122 m 1,18,-1
 433 122 l 2,19,20
 496 122 496 122 528.5 142.5 c 128,-1,21
 561 163 561 163 561 208 c 0,22,23
 561 252 561 252 528.5 273.5 c 128,-1,24
 496 295 496 295 433 295 c 2,25,-1
 232 295 l 1,26,-1
 232 413 l 1,27,-1
 405 413 l 2,28,29
 464 413 464 413 495.5 433.5 c 128,-1,30
 527 454 527 454 527 496 c 0,31,32
 527 537 527 537 495.5 557.5 c 128,-1,33
 464 578 464 578 405 578 c 2,34,-1
 244 578 l 1,35,-1
 244 122 l 1,18,-1
EndSplineSet
Validated: 5
Substitution2: "sous-table 'c2sc' Capitales vers petites capitales lookups47" b.sc
Substitution2: "sous-table 'aalt' Activer toutes les variantes lookups2" b.sc
EndChar

StartChar: uniA7B4
Encoding: 42932 42932 40
Width: 765
GlyphClass: 2
Flags: W
AnchorPoint: "Ancre-3" 380 700 basechar 0
AnchorPoint: "Ancre-0" 380 0 basechar 0
LayerCount: 2
Fore
SplineSet
83 -194 m 1,0,-1
 83 700 l 1,1,-1
 425 700 l 2,2,3
 557 700 557 700 623.5 650 c 128,-1,4
 690 600 690 600 690 518 c 0,5,6
 690 463 690 463 663 422.5 c 128,-1,7
 636 382 636 382 589 360 c 128,-1,8
 542 338 542 338 481 338 c 1,9,-1
 500 379 l 1,10,11
 566 379 566 379 617 357.5 c 128,-1,12
 668 336 668 336 696.5 294 c 128,-1,13
 725 252 725 252 725 191 c 0,14,15
 725 101 725 101 654 50.5 c 128,-1,16
 583 0 583 0 445 0 c 2,17,-1
 233 0 l 1,18,-1
 233 122 l 1,19,-1
 433 122 l 2,20,21
 496 122 496 122 528.5 142.5 c 128,-1,22
 561 163 561 163 561 208 c 0,23,24
 561 252 561 252 528.5 273.5 c 128,-1,25
 496 295 496 295 433 295 c 2,26,-1
 233 295 l 1,27,-1
 233 413 l 1,28,-1
 405 413 l 2,29,30
 464 413 464 413 495.5 433.5 c 128,-1,31
 527 454 527 454 527 496 c 0,32,33
 527 537 527 537 495.5 557.5 c 128,-1,34
 464 578 464 578 405 578 c 2,35,-1
 244 578 l 1,36,-1
 244 -194 l 1,37,-1
 83 -194 l 1,0,-1
EndSplineSet
Validated: 5
Substitution2: "sous-table 'c2sc' Capitales vers petites capitales lookups47" uniA7B5.sc
Substitution2: "sous-table 'aalt' Activer toutes les variantes lookups2" uniA7B5.sc
EndChar

StartChar: uni0181
Encoding: 385 385 41
Width: 964
GlyphClass: 2
Flags: W
AnchorPoint: "Ancre-3" 579 700 basechar 0
AnchorPoint: "Ancre-0" 579 0 basechar 0
LayerCount: 2
Fore
SplineSet
87 350 m 1,0,1
 53 388 53 388 36.5 435 c 128,-1,2
 20 482 20 482 23.5 528.5 c 128,-1,3
 27 575 27 575 51 614 c 128,-1,4
 75 653 75 653 121.5 676.5 c 128,-1,5
 168 700 168 700 237 700 c 2,6,-1
 290 700 l 1,7,-1
 290 568 l 1,8,-1
 236 568 l 2,9,10
 208 568 208 568 192 554 c 128,-1,11
 176 540 176 540 172 518 c 128,-1,12
 168 496 168 496 176 470 c 128,-1,13
 184 444 184 444 204 418 c 1,14,-1
 87 350 l 1,0,1
282 0 m 1,15,-1
 282 700 l 1,16,-1
 624 700 l 2,17,18
 756 700 756 700 823 650 c 128,-1,19
 890 600 890 600 890 518 c 0,20,21
 890 463 890 463 862.5 422.5 c 128,-1,22
 835 382 835 382 788 360 c 128,-1,23
 741 338 741 338 680 338 c 1,24,-1
 699 379 l 1,25,26
 765 379 765 379 816 357.5 c 128,-1,27
 867 336 867 336 895.5 294 c 128,-1,28
 924 252 924 252 924 191 c 0,29,30
 924 101 924 101 853 50.5 c 128,-1,31
 782 0 782 0 644 0 c 2,32,-1
 282 0 l 1,15,-1
443 122 m 1,33,-1
 633 122 l 2,34,35
 695 122 695 122 728 142.5 c 128,-1,36
 761 163 761 163 761 208 c 0,37,38
 761 252 761 252 728 273.5 c 128,-1,39
 695 295 695 295 633 295 c 2,40,-1
 431 295 l 1,41,-1
 431 413 l 1,42,-1
 604 413 l 2,43,44
 664 413 664 413 695 433.5 c 128,-1,45
 726 454 726 454 726 496 c 0,46,47
 726 537 726 537 695 557.5 c 128,-1,48
 664 578 664 578 604 578 c 2,49,-1
 443 578 l 1,50,-1
 443 122 l 1,33,-1
EndSplineSet
Validated: 37
Substitution2: "sous-table 'c2sc' Capitales vers petites capitales lookups47" uni0253.sc
Substitution2: "sous-table 'locl' Formes localis+AOkA-es g+AOkA-ographiquement dans Latin lookup 21" uni0181.loclXPE
AlternateSubs2: "sous-table 'aalt' Activer toutes les variantes lookups3" uni0181.loclXPE uni0253.sc
EndChar

StartChar: uni0243
Encoding: 579 579 43
Width: 784
GlyphClass: 2
Flags: W
AnchorPoint: "Ancre-3" 399 700 basechar 0
AnchorPoint: "Ancre-0" 399 0 basechar 0
LayerCount: 2
Fore
SplineSet
102 0 m 1,0,-1
 102 700 l 1,1,-1
 444 700 l 2,2,3
 576 700 576 700 643 650 c 128,-1,4
 710 600 710 600 710 518 c 0,5,6
 710 463 710 463 683 423 c 128,-1,7
 656 383 656 383 608.5 362 c 128,-1,8
 561 341 561 341 500 342 c 1,9,-1
 519 382 l 1,10,11
 585 382 585 382 636 359.5 c 128,-1,12
 687 337 687 337 715.5 295 c 128,-1,13
 744 253 744 253 744 193 c 0,14,15
 744 103 744 103 673.5 51.5 c 128,-1,16
 603 0 603 0 464 0 c 2,17,-1
 102 0 l 1,0,-1
14 162 m 1,18,-1
 14 262 l 1,19,-1
 162 262 l 1,20,-1
 194 256 l 1,21,-1
 391 256 l 1,22,-1
 391 168 l 1,23,-1
 194 168 l 1,24,-1
 162 162 l 1,25,-1
 14 162 l 1,18,-1
263 120 m 1,26,-1
 453 120 l 2,27,28
 515 120 515 120 548 142.5 c 128,-1,29
 581 165 581 165 581 210 c 0,30,31
 581 257 581 257 548 280.5 c 128,-1,32
 515 304 515 304 453 304 c 2,33,-1
 251 304 l 1,34,-1
 251 415 l 1,35,-1
 424 415 l 2,36,37
 484 415 484 415 515 434.5 c 128,-1,38
 546 454 546 454 546 496 c 0,39,40
 546 537 546 537 515 557.5 c 128,-1,41
 484 578 484 578 424 578 c 2,42,-1
 263 578 l 1,43,-1
 263 120 l 1,26,-1
EndSplineSet
Validated: 37
Substitution2: "sous-table 'c2sc' Capitales vers petites capitales lookups47" uni0180.sc
Substitution2: "sous-table 'aalt' Activer toutes les variantes lookups2" uni0180.sc
EndChar

StartChar: uni0182
Encoding: 386 386 44
Width: 765
GlyphClass: 2
Flags: W
AnchorPoint: "Ancre-3" 380 700 basechar 0
AnchorPoint: "Ancre-0" 380 0 basechar 0
LayerCount: 2
Fore
SplineSet
83 0 m 1,0,-1
 83 700 l 1,1,-1
 661 700 l 1,2,-1
 661 578 l 1,3,-1
 244 578 l 1,4,-1
 244 122 l 1,5,-1
 433 122 l 2,6,7
 496 122 496 122 528.5 143 c 128,-1,8
 561 164 561 164 561 210 c 0,9,10
 561 255 561 255 528.5 276.5 c 128,-1,11
 496 298 496 298 433 298 c 2,12,-1
 232 298 l 1,13,-1
 232 416 l 1,14,-1
 462 416 l 2,15,16
 587 416 587 416 656 366 c 128,-1,17
 725 316 725 316 725 210 c 0,18,19
 725 105 725 105 654 52.5 c 128,-1,20
 583 0 583 0 445 0 c 2,21,-1
 83 0 l 1,0,-1
EndSplineSet
Validated: 5
Substitution2: "sous-table 'c2sc' Capitales vers petites capitales lookups47" uni0183.sc
Substitution2: "sous-table 'aalt' Activer toutes les variantes lookups2" uni0183.sc
EndChar

StartChar: C
Encoding: 67 67 45
Width: 724
GlyphClass: 2
Flags: W
AnchorPoint: "Ancre-3" 413 700 basechar 0
AnchorPoint: "Ancre-1" 167 357 basechar 0
AnchorPoint: "Ancre-0" 413 0 basechar 0
LayerCount: 2
Fore
SplineSet
418 -12 m 0,0,1
 337 -12 337 -12 267.5 14.5 c 128,-1,2
 198 41 198 41 147 90 c 128,-1,3
 96 139 96 139 67.5 205 c 128,-1,4
 39 271 39 271 39 350 c 256,5,6
 39 429 39 429 67.5 495 c 128,-1,7
 96 561 96 561 147.5 610 c 128,-1,8
 199 659 199 659 268 685.5 c 128,-1,9
 337 712 337 712 419 712 c 0,10,11
 510 712 510 712 583.5 680.5 c 128,-1,12
 657 649 657 649 707 588 c 1,13,-1
 603 492 l 1,14,15
 567 533 567 533 523 553.5 c 128,-1,16
 479 574 479 574 427 574 c 0,17,18
 378 574 378 574 337 558 c 128,-1,19
 296 542 296 542 266 512 c 128,-1,20
 236 482 236 482 219.5 441 c 128,-1,21
 203 400 203 400 203 350 c 256,22,23
 203 300 203 300 219.5 259 c 128,-1,24
 236 218 236 218 266 188 c 128,-1,25
 296 158 296 158 337 142 c 128,-1,26
 378 126 378 126 427 126 c 0,27,28
 479 126 479 126 523 146.5 c 128,-1,29
 567 167 567 167 603 209 c 1,30,-1
 707 113 l 1,31,32
 657 52 657 52 583.5 20 c 128,-1,33
 510 -12 510 -12 418 -12 c 0,0,1
EndSplineSet
Validated: 1
Substitution2: "sous-table 'c2sc' Capitales vers petites capitales lookups47" c.sc
Substitution2: "sous-table 'aalt' Activer toutes les variantes lookups2" c.sc
EndChar

StartChar: Cacute
Encoding: 262 262 46
Width: 1310
VWidth: 1481
GlyphClass: 2
Flags: W
LayerCount: 2
Fore
SplineSet
757.75 662 m 1,0,1
 861.25 618.5 861.25 618.5 861.25 519.5 c 0,2,3
 861.25 473 861.25 473 837.25 434.75 c 128,-1,4
 813.25 396.5 813.25 396.5 777.25 384.5 c 1,5,6
 880.75 332 880.75 332 928.75 257 c 128,-1,7
 976.75 182 976.75 182 976.75 51.5 c 0,8,9
 976.75 -1 976.75 -1 975.25 -19 c 1,10,-1
 334.75 -19 l 1,11,12
 333.25 -1 333.25 -1 333.25 51.5 c 0,13,14
 333.25 180.5 333.25 180.5 382 257 c 128,-1,15
 430.75 333.5 430.75 333.5 534.25 384.5 c 1,16,17
 496.75 396.5 496.75 396.5 472.75 434 c 128,-1,18
 448.75 471.5 448.75 471.5 448.75 519.5 c 0,19,20
 448.75 620 448.75 620 552.25 662 c 1,21,22
 525.25 707 525.25 707 525.25 747.5 c 0,23,24
 525.25 797 525.25 797 564.25 830 c 128,-1,25
 603.25 863 603.25 863 655.75 863 c 128,-1,26
 708.25 863 708.25 863 745.75 830 c 128,-1,27
 783.25 797 783.25 797 783.25 747.5 c 0,28,29
 783.25 704 783.25 704 757.75 662 c 1,0,1
EndSplineSet
Substitution2: "sous-table 'c2sc' Capitales vers petites capitales lookups47" cacute.sc
Substitution2: "sous-table 'aalt' Activer toutes les variantes lookups2" cacute.sc
EndChar

StartChar: uniA792
Encoding: 42898 42898 47
Width: 784
GlyphClass: 2
Flags: W
AnchorPoint: "Ancre-3" 474 700 basechar 0
AnchorPoint: "Ancre-1" 228 357 basechar 0
AnchorPoint: "Ancre-0" 474 0 basechar 0
LayerCount: 2
Fore
SplineSet
479 -12 m 0,0,1
 397 -12 397 -12 327.5 14.5 c 128,-1,2
 258 41 258 41 207 90 c 128,-1,3
 156 139 156 139 128 205 c 128,-1,4
 100 271 100 271 100 350 c 256,5,6
 100 429 100 429 128 495 c 128,-1,7
 156 561 156 561 207.5 610 c 128,-1,8
 259 659 259 659 328.5 685.5 c 128,-1,9
 398 712 398 712 479 712 c 0,10,11
 570 712 570 712 644 680.5 c 128,-1,12
 718 649 718 649 768 588 c 1,13,-1
 664 492 l 1,14,15
 628 533 628 533 584 553.5 c 128,-1,16
 540 574 540 574 487 574 c 0,17,18
 438 574 438 574 397 558 c 128,-1,19
 356 542 356 542 326.5 512 c 128,-1,20
 297 482 297 482 280 441 c 128,-1,21
 263 400 263 400 263 350 c 256,22,23
 263 300 263 300 280 259 c 128,-1,24
 297 218 297 218 326.5 188 c 128,-1,25
 356 158 356 158 397 142 c 128,-1,26
 438 126 438 126 487 126 c 0,27,28
 540 126 540 126 584 146.5 c 128,-1,29
 628 167 628 167 664 209 c 1,30,-1
 768 113 l 1,31,32
 718 52 718 52 644 20 c 128,-1,33
 570 -12 570 -12 479 -12 c 0,0,1
11 303 m 1,34,-1
 11 412 l 1,35,-1
 416 412 l 1,36,-1
 416 303 l 1,37,-1
 11 303 l 1,34,-1
EndSplineSet
Validated: 5
Substitution2: "sous-table 'c2sc' Capitales vers petites capitales lookups47" uniA793.sc
Substitution2: "sous-table 'aalt' Activer toutes les variantes lookups2" uniA793.sc
EndChar

StartChar: Ccircumflex
Encoding: 264 264 51
Width: 1310
VWidth: 1469
GlyphClass: 2
Flags: W
LayerCount: 2
Fore
SplineSet
581.5 315.5 m 2,0,1
 505 315.5 505 315.5 505 291.5 c 0,2,3
 505 266 505 266 655 266 c 128,-1,4
 805 266 805 266 805 291.5 c 0,5,6
 805 315.5 805 315.5 728.5 315.5 c 2,7,-1
 581.5 315.5 l 2,0,1
655 360.5 m 0,8,9
 749.5 360.5 749.5 360.5 777.25 365 c 128,-1,10
 805 369.5 805 369.5 805 384.5 c 0,11,12
 805 408.5 805 408.5 728.5 408.5 c 2,13,-1
 563.5 408.5 l 2,14,15
 505 408.5 505 408.5 505 384.5 c 0,16,17
 505 369.5 505 369.5 535 365 c 128,-1,18
 565 360.5 565 360.5 655 360.5 c 0,8,9
451 336.5 m 0,19,20
 451 339.5 451 339.5 427.75 368 c 128,-1,21
 404.5 396.5 404.5 396.5 382 443 c 128,-1,22
 359.5 489.5 359.5 489.5 359.5 534.5 c 0,23,24
 359.5 633.5 359.5 633.5 433 704 c 128,-1,25
 506.5 774.5 506.5 774.5 583 792.5 c 1,26,27
 550 833 550 833 550 876.5 c 128,-1,28
 550 920 550 920 579.25 944 c 128,-1,29
 608.5 968 608.5 968 655 968 c 0,30,31
 700 968 700 968 730 943.25 c 128,-1,32
 760 918.5 760 918.5 760 876.5 c 128,-1,33
 760 834.5 760 834.5 727 792.5 c 1,34,35
 811 771.5 811 771.5 880.75 704.75 c 128,-1,36
 950.5 638 950.5 638 950.5 534.5 c 0,37,38
 950.5 447.5 950.5 447.5 860.5 344 c 0,39,40
 860.5 335 860.5 335 874.75 289.25 c 128,-1,41
 889 243.5 889 243.5 890.5 228.5 c 0,42,43
 890.5 176 890.5 176 784 167 c 1,44,45
 862 137 862 137 929.5 137 c 2,46,-1
 1018 141.5 l 2,47,48
 1063 141.5 1063 141.5 1089.25 117.5 c 128,-1,49
 1115.5 93.5 1115.5 93.5 1141 45.5 c 1,50,51
 1136.5 39.5 1136.5 39.5 1114.75 3.5 c 128,-1,52
 1093 -32.5 1093 -32.5 1075.75 -50.5 c 128,-1,53
 1058.5 -68.5 1058.5 -68.5 1036 -76 c 1,54,55
 1031.5 -52 1031.5 -52 986.5 -42.25 c 128,-1,56
 941.5 -32.5 941.5 -32.5 883.75 -31 c 128,-1,57
 826 -29.5 826 -29.5 759.25 -10.75 c 128,-1,58
 692.5 8 692.5 8 655 45.5 c 1,59,60
 608.5 -2.5 608.5 -2.5 514.75 -18.25 c 128,-1,61
 421 -34 421 -34 350.5 -40.75 c 128,-1,62
 280 -47.5 280 -47.5 274 -76 c 1,63,64
 251.5 -67 251.5 -67 235 -48.25 c 128,-1,65
 218.5 -29.5 218.5 -29.5 198.25 2 c 128,-1,66
 178 33.5 178 33.5 169 45.5 c 1,67,68
 193 92 193 92 220 116.75 c 128,-1,69
 247 141.5 247 141.5 292 141.5 c 0,70,71
 371.5 137 371.5 137 380.5 137 c 0,72,73
 449.5 137 449.5 137 526 167 c 1,74,75
 419.5 176 419.5 176 419.5 228.5 c 0,76,77
 419.5 239 419.5 239 435.25 281.75 c 128,-1,78
 451 324.5 451 324.5 451 336.5 c 0,19,20
682 483.5 m 1,79,-1
 682 552.5 l 1,80,-1
 734.5 552.5 l 1,81,-1
 734.5 609.5 l 1,82,-1
 682 609.5 l 1,83,-1
 682 674 l 1,84,-1
 628 674 l 1,85,-1
 628 609.5 l 1,86,-1
 575.5 609.5 l 1,87,-1
 575.5 552.5 l 1,88,-1
 628 552.5 l 1,89,-1
 628 483.5 l 1,90,-1
 682 483.5 l 1,79,-1
655 906.5 m 0,91,92
 638.5 906.5 638.5 906.5 627.25 896 c 128,-1,93
 616 885.5 616 885.5 616 870.5 c 128,-1,94
 616 855.5 616 855.5 627.25 844.25 c 128,-1,95
 638.5 833 638.5 833 655 833 c 0,96,97
 692.5 833 692.5 833 692.5 870.5 c 0,98,99
 692.5 906.5 692.5 906.5 655 906.5 c 0,91,92
EndSplineSet
Substitution2: "sous-table 'c2sc' Capitales vers petites capitales lookups47" ccircumflex.sc
Substitution2: "sous-table 'aalt' Activer toutes les variantes lookups2" ccircumflex.sc
EndChar

StartChar: Cdotaccent
Encoding: 266 266 52
Width: 1310
VWidth: 1467
GlyphClass: 2
Flags: W
LayerCount: 2
Fore
SplineSet
656.5 171 m 0,0,1
 562 171 562 171 484.75 157.5 c 128,-1,2
 407.5 144 407.5 144 407.5 123 c 0,3,4
 407.5 99 407.5 99 442 99 c 0,5,6
 448 99 448 99 534.25 105 c 128,-1,7
 620.5 111 620.5 111 658 111 c 0,8,9
 697 111 697 111 781 105 c 128,-1,10
 865 99 865 99 869.5 99 c 0,11,12
 904 99 904 99 904 123 c 0,13,14
 904 171 904 171 656.5 171 c 0,0,1
220 750 m 0,15,16
 203.5 750 203.5 750 193 739.5 c 128,-1,17
 182.5 729 182.5 729 182.5 712.5 c 128,-1,18
 182.5 696 182.5 696 193 685.5 c 128,-1,19
 203.5 675 203.5 675 220 675 c 0,20,21
 256 675 256 675 256 712.5 c 128,-1,22
 256 750 256 750 220 750 c 0,15,16
416.5 844.5 m 0,23,24
 377.5 844.5 377.5 844.5 377.5 807 c 128,-1,25
 377.5 769.5 377.5 769.5 416.5 769.5 c 0,26,27
 452.5 769.5 452.5 769.5 452.5 807 c 128,-1,28
 452.5 844.5 452.5 844.5 416.5 844.5 c 0,23,24
895 844.5 m 0,29,30
 880 844.5 880 844.5 869.5 833.25 c 128,-1,31
 859 822 859 822 859 807 c 0,32,33
 859 769.5 859 769.5 895 769.5 c 0,34,35
 932.5 769.5 932.5 769.5 932.5 807 c 128,-1,36
 932.5 844.5 932.5 844.5 895 844.5 c 0,29,30
1090 750 m 0,37,38
 1054 750 1054 750 1054 712.5 c 128,-1,39
 1054 675 1054 675 1090 675 c 0,40,41
 1127.5 675 1127.5 675 1127.5 712.5 c 0,42,43
 1127.5 729 1127.5 729 1117 739.5 c 128,-1,44
 1106.5 750 1106.5 750 1090 750 c 0,37,38
940 178.5 m 0,45,46
 940 169.5 940 169.5 961 120.75 c 128,-1,47
 982 72 982 72 982 33 c 0,48,49
 982 -3 982 -3 879.25 -18.75 c 128,-1,50
 776.5 -34.5 776.5 -34.5 655 -34.5 c 0,51,52
 517 -34.5 517 -34.5 423.25 -15.75 c 128,-1,53
 329.5 3 329.5 3 329.5 33 c 0,54,55
 329.5 73.5 329.5 73.5 349.75 121.5 c 128,-1,56
 370 169.5 370 169.5 370 178.5 c 0,57,58
 370 204 370 204 313.75 269.25 c 128,-1,59
 257.5 334.5 257.5 334.5 257.5 349.5 c 0,60,61
 257.5 358.5 257.5 358.5 246.25 396 c 128,-1,62
 235 433.5 235 433.5 221.5 495 c 128,-1,63
 208 556.5 208 556.5 203.5 621 c 1,64,65
 134.5 649.5 134.5 649.5 134.5 712.5 c 0,66,67
 134.5 748.5 134.5 748.5 159.25 772.5 c 128,-1,68
 184 796.5 184 796.5 220 796.5 c 0,69,70
 254.5 796.5 254.5 796.5 279.25 771.75 c 128,-1,71
 304 747 304 747 304 712.5 c 0,72,73
 304 711 304 711 300.25 684.75 c 128,-1,74
 296.5 658.5 296.5 658.5 296.5 655.5 c 0,75,76
 296.5 588 296.5 588 392.5 490.5 c 1,77,78
 400 552 400 552 400 619.5 c 0,79,80
 400 675 400 675 389.5 706.5 c 128,-1,81
 379 738 379 738 365.5 745.5 c 128,-1,82
 352 753 352 753 341.5 768 c 128,-1,83
 331 783 331 783 331 810 c 0,84,85
 331 846 331 846 355.75 870 c 128,-1,86
 380.5 894 380.5 894 416.5 894 c 0,87,88
 451 894 451 894 475.75 869.25 c 128,-1,89
 500.5 844.5 500.5 844.5 500.5 810 c 0,90,91
 500.5 807 500.5 807 495.25 778.5 c 128,-1,92
 490 750 490 750 490 745.5 c 0,93,94
 490 661.5 490 661.5 572.5 489 c 1,95,96
 604 630 604 630 604 705 c 0,97,98
 604 759 604 759 588.25 803.25 c 128,-1,99
 572.5 847.5 572.5 847.5 572.5 850.5 c 0,100,101
 572.5 886.5 572.5 886.5 597.25 910.5 c 128,-1,102
 622 934.5 622 934.5 656.5 934.5 c 128,-1,103
 691 934.5 691 934.5 714.25 909.75 c 128,-1,104
 737.5 885 737.5 885 737.5 850.5 c 0,105,106
 737.5 843 737.5 843 721.75 801 c 128,-1,107
 706 759 706 759 706 705 c 0,108,109
 706 630 706 630 737.5 489 c 1,110,111
 818.5 660 818.5 660 818.5 745.5 c 0,112,113
 818.5 751.5 818.5 751.5 814 777 c 128,-1,114
 809.5 802.5 809.5 802.5 809.5 810 c 0,115,116
 809.5 846 809.5 846 834.25 870 c 128,-1,117
 859 894 859 894 895 894 c 0,118,119
 929.5 894 929.5 894 954.25 869.25 c 128,-1,120
 979 844.5 979 844.5 979 810 c 0,121,122
 979 787.5 979 787.5 972.25 774.75 c 128,-1,123
 965.5 762 965.5 762 955 753 c 128,-1,124
 944.5 744 944.5 744 934 731.25 c 128,-1,125
 923.5 718.5 923.5 718.5 916.75 690 c 128,-1,126
 910 661.5 910 661.5 910 618 c 0,127,128
 910 552 910 552 917.5 490.5 c 1,129,130
 1013.5 588 1013.5 588 1013.5 655.5 c 0,131,132
 1013.5 690 1013.5 690 1006 712.5 c 1,133,134
 1006 747 1006 747 1030.75 771.75 c 128,-1,135
 1055.5 796.5 1055.5 796.5 1090 796.5 c 0,136,137
 1126 796.5 1126 796.5 1150.75 771.75 c 128,-1,138
 1175.5 747 1175.5 747 1175.5 712.5 c 0,139,140
 1175.5 652.5 1175.5 652.5 1106.5 621 c 1,141,142
 1097.5 526.5 1097.5 526.5 1075 446.25 c 128,-1,143
 1052.5 366 1052.5 366 1052.5 349.5 c 0,144,145
 1052.5 336 1052.5 336 996.25 270 c 128,-1,146
 940 204 940 204 940 178.5 c 0,45,46
656.5 891 m 128,-1,148
 641.5 891 641.5 891 630.25 880.5 c 128,-1,149
 619 870 619 870 619 853.5 c 128,-1,150
 619 837 619 837 630.25 826.5 c 128,-1,151
 641.5 816 641.5 816 656.5 816 c 0,152,153
 692.5 816 692.5 816 692.5 853.5 c 0,154,155
 692.5 868.5 692.5 868.5 682 879.75 c 128,-1,147
 671.5 891 671.5 891 656.5 891 c 128,-1,148
926.5 306 m 0,156,157
 926.5 331.5 926.5 331.5 837.25 342.75 c 128,-1,158
 748 354 748 354 656.5 354 c 0,159,160
 569.5 354 569.5 354 477.25 342 c 128,-1,161
 385 330 385 330 385 304.5 c 0,162,163
 385 283.5 385 283.5 424 283.5 c 0,164,165
 457 283.5 457 283.5 535 288.75 c 128,-1,166
 613 294 613 294 658 294 c 0,167,168
 704.5 294 704.5 294 795.25 288.75 c 128,-1,169
 886 283.5 886 283.5 890.5 283.5 c 0,170,171
 926.5 283.5 926.5 283.5 926.5 306 c 0,156,157
EndSplineSet
Substitution2: "sous-table 'c2sc' Capitales vers petites capitales lookups47" cdotaccent.sc
Substitution2: "sous-table 'aalt' Activer toutes les variantes lookups2" cdotaccent.sc
EndChar

StartChar: uniA7B3
Encoding: 42931 42931 53
Width: 618
GlyphClass: 1
Flags: W
LayerCount: 2
Fore
SplineSet
736 -122 m 1,0,1
 704 -161 704 -161 659 -183.5 c 128,-1,2
 614 -206 614 -206 566 -206 c 128,-1,3
 518 -206 518 -206 474.5 -179 c 128,-1,4
 431 -152 431 -152 404 -93 c 2,5,-1
 280 167 l 1,6,-1
 229 240 l 1,7,-1
 79 527 l 2,8,9
 66 552 66 552 47.5 562.5 c 128,-1,10
 29 573 29 573 9 566.5 c 128,-1,11
 -11 560 -11 560 -31 535 c 1,12,-1
 -118 628 l 1,13,14
 -85 666 -85 666 -40.5 688.5 c 128,-1,15
 4 711 4 711 51.5 711 c 128,-1,16
 99 711 99 711 142 683 c 128,-1,17
 185 655 185 655 215 593 c 2,18,-1
 323 371 l 1,19,-1
 369 301 l 1,20,-1
 537 -21 l 2,21,22
 550 -46 550 -46 569 -57 c 128,-1,23
 588 -68 588 -68 609 -61 c 128,-1,24
 630 -54 630 -54 649 -29 c 1,25,-1
 736 -122 l 1,0,1
-52 -194 m 1,26,-1
 244 329 l 1,27,-1
 276 324 l 1,28,-1
 472 700 l 1,29,-1
 649 700 l 1,30,-1
 366 217 l 1,31,-1
 336 216 l 1,32,-1
 126 -194 l 1,33,-1
 -52 -194 l 1,26,-1
EndSplineSet
Validated: 37
Substitution2: "sous-table 'c2sc' Capitales vers petites capitales lookups47" uniAB53.sc
Substitution2: "sous-table 'aalt' Activer toutes les variantes lookups2" uniAB53.sc
EndChar

StartChar: uni0187
Encoding: 391 391 54
Width: 762
GlyphClass: 2
Flags: W
AnchorPoint: "Ancre-3" 418 700 basechar 0
AnchorPoint: "Ancre-0" 418 0 basechar 0
LayerCount: 2
Fore
SplineSet
713 588 m 1,0,-1
 575 589 l 1,1,-1
 575 682 l 2,2,3
 575 742 575 742 599 781.5 c 128,-1,4
 623 821 623 821 662 841 c 128,-1,5
 701 861 701 861 748.5 861.5 c 128,-1,6
 796 862 796 862 842 843 c 1,7,-1
 806 731 l 1,8,9
 785 740 785 740 763 736 c 128,-1,10
 741 732 741 732 727 717 c 128,-1,11
 713 702 713 702 713 675 c 2,12,-1
 713 588 l 1,0,-1
424 -12 m 0,13,14
 342 -12 342 -12 273 14.5 c 128,-1,15
 204 41 204 41 153 90 c 128,-1,16
 102 139 102 139 73.5 205 c 128,-1,17
 45 271 45 271 45 350 c 256,18,19
 45 429 45 429 73.5 495 c 128,-1,20
 102 561 102 561 153 610 c 128,-1,21
 204 659 204 659 273.5 685.5 c 128,-1,22
 343 712 343 712 425 712 c 0,23,24
 516 712 516 712 589.5 680.5 c 128,-1,25
 663 649 663 649 713 588 c 1,26,-1
 609 492 l 1,27,28
 573 533 573 533 529 553.5 c 128,-1,29
 485 574 485 574 432 574 c 0,30,31
 383 574 383 574 342.5 558 c 128,-1,32
 302 542 302 542 272 512 c 128,-1,33
 242 482 242 482 225.5 441 c 128,-1,34
 209 400 209 400 209 350 c 256,35,36
 209 300 209 300 225.5 259 c 128,-1,37
 242 218 242 218 272 188 c 128,-1,38
 302 158 302 158 342.5 142 c 128,-1,39
 383 126 383 126 432 126 c 0,40,41
 485 126 485 126 529 146.5 c 128,-1,42
 573 167 573 167 609 209 c 1,43,-1
 713 113 l 1,44,45
 663 52 663 52 589.5 20 c 128,-1,46
 516 -12 516 -12 424 -12 c 0,13,14
EndSplineSet
Validated: 37
Substitution2: "sous-table 'c2sc' Capitales vers petites capitales lookups47" uni0188.sc
Substitution2: "sous-table 'aalt' Activer toutes les variantes lookups2" uni0188.sc
EndChar

StartChar: uni023B
Encoding: 571 571 55
Width: 724
GlyphClass: 2
Flags: W
AnchorPoint: "Ancre-3" 413 700 basechar 0
AnchorPoint: "Ancre-0" 413 0 basechar 0
LayerCount: 2
Fore
SplineSet
170 -70 m 1,0,-1
 558 770 l 1,1,-1
 659 770 l 1,2,-1
 272 -70 l 1,3,-1
 170 -70 l 1,0,-1
418 -12 m 0,4,5
 337 -12 337 -12 267.5 14.5 c 128,-1,6
 198 41 198 41 147 90 c 128,-1,7
 96 139 96 139 67.5 205 c 128,-1,8
 39 271 39 271 39 350 c 256,9,10
 39 429 39 429 67.5 495 c 128,-1,11
 96 561 96 561 147.5 610 c 128,-1,12
 199 659 199 659 268 685.5 c 128,-1,13
 337 712 337 712 419 712 c 0,14,15
 510 712 510 712 583.5 680.5 c 128,-1,16
 657 649 657 649 707 588 c 1,17,-1
 603 492 l 1,18,19
 567 533 567 533 523 553.5 c 128,-1,20
 479 574 479 574 427 574 c 0,21,22
 378 574 378 574 337 558 c 128,-1,23
 296 542 296 542 266 512 c 128,-1,24
 236 482 236 482 219.5 441 c 128,-1,25
 203 400 203 400 203 350 c 256,26,27
 203 300 203 300 219.5 259 c 128,-1,28
 236 218 236 218 266 188 c 128,-1,29
 296 158 296 158 337 142 c 128,-1,30
 378 126 378 126 427 126 c 0,31,32
 479 126 479 126 523 146.5 c 128,-1,33
 567 167 567 167 603 209 c 1,34,-1
 707 113 l 1,35,36
 657 52 657 52 583.5 20 c 128,-1,37
 510 -12 510 -12 418 -12 c 0,4,5
EndSplineSet
Validated: 5
Substitution2: "sous-table 'c2sc' Capitales vers petites capitales lookups47" uni023C.sc
Substitution2: "sous-table 'aalt' Activer toutes les variantes lookups2" uni023C.sc
EndChar

StartChar: D
Encoding: 68 68 56
Width: 826
GlyphClass: 2
Flags: W
AnchorPoint: "Ancre-3" 370 700 basechar 0
AnchorPoint: "Ancre-1" 204 357 basechar 0
AnchorPoint: "Ancre-0" 373 0 basechar 0
LayerCount: 2
Fore
SplineSet
83 0 m 1,0,-1
 83 700 l 1,1,-1
 401 700 l 2,2,3
 515 700 515 700 602 656.5 c 128,-1,4
 689 613 689 613 738 535 c 128,-1,5
 787 457 787 457 787 350 c 0,6,7
 787 244 787 244 738 165.5 c 128,-1,8
 689 87 689 87 602 43.5 c 128,-1,9
 515 0 515 0 401 0 c 2,10,-1
 83 0 l 1,0,-1
245 133 m 1,11,-1
 393 133 l 2,12,13
 463 133 463 133 514.5 159.5 c 128,-1,14
 566 186 566 186 594.5 235 c 128,-1,15
 623 284 623 284 623 350 c 0,16,17
 623 417 623 417 594.5 465.5 c 128,-1,18
 566 514 566 514 514.5 540.5 c 128,-1,19
 463 567 463 567 393 567 c 2,20,-1
 245 567 l 1,21,-1
 245 133 l 1,11,-1
EndSplineSet
Validated: 1
Substitution2: "sous-table 'c2sc' Capitales vers petites capitales lookups47" d.sc
Substitution2: "sous-table 'aalt' Activer toutes les variantes lookups2" d.sc
EndChar

StartChar: uni018A
Encoding: 394 394 65
Width: 1025
GlyphClass: 2
Flags: W
AnchorPoint: "Ancre-3" 569 700 basechar 0
AnchorPoint: "Ancre-1" 403 357 basechar 0
AnchorPoint: "Ancre-0" 572 0 basechar 0
LayerCount: 2
Fore
SplineSet
87 350 m 1,0,1
 53 388 53 388 36.5 435 c 128,-1,2
 20 482 20 482 23.5 528.5 c 128,-1,3
 27 575 27 575 51 614 c 128,-1,4
 75 653 75 653 121.5 676.5 c 128,-1,5
 168 700 168 700 237 700 c 2,6,-1
 290 700 l 1,7,-1
 290 568 l 1,8,-1
 236 568 l 2,9,10
 208 568 208 568 192 554 c 128,-1,11
 176 540 176 540 172 518 c 128,-1,12
 168 496 168 496 176 470 c 128,-1,13
 184 444 184 444 204 418 c 1,14,-1
 87 350 l 1,0,1
282 0 m 1,15,-1
 282 700 l 1,16,-1
 600 700 l 2,17,18
 715 700 715 700 801.5 656.5 c 128,-1,19
 888 613 888 613 937 535 c 128,-1,20
 986 457 986 457 986 350 c 0,21,22
 986 244 986 244 937 165.5 c 128,-1,23
 888 87 888 87 801.5 43.5 c 128,-1,24
 715 0 715 0 600 0 c 2,25,-1
 282 0 l 1,15,-1
444 133 m 1,26,-1
 592 133 l 2,27,28
 662 133 662 133 713.5 159.5 c 128,-1,29
 765 186 765 186 793.5 235 c 128,-1,30
 822 284 822 284 822 350 c 0,31,32
 822 417 822 417 793.5 465.5 c 128,-1,33
 765 514 765 514 713.5 540.5 c 128,-1,34
 662 567 662 567 592 567 c 2,35,-1
 444 567 l 1,36,-1
 444 133 l 1,26,-1
EndSplineSet
Validated: 37
Substitution2: "sous-table 'c2sc' Capitales vers petites capitales lookups47" uni0257.sc
Substitution2: "sous-table 'aalt' Activer toutes les variantes lookups2" uni0257.sc
EndChar

StartChar: uni018B
Encoding: 395 395 68
Width: 755
GlyphClass: 1
Flags: W
LayerCount: 2
Fore
SplineSet
307 0 m 2,0,1
 176 0 176 0 102 57 c 128,-1,2
 28 114 28 114 28 218 c 0,3,4
 28 317 28 317 96 372 c 128,-1,5
 164 427 164 427 295 427 c 2,6,-1
 511 427 l 1,7,-1
 511 575 l 1,8,-1
 109 575 l 1,9,-1
 109 700 l 1,10,-1
 672 700 l 1,11,-1
 672 0 l 1,12,-1
 307 0 l 2,0,1
321 122 m 2,13,-1
 511 122 l 1,14,-1
 511 309 l 1,15,-1
 321 309 l 2,16,17
 257 309 257 309 224.5 285 c 128,-1,18
 192 261 192 261 192 219 c 0,19,20
 192 176 192 176 225 149 c 128,-1,21
 258 122 258 122 321 122 c 2,13,-1
EndSplineSet
Validated: 1
Substitution2: "sous-table 'c2sc' Capitales vers petites capitales lookups47" uni018C.sc
Substitution2: "sous-table 'aalt' Activer toutes les variantes lookups2" uni018C.sc
EndChar

StartChar: E
Encoding: 69 69 72
Width: 671
GlyphClass: 2
Flags: W
AnchorPoint: "Ancre-3" 347 700 basechar 0
AnchorPoint: "Ancre-2" 625 0 basechar 0
AnchorPoint: "Ancre-0" 347 0 basechar 0
LayerCount: 2
Fore
SplineSet
83 0 m 1,0,-1
 83 700 l 1,1,-1
 612 700 l 1,2,-1
 612 570 l 1,3,-1
 244 570 l 1,4,-1
 244 130 l 1,5,-1
 625 130 l 1,6,-1
 625 0 l 1,7,-1
 83 0 l 1,0,-1
232 292 m 1,8,-1
 232 418 l 1,9,-1
 569 418 l 1,10,-1
 569 292 l 1,11,-1
 232 292 l 1,8,-1
EndSplineSet
Validated: 5
Substitution2: "sous-table 'ss01' Jeu stylistique 1 lookups52" E.ss01
Substitution2: "sous-table 'c2sc' Capitales vers petites capitales lookups47" e.sc
AlternateSubs2: "sous-table 'aalt' Activer toutes les variantes lookups3" e.sc E.ss01
EndChar

StartChar: uni0190
Encoding: 400 400 96
Width: 652
GlyphClass: 2
Flags: W
AnchorPoint: "Ancre-3" 353 700 basechar 0
AnchorPoint: "Ancre-2" 463 0 basechar 0
AnchorPoint: "Ancre-0" 353 0 basechar 0
LayerCount: 2
Fore
SplineSet
372 -12 m 0,0,1
 266 -12 266 -12 192 15 c 128,-1,2
 118 42 118 42 79.5 90 c 128,-1,3
 41 138 41 138 41 200 c 0,4,5
 41 255 41 255 68.5 294.5 c 128,-1,6
 96 334 96 334 144 355 c 128,-1,7
 192 376 192 376 252 376 c 1,8,-1
 257 341 l 1,9,10
 199 341 199 341 157 366 c 128,-1,11
 115 391 115 391 93 431 c 128,-1,12
 71 471 71 471 71 517 c 0,13,14
 71 568 71 568 96 604.5 c 128,-1,15
 121 641 121 641 163.5 665 c 128,-1,16
 206 689 206 689 260 700.5 c 128,-1,17
 314 712 314 712 373 712 c 0,18,19
 441 712 441 712 508.5 696.5 c 128,-1,20
 576 681 576 681 629 653 c 1,21,-1
 583 529 l 1,22,23
 556 544 556 544 520.5 555.5 c 128,-1,24
 485 567 485 567 446 573.5 c 128,-1,25
 407 580 407 580 371 580 c 0,26,27
 334 580 334 580 303 571.5 c 128,-1,28
 272 563 272 563 253.5 544 c 128,-1,29
 235 525 235 525 235 493 c 0,30,31
 235 458 235 458 261.5 439 c 128,-1,32
 288 420 288 420 342 420 c 2,33,-1
 512 420 l 1,34,-1
 512 298 l 1,35,-1
 332 298 l 2,36,37
 292 298 292 298 263.5 288 c 128,-1,38
 235 278 235 278 220 259 c 128,-1,39
 205 240 205 240 205 212 c 0,40,41
 205 169 205 169 245.5 144 c 128,-1,42
 286 119 286 119 372 119 c 0,43,44
 440 119 440 119 500 135 c 128,-1,45
 560 151 560 151 607 182 c 1,46,-1
 657 60 l 1,47,48
 607 27 607 27 533.5 7.5 c 128,-1,49
 460 -12 460 -12 372 -12 c 0,0,1
EndSplineSet
Validated: 5
Substitution2: "sous-table 'c2sc' Capitales vers petites capitales lookups47" uni025B.sc
Substitution2: "sous-table 'aalt' Activer toutes les variantes lookups2" uni025B.sc
EndChar

StartChar: uni018E
Encoding: 398 398 97
Width: 671
GlyphClass: 2
Flags: W
AnchorPoint: "Ancre-3" 324 700 basechar 0
AnchorPoint: "Ancre-0" 324 0 basechar 0
LayerCount: 2
Fore
SplineSet
588 0 m 1,0,-1
 46 0 l 1,1,-1
 46 130 l 1,2,-1
 427 130 l 1,3,-1
 427 570 l 1,4,-1
 60 570 l 1,5,-1
 60 700 l 1,6,-1
 588 700 l 1,7,-1
 588 0 l 1,0,-1
439 292 m 1,8,-1
 102 292 l 1,9,-1
 102 418 l 1,10,-1
 439 418 l 1,11,-1
 439 292 l 1,8,-1
EndSplineSet
Validated: 5
Substitution2: "sous-table 'ss01' Jeu stylistique 1 lookups52" uni018E.ss01
Substitution2: "sous-table 'c2sc' Capitales vers petites capitales lookups47" uni0258.sc
AlternateSubs2: "sous-table 'aalt' Activer toutes les variantes lookups3" uni0258.sc uni018E.ss01
EndChar

StartChar: uniA7AB
Encoding: 42923 42923 98
Width: 652
GlyphClass: 2
Flags: W
AnchorPoint: "Ancre-3" 300 700 basechar 0
AnchorPoint: "Ancre-2" 189 0 basechar 0
AnchorPoint: "Ancre-0" 300 0 basechar 0
LayerCount: 2
Fore
SplineSet
280 -12 m 0,0,1
 193 -12 193 -12 119.5 7.5 c 128,-1,2
 46 27 46 27 -5 60 c 1,3,-1
 46 182 l 1,4,5
 93 151 93 151 153 135 c 128,-1,6
 213 119 213 119 281 119 c 0,7,8
 367 119 367 119 407.5 144 c 128,-1,9
 448 169 448 169 448 212 c 0,10,11
 448 240 448 240 433 259 c 128,-1,12
 418 278 418 278 389.5 288 c 128,-1,13
 361 298 361 298 321 298 c 2,14,-1
 140 298 l 1,15,-1
 140 420 l 1,16,-1
 311 420 l 2,17,18
 365 420 365 420 391.5 439 c 128,-1,19
 418 458 418 458 418 493 c 0,20,21
 418 525 418 525 399.5 544 c 128,-1,22
 381 563 381 563 350 571.5 c 128,-1,23
 319 580 319 580 281 580 c 0,24,25
 245 580 245 580 206 573.5 c 128,-1,26
 167 567 167 567 132 555.5 c 128,-1,27
 97 544 97 544 69 529 c 1,28,-1
 24 653 l 1,29,30
 77 681 77 681 144 696.5 c 128,-1,31
 211 712 211 712 280 712 c 0,32,33
 338 712 338 712 392 700.5 c 128,-1,34
 446 689 446 689 489 665 c 128,-1,35
 532 641 532 641 557 604.5 c 128,-1,36
 582 568 582 568 582 517 c 0,37,38
 582 471 582 471 560 431 c 128,-1,39
 538 391 538 391 496 366 c 128,-1,40
 454 341 454 341 395 341 c 1,41,-1
 400 376 l 1,42,43
 461 376 461 376 508.5 355 c 128,-1,44
 556 334 556 334 583.5 294.5 c 128,-1,45
 611 255 611 255 611 200 c 0,46,47
 611 138 611 138 572.5 90 c 128,-1,48
 534 42 534 42 460.5 15 c 128,-1,49
 387 -12 387 -12 280 -12 c 0,0,1
EndSplineSet
Validated: 5
Substitution2: "sous-table 'c2sc' Capitales vers petites capitales lookups47" uni025C.sc
Substitution2: "sous-table 'aalt' Activer toutes les variantes lookups2" uni025C.sc
EndChar

StartChar: uni01A9
Encoding: 425 425 99
Width: 517
GlyphClass: 1
Flags: W
LayerCount: 2
Fore
SplineSet
124 -12 m 0,0,1
 78 -12 78 -12 35 2 c 128,-1,2
 -8 16 -8 16 -38 43 c 1,3,-1
 10 155 l 1,4,5
 33 138 33 138 54.5 130 c 128,-1,6
 76 122 76 122 97 122 c 0,7,8
 129 122 129 122 153.5 139.5 c 128,-1,9
 178 157 178 157 177 200 c 2,10,-1
 172 494 l 2,11,12
 171 569 171 569 199 617 c 128,-1,13
 227 665 227 665 276.5 688.5 c 128,-1,14
 326 712 326 712 390 712 c 0,15,16
 437 712 437 712 479 698 c 128,-1,17
 521 684 521 684 551 657 c 1,18,-1
 504 545 l 1,19,20
 481 562 481 562 459 570 c 128,-1,21
 437 578 437 578 417 578 c 0,22,23
 399 578 399 578 380 571.5 c 128,-1,24
 361 565 361 565 349 548.5 c 128,-1,25
 337 532 337 532 337 500 c 2,26,-1
 341 206 l 2,27,28
 342 143 342 143 323 101 c 128,-1,29
 304 59 304 59 272.5 34 c 128,-1,30
 241 9 241 9 202 -1.5 c 128,-1,31
 163 -12 163 -12 124 -12 c 0,0,1
EndSplineSet
Validated: 33
Substitution2: "sous-table 'c2sc' Capitales vers petites capitales lookups47" uni0283.sc
Substitution2: "sous-table 'aalt' Activer toutes les variantes lookups2" uni0283.sc
EndChar

StartChar: uni0246
Encoding: 582 582 100
Width: 671
GlyphClass: 2
Flags: W
AnchorPoint: "Ancre-3" 347 700 basechar 0
AnchorPoint: "Ancre-2" 625 0 basechar 0
AnchorPoint: "Ancre-0" 347 0 basechar 0
LayerCount: 2
Fore
SplineSet
149 -70 m 1,0,-1
 534 770 l 1,1,-1
 633 770 l 1,2,-1
 249 -70 l 1,3,-1
 149 -70 l 1,0,-1
83 0 m 1,4,-1
 83 700 l 1,5,-1
 612 700 l 1,6,-1
 612 570 l 1,7,-1
 244 570 l 1,8,-1
 244 130 l 1,9,-1
 625 130 l 1,10,-1
 625 0 l 1,11,-1
 83 0 l 1,4,-1
232 292 m 1,12,-1
 232 418 l 1,13,-1
 569 418 l 1,14,-1
 569 292 l 1,15,-1
 232 292 l 1,12,-1
EndSplineSet
Validated: 5
Substitution2: "sous-table 'ss01' Jeu stylistique 1 lookups52" uni0246.ss01
Substitution2: "sous-table 'c2sc' Capitales vers petites capitales lookups47" uni0247.sc
AlternateSubs2: "sous-table 'aalt' Activer toutes les variantes lookups3" uni0247.sc uni0246.ss01
EndChar

StartChar: uni018F
Encoding: 399 399 103
Width: 817
GlyphClass: 2
Flags: W
AnchorPoint: "Ancre-3" 409 700 basechar 0
AnchorPoint: "Ancre-2" 471 0 basechar 0
AnchorPoint: "Ancre-0" 409 0 basechar 0
LayerCount: 2
Fore
SplineSet
409 -12 m 256,0,1
 329 -12 329 -12 261 15 c 128,-1,2
 193 42 193 42 143.5 91 c 128,-1,3
 94 140 94 140 66.5 208 c 128,-1,4
 39 276 39 276 39 357 c 2,5,-1
 39 391 l 1,6,-1
 632 391 l 1,7,-1
 632 281 l 1,8,-1
 150 281 l 1,9,-1
 202 334 l 1,10,11
 202 284 202 284 216.5 244 c 128,-1,12
 231 204 231 204 258 175.5 c 128,-1,13
 285 147 285 147 323 132 c 128,-1,14
 361 117 361 117 409 117 c 256,15,16
 457 117 457 117 495 132 c 128,-1,17
 533 147 533 147 559.5 175.5 c 128,-1,18
 586 204 586 204 600 243 c 128,-1,19
 614 282 614 282 614 331 c 2,20,-1
 614 357 l 2,21,22
 614 404 614 404 597.5 444 c 128,-1,23
 581 484 581 484 552 513 c 128,-1,24
 523 542 523 542 483 558 c 128,-1,25
 443 574 443 574 397 574 c 0,26,27
 361 574 361 574 324 565 c 128,-1,28
 287 556 287 556 253.5 538 c 128,-1,29
 220 520 220 520 194 492 c 1,30,-1
 97 597 l 1,31,32
 130 631 130 631 177.5 657 c 128,-1,33
 225 683 225 683 281 697.5 c 128,-1,34
 337 712 337 712 398 712 c 0,35,36
 481 712 481 712 550.5 685.5 c 128,-1,37
 620 659 620 659 671.5 610 c 128,-1,38
 723 561 723 561 750.5 495 c 128,-1,39
 778 429 778 429 778 351 c 0,40,41
 778 271 778 271 750.5 205 c 128,-1,42
 723 139 723 139 673 90.5 c 128,-1,43
 623 42 623 42 556 15 c 128,-1,44
 489 -12 489 -12 409 -12 c 256,0,1
EndSplineSet
Validated: 5
Substitution2: "sous-table 'ss01' Jeu stylistique 1 lookups52" uni018F.ss01
Substitution2: "sous-table 'c2sc' Capitales vers petites capitales lookups47" uni0259.sc
AlternateSubs2: "sous-table 'aalt' Activer toutes les variantes lookups3" uni0259.sc uni018F.ss01
EndChar

StartChar: uni01B8
Encoding: 440 440 106
Width: 639
GlyphClass: 2
Flags: W
AnchorPoint: "Ancre-3" 322 700 basechar 0
AnchorPoint: "Ancre-0" 322 0 basechar 0
LayerCount: 2
Fore
SplineSet
342 -12 m 0,0,1
 238 -12 238 -12 171 20 c 128,-1,2
 104 52 104 52 72 103.5 c 128,-1,3
 40 155 40 155 40 215 c 256,4,5
 40 275 40 275 71 321.5 c 128,-1,6
 102 368 102 368 162.5 394 c 128,-1,7
 223 420 223 420 314 420 c 2,8,-1
 361 420 l 1,9,-1
 290 374 l 1,10,-1
 76 595 l 1,11,-1
 76 700 l 1,12,-1
 587 700 l 1,13,-1
 587 571 l 1,14,-1
 197 571 l 1,15,-1
 211 634 l 1,16,-1
 426 412 l 1,17,-1
 426 302 l 1,18,-1
 346 302 l 2,19,20
 272 302 272 302 237 278.5 c 128,-1,21
 202 255 202 255 202 214 c 0,22,23
 202 170 202 170 241 146 c 128,-1,24
 280 122 280 122 347 122 c 0,25,26
 407 122 407 122 463.5 139 c 128,-1,27
 520 156 520 156 561 187 c 1,28,-1
 616 62 l 1,29,30
 568 27 568 27 494 7.5 c 128,-1,31
 420 -12 420 -12 342 -12 c 0,0,1
EndSplineSet
Validated: 5
Substitution2: "sous-table 'c2sc' Capitales vers petites capitales lookups47" uni01B9.sc
Substitution2: "sous-table 'aalt' Activer toutes les variantes lookups2" uni01B9.sc
EndChar

StartChar: F
Encoding: 70 70 107
Width: 639
GlyphClass: 2
Flags: W
AnchorPoint: "Ancre-3" 344 700 basechar 0
AnchorPoint: "Ancre-0" 344 0 basechar 0
LayerCount: 2
Fore
SplineSet
83 0 m 1,0,-1
 83 700 l 1,1,-1
 612 700 l 1,2,-1
 612 570 l 1,3,-1
 245 570 l 1,4,-1
 245 0 l 1,5,-1
 83 0 l 1,0,-1
233 255 m 1,6,-1
 233 385 l 1,7,-1
 569 385 l 1,8,-1
 569 255 l 1,9,-1
 233 255 l 1,6,-1
EndSplineSet
Validated: 5
Substitution2: "sous-table 'ss01' Jeu stylistique 1 lookups52" F.ss01
Substitution2: "sous-table 'c2sc' Capitales vers petites capitales lookups47" f.sc
AlternateSubs2: "sous-table 'aalt' Activer toutes les variantes lookups3" f.sc F.ss01
EndChar

StartChar: uni0191
Encoding: 401 401 109
Width: 664
GlyphClass: 1
Flags: W
LayerCount: 2
Fore
SplineSet
-44 -182 m 1,0,-1
 -4 -66 l 1,1,2
 23 -77 23 -77 46.5 -74 c 128,-1,3
 70 -71 70 -71 85.5 -54 c 128,-1,4
 101 -37 101 -37 101 -8 c 2,5,-1
 101 700 l 1,6,-1
 629 700 l 1,7,-1
 629 570 l 1,8,-1
 263 570 l 1,9,-1
 263 -9 l 2,10,11
 263 -74 263 -74 235 -117.5 c 128,-1,12
 207 -161 207 -161 161.5 -182.5 c 128,-1,13
 116 -204 116 -204 62 -203.5 c 128,-1,14
 8 -203 8 -203 -44 -182 c 1,0,-1
251 255 m 1,15,-1
 251 385 l 1,16,-1
 587 385 l 1,17,-1
 587 255 l 1,18,-1
 251 255 l 1,15,-1
EndSplineSet
Validated: 37
Substitution2: "sous-table 'ss01' Jeu stylistique 1 lookups52" uni0191.ss01
Substitution2: "sous-table 'c2sc' Capitales vers petites capitales lookups47" florin.sc
AlternateSubs2: "sous-table 'aalt' Activer toutes les variantes lookups3" florin.sc uni0191.ss01
EndChar

StartChar: G
Encoding: 71 71 110
Width: 771
GlyphClass: 2
Flags: W
AnchorPoint: "Ancre-3" 417 700 basechar 0
AnchorPoint: "Ancre-0" 407 0 basechar 0
LayerCount: 2
Fore
SplineSet
421 -12 m 0,0,1
 338 -12 338 -12 268.5 14.5 c 128,-1,2
 199 41 199 41 147.5 90 c 128,-1,3
 96 139 96 139 67.5 205 c 128,-1,4
 39 271 39 271 39 350 c 256,5,6
 39 429 39 429 67.5 495 c 128,-1,7
 96 561 96 561 148 610 c 128,-1,8
 200 659 200 659 270 685.5 c 128,-1,9
 340 712 340 712 424 712 c 0,10,11
 517 712 517 712 591.5 681 c 128,-1,12
 666 650 666 650 717 591 c 1,13,-1
 613 495 l 1,14,15
 575 535 575 535 530 554.5 c 128,-1,16
 485 574 485 574 432 574 c 0,17,18
 381 574 381 574 339 558 c 128,-1,19
 297 542 297 542 266.5 512 c 128,-1,20
 236 482 236 482 219.5 441 c 128,-1,21
 203 400 203 400 203 350 c 0,22,23
 203 301 203 301 219.5 260 c 128,-1,24
 236 219 236 219 266.5 188.5 c 128,-1,25
 297 158 297 158 338.5 142 c 128,-1,26
 380 126 380 126 430 126 c 0,27,28
 478 126 478 126 523.5 141.5 c 128,-1,29
 569 157 569 157 612 194 c 1,30,-1
 704 77 l 1,31,32
 647 34 647 34 571.5 11 c 128,-1,33
 496 -12 496 -12 421 -12 c 0,0,1
704 77 m 1,34,-1
 556 98 l 1,35,-1
 556 361 l 1,36,-1
 704 361 l 1,37,-1
 704 77 l 1,34,-1
EndSplineSet
Validated: 5
Substitution2: "sous-table 'ss01' Jeu stylistique 1 lookups52" G.ss01
Substitution2: "sous-table 'c2sc' Capitales vers petites capitales lookups47" g.sc
AlternateSubs2: "sous-table 'aalt' Activer toutes les variantes lookups3" g.sc G.ss01
EndChar

StartChar: uni0193
Encoding: 403 403 117
Width: 787
GlyphClass: 2
Flags: W
AnchorPoint: "Ancre-3" 412 700 basechar 0
AnchorPoint: "Ancre-0" 412 0 basechar 0
LayerCount: 2
Fore
SplineSet
421 -12 m 0,0,1
 338 -12 338 -12 268.5 14.5 c 128,-1,2
 199 41 199 41 147.5 90 c 128,-1,3
 96 139 96 139 67.5 205 c 128,-1,4
 39 271 39 271 39 350 c 256,5,6
 39 429 39 429 67.5 495 c 128,-1,7
 96 561 96 561 148 610 c 128,-1,8
 200 659 200 659 270 685.5 c 128,-1,9
 340 712 340 712 424 712 c 0,10,11
 517 712 517 712 591.5 681 c 128,-1,12
 666 650 666 650 717 591 c 1,13,-1
 613 495 l 1,14,15
 575 535 575 535 530 554.5 c 128,-1,16
 485 574 485 574 432 574 c 0,17,18
 381 574 381 574 339 558 c 128,-1,19
 297 542 297 542 266.5 512 c 128,-1,20
 236 482 236 482 219.5 441 c 128,-1,21
 203 400 203 400 203 350 c 0,22,23
 203 301 203 301 219.5 260 c 128,-1,24
 236 219 236 219 266.5 188.5 c 128,-1,25
 297 158 297 158 338.5 142 c 128,-1,26
 380 126 380 126 430 126 c 0,27,28
 478 126 478 126 523.5 141.5 c 128,-1,29
 569 157 569 157 612 194 c 1,30,-1
 704 77 l 1,31,32
 647 34 647 34 571.5 11 c 128,-1,33
 496 -12 496 -12 421 -12 c 0,0,1
704 77 m 1,34,-1
 556 98 l 1,35,-1
 556 361 l 1,36,-1
 704 361 l 1,37,-1
 704 77 l 1,34,-1
579 596 m 1,38,-1
 579 682 l 2,39,40
 579 742 579 742 603 781.5 c 128,-1,41
 627 821 627 821 666 841 c 128,-1,42
 705 861 705 861 752.5 861.5 c 128,-1,43
 800 862 800 862 846 843 c 1,44,-1
 810 731 l 1,45,46
 789 740 789 740 767 736 c 128,-1,47
 745 732 745 732 731 717 c 128,-1,48
 717 702 717 702 717 675 c 2,49,-1
 717 591 l 1,50,-1
 579 596 l 1,38,-1
EndSplineSet
Validated: 37
Substitution2: "sous-table 'ss01' Jeu stylistique 1 lookups52" uni0193.ss01
Substitution2: "sous-table 'c2sc' Capitales vers petites capitales lookups47" uni0260.sc
AlternateSubs2: "sous-table 'aalt' Activer toutes les variantes lookups3" uni0260.sc uni0193.ss01
EndChar

StartChar: uni0241
Encoding: 577 577 118
Width: 617
GlyphClass: 2
Flags: W
AnchorPoint: "Ancre-3" 295 700 basechar 0
AnchorPoint: "Ancre-0" 291 0 basechar 0
LayerCount: 2
Fore
SplineSet
209 0 m 1,0,-1
 209 168 l 2,1,2
 209 218 209 218 226 252 c 128,-1,3
 243 286 243 286 268.5 309 c 128,-1,4
 294 332 294 332 324 349.5 c 128,-1,5
 354 367 354 367 379.5 384 c 128,-1,6
 405 401 405 401 422 422.5 c 128,-1,7
 439 444 439 444 439 474 c 0,8,9
 439 510 439 510 417.5 533 c 128,-1,10
 396 556 396 556 361.5 568 c 128,-1,11
 327 580 327 580 288 580 c 0,12,13
 254 580 254 580 219.5 570.5 c 128,-1,14
 185 561 185 561 156 541 c 128,-1,15
 127 521 127 521 106 489 c 1,16,-1
 -20 564 l 1,17,18
 11 613 11 613 60 645.5 c 128,-1,19
 109 678 109 678 170 695 c 128,-1,20
 231 712 231 712 295 712 c 0,21,22
 354 712 354 712 408.5 698 c 128,-1,23
 463 684 463 684 507 655.5 c 128,-1,24
 551 627 551 627 576.5 583.5 c 128,-1,25
 602 540 602 540 602 481 c 0,26,27
 602 433 602 433 585.5 399 c 128,-1,28
 569 365 569 365 542.5 340.5 c 128,-1,29
 516 316 516 316 487 297 c 128,-1,30
 458 278 458 278 431.5 258.5 c 128,-1,31
 405 239 405 239 388.5 214.5 c 128,-1,32
 372 190 372 190 372 156 c 2,33,-1
 372 0 l 1,34,-1
 209 0 l 1,0,-1
EndSplineSet
Validated: 1
Substitution2: "sous-table 'c2sc' Capitales vers petites capitales lookups47" uni0294.sc
Substitution2: "sous-table 'aalt' Activer toutes les variantes lookups2" uni0294.sc
EndChar

StartChar: uni01E4
Encoding: 484 484 120
Width: 807
GlyphClass: 2
Flags: W
AnchorPoint: "Ancre-3" 417 700 basechar 0
AnchorPoint: "Ancre-0" 407 0 basechar 0
LayerCount: 2
Fore
SplineSet
421 -12 m 0,0,1
 338 -12 338 -12 268.5 14.5 c 128,-1,2
 199 41 199 41 147.5 90 c 128,-1,3
 96 139 96 139 67.5 205 c 128,-1,4
 39 271 39 271 39 350 c 256,5,6
 39 429 39 429 67.5 495 c 128,-1,7
 96 561 96 561 148 610 c 128,-1,8
 200 659 200 659 270 685.5 c 128,-1,9
 340 712 340 712 424 712 c 0,10,11
 517 712 517 712 591.5 681 c 128,-1,12
 666 650 666 650 717 591 c 1,13,-1
 613 495 l 1,14,15
 575 535 575 535 530 554.5 c 128,-1,16
 485 574 485 574 432 574 c 0,17,18
 381 574 381 574 339 558 c 128,-1,19
 297 542 297 542 266.5 512 c 128,-1,20
 236 482 236 482 219.5 441 c 128,-1,21
 203 400 203 400 203 350 c 0,22,23
 203 301 203 301 219.5 260 c 128,-1,24
 236 219 236 219 266.5 188.5 c 128,-1,25
 297 158 297 158 338.5 142 c 128,-1,26
 380 126 380 126 430 126 c 0,27,28
 478 126 478 126 523.5 141.5 c 128,-1,29
 569 157 569 157 612 194 c 1,30,-1
 704 77 l 1,31,32
 647 34 647 34 571.5 11 c 128,-1,33
 496 -12 496 -12 421 -12 c 0,0,1
424 208 m 1,34,-1
 424 317 l 1,35,-1
 792 317 l 1,36,-1
 792 208 l 1,37,-1
 424 208 l 1,34,-1
704 77 m 1,38,-1
 556 98 l 1,39,-1
 556 365 l 1,40,-1
 704 365 l 1,41,-1
 704 77 l 1,38,-1
EndSplineSet
Validated: 5
Substitution2: "sous-table 'ss01' Jeu stylistique 1 lookups52" uni01E4.ss01
Substitution2: "sous-table 'c2sc' Capitales vers petites capitales lookups47" uni01E5.sc
AlternateSubs2: "sous-table 'aalt' Activer toutes les variantes lookups3" uni01E5.sc uni01E4.ss01
EndChar

StartChar: uni021C
Encoding: 540 540 121
Width: 642
GlyphClass: 1
Flags: W
LayerCount: 2
Fore
SplineSet
-4 -111 m 1,0,-1
 -11 23 l 1,1,2
 88 35 88 35 169 50.5 c 128,-1,3
 250 66 250 66 309 88 c 128,-1,4
 368 110 368 110 399.5 139.5 c 128,-1,5
 431 169 431 169 431 209 c 0,6,7
 431 238 431 238 414.5 255 c 128,-1,8
 398 272 398 272 368.5 276.5 c 128,-1,9
 339 281 339 281 300 272 c 2,10,-1
 153 238 l 1,11,-1
 143 367 l 1,12,-1
 272 397 l 2,13,14
 312 407 312 407 342 420.5 c 128,-1,15
 372 434 372 434 389.5 453.5 c 128,-1,16
 407 473 407 473 407 500 c 0,17,18
 407 521 407 521 396.5 537.5 c 128,-1,19
 386 554 386 554 365 564.5 c 128,-1,20
 344 575 344 575 310 575 c 0,21,22
 280 575 280 575 237 566 c 128,-1,23
 194 557 194 557 144.5 539 c 128,-1,24
 95 521 95 521 43 497 c 1,25,-1
 -6 616 l 1,26,27
 39 643 39 643 94.5 664.5 c 128,-1,28
 150 686 150 686 210 698.5 c 128,-1,29
 270 711 270 711 328 711 c 0,30,31
 413 711 413 711 466.5 686 c 128,-1,32
 520 661 520 661 546 620.5 c 128,-1,33
 572 580 572 580 572 534 c 0,34,35
 572 480 572 480 541 439 c 128,-1,36
 510 398 510 398 457.5 370.5 c 128,-1,37
 405 343 405 343 340 327 c 1,38,-1
 333 360 l 1,39,40
 410 380 410 380 470 364.5 c 128,-1,41
 530 349 530 349 564.5 306.5 c 128,-1,42
 599 264 599 264 599 202 c 0,43,44
 599 134 599 134 555.5 79.5 c 128,-1,45
 512 25 512 25 432.5 -14.5 c 128,-1,46
 353 -54 353 -54 242 -78 c 128,-1,47
 131 -102 131 -102 -4 -111 c 1,0,-1
EndSplineSet
Validated: 37
Substitution2: "sous-table 'c2sc' Capitales vers petites capitales lookups47" uni021D.sc
Substitution2: "sous-table 'aalt' Activer toutes les variantes lookups2" uni021D.sc
EndChar

StartChar: H
Encoding: 72 72 122
Width: 808
GlyphClass: 2
Flags: W
AnchorPoint: "Ancre-3" 404 700 basechar 0
AnchorPoint: "Ancre-1" 404 554 basechar 0
AnchorPoint: "Ancre-0" 404 0 basechar 0
LayerCount: 2
Fore
SplineSet
563 0 m 1,0,-1
 563 700 l 1,1,-1
 725 700 l 1,2,-1
 725 0 l 1,3,-1
 563 0 l 1,0,-1
83 0 m 1,4,-1
 83 700 l 1,5,-1
 245 700 l 1,6,-1
 245 0 l 1,7,-1
 83 0 l 1,4,-1
233 287 m 1,8,-1
 233 424 l 1,9,-1
 575 424 l 1,10,-1
 575 287 l 1,11,-1
 233 287 l 1,8,-1
EndSplineSet
Validated: 5
Substitution2: "sous-table 'c2sc' Capitales vers petites capitales lookups47" h.sc
Substitution2: "sous-table 'aalt' Activer toutes les variantes lookups2" h.sc
EndChar

StartChar: Hbar
Encoding: 294 294 123
Width: 835
GlyphClass: 2
Flags: W
AnchorPoint: "Ancre-3" 417 700 basechar 0
AnchorPoint: "Ancre-1" 418 554 basechar 0
AnchorPoint: "Ancre-0" 417 0 basechar 0
LayerCount: 2
Fore
SplineSet
576 0 m 1,0,-1
 576 700 l 1,1,-1
 739 700 l 1,2,-1
 739 0 l 1,3,-1
 576 0 l 1,0,-1
96 0 m 1,4,-1
 96 700 l 1,5,-1
 259 700 l 1,6,-1
 259 0 l 1,7,-1
 96 0 l 1,4,-1
246 283 m 1,8,-1
 246 416 l 1,9,-1
 588 416 l 1,10,-1
 588 283 l 1,11,-1
 246 283 l 1,8,-1
8 499 m 1,12,-1
 8 608 l 1,13,-1
 827 608 l 1,14,-1
 827 499 l 1,15,-1
 8 499 l 1,12,-1
EndSplineSet
Validated: 5
Substitution2: "sous-table 'c2sc' Capitales vers petites capitales lookups47" hbar.sc
Substitution2: "sous-table 'aalt' Activer toutes les variantes lookups2" hbar.sc
EndChar

StartChar: uni1E28
Encoding: 7720 7720 126
Width: 808
GlyphClass: 2
Flags: W
AnchorPoint: "Ancre-3" 404 700 basechar 0
AnchorPoint: "Ancre-1" 404 564 basechar 0
AnchorPoint: "Ancre-0" 404 0 basechar 0
LayerCount: 2
Fore
SplineSet
563 0 m 1,0,-1
 563 700 l 1,1,-1
 725 700 l 1,2,-1
 725 0 l 1,3,-1
 563 0 l 1,0,-1
148 -232 m 0,4,5
 122 -232 122 -232 97 -226 c 128,-1,6
 72 -220 72 -220 54 -211 c 1,7,-1
 78 -144 l 1,8,9
 93 -151 93 -151 109 -155 c 128,-1,10
 125 -159 125 -159 144 -159 c 0,11,12
 172 -159 172 -159 183.5 -150 c 128,-1,13
 195 -141 195 -141 195 -127 c 0,14,15
 195 -114 195 -114 183.5 -106 c 128,-1,16
 172 -98 172 -98 146 -98 c 2,17,-1
 104 -98 l 1,18,-1
 130 8 l 1,19,-1
 213 8 l 1,20,-1
 199 -50 l 1,21,22
 251 -55 251 -55 272.5 -78.5 c 128,-1,23
 294 -102 294 -102 294 -133 c 0,24,25
 294 -178 294 -178 254 -205 c 128,-1,26
 214 -232 214 -232 148 -232 c 0,4,5
83 0 m 1,27,-1
 83 700 l 1,28,-1
 245 700 l 1,29,-1
 245 0 l 1,30,-1
 83 0 l 1,27,-1
233 287 m 1,31,-1
 233 424 l 1,32,-1
 575 424 l 1,33,-1
 575 287 l 1,34,-1
 233 287 l 1,31,-1
EndSplineSet
Validated: 5
Substitution2: "sous-table 'c2sc' Capitales vers petites capitales lookups47" uni1E29.sc
Substitution2: "sous-table 'aalt' Activer toutes les variantes lookups2" uni1E29.sc
EndChar

StartChar: uniA7AA
Encoding: 42922 42922 132
Width: 1007
GlyphClass: 2
Flags: W
AnchorPoint: "Ancre-3" 603 700 basechar 0
AnchorPoint: "Ancre-1" 604 554 basechar 0
AnchorPoint: "Ancre-0" 603 0 basechar 0
LayerCount: 2
Fore
SplineSet
87 350 m 1,0,1
 53 388 53 388 36.5 435 c 128,-1,2
 20 482 20 482 23.5 528.5 c 128,-1,3
 27 575 27 575 51 614 c 128,-1,4
 75 653 75 653 121.5 676.5 c 128,-1,5
 168 700 168 700 237 700 c 2,6,-1
 290 700 l 1,7,-1
 290 568 l 1,8,-1
 236 568 l 2,9,10
 208 568 208 568 192 554 c 128,-1,11
 176 540 176 540 172 518 c 128,-1,12
 168 496 168 496 176 470 c 128,-1,13
 184 444 184 444 204 418 c 1,14,-1
 87 350 l 1,0,1
762 0 m 1,15,-1
 762 700 l 1,16,-1
 924 700 l 1,17,-1
 924 0 l 1,18,-1
 762 0 l 1,15,-1
282 0 m 1,19,-1
 282 700 l 1,20,-1
 444 700 l 1,21,-1
 444 0 l 1,22,-1
 282 0 l 1,19,-1
432 287 m 1,23,-1
 432 424 l 1,24,-1
 774 424 l 1,25,-1
 774 287 l 1,26,-1
 432 287 l 1,23,-1
EndSplineSet
Validated: 37
Substitution2: "sous-table 'c2sc' Capitales vers petites capitales lookups47" uni0266.sc
Substitution2: "sous-table 'aalt' Activer toutes les variantes lookups2" uni0266.sc
EndChar

StartChar: uniA78D
Encoding: 42893 42893 133
Width: 760
GlyphClass: 2
Flags: W
AnchorPoint: "Ancre-3" 359 700 basechar 0
AnchorPoint: "Ancre-0" 358 0 basechar 0
LayerCount: 2
Fore
SplineSet
677 700 m 1,0,-1
 677 0 l 1,1,-1
 519 0 l 1,2,-1
 519 388 l 1,3,-1
 554 359 l 1,4,5
 521 279 521 279 457.5 240.5 c 128,-1,6
 394 202 394 202 305 202 c 0,7,8
 181 202 181 202 110.5 279.5 c 128,-1,9
 40 357 40 357 40 503 c 2,10,-1
 40 700 l 1,11,-1
 202 700 l 1,12,-1
 202 508 l 2,13,14
 202 422 202 422 243 380.5 c 128,-1,15
 284 339 284 339 351 339 c 0,16,17
 422 339 422 339 468 383 c 128,-1,18
 514 427 514 427 514 520 c 2,19,-1
 514 700 l 1,20,-1
 677 700 l 1,0,-1
EndSplineSet
Validated: 5
Substitution2: "sous-table 'c2sc' Capitales vers petites capitales lookups47" uni0265.sc
Substitution2: "sous-table 'aalt' Activer toutes les variantes lookups2" uni0265.sc
EndChar

StartChar: I
Encoding: 73 73 134
Width: 328
GlyphClass: 2
Flags: W
AnchorPoint: "Ancre-3" 164 700 basechar 0
AnchorPoint: "Ancre-2" 245 0 basechar 0
AnchorPoint: "Ancre-1" 164 350 basechar 0
AnchorPoint: "Ancre-0" 164 0 basechar 0
LayerCount: 2
Fore
SplineSet
83 0 m 1,0,-1
 83 700 l 1,1,-1
 245 700 l 1,2,-1
 245 0 l 1,3,-1
 83 0 l 1,0,-1
EndSplineSet
Validated: 1
Substitution2: "sous-table 'ss01' Jeu stylistique 1 lookups52" I.ss01
Substitution2: "sous-table 'c2sc' Capitales vers petites capitales lookups47" i.sc
AlternateSubs2: "sous-table 'aalt' Activer toutes les variantes lookups3" i.sc I.ss01
EndChar

StartChar: IJ
Encoding: 306 306 135
Width: 724
GlyphClass: 2
Flags: W
AnchorPoint: "Ancre-3" 158 700 basechar 0
LayerCount: 2
Fore
SplineSet
327 -12 m 0,0,1
 248 -12 248 -12 179.5 9.5 c 128,-1,2
 111 31 111 31 61 65 c 1,3,-1
 122 187 l 1,4,5
 168 157 168 157 221 140.5 c 128,-1,6
 274 124 274 124 324 124 c 0,7,8
 404 124 404 124 444.5 168.5 c 128,-1,9
 485 213 485 213 485 307 c 2,10,-1
 485 700 l 1,11,-1
 647 700 l 1,12,-1
 647 315 l 2,13,14
 647 209 647 209 607 136 c 128,-1,15
 567 63 567 63 495.5 25.5 c 128,-1,16
 424 -12 424 -12 327 -12 c 0,0,1
77 322 m 1,17,-1
 77 700 l 1,18,-1
 239 700 l 1,19,-1
 239 322 l 1,20,-1
 77 322 l 1,17,-1
EndSplineSet
Validated: 1
Substitution2: "sous-table 'ss01' Jeu stylistique 1 lookups52" IJ.ss01
Substitution2: "sous-table 'c2sc' Capitales vers petites capitales lookups47" ij.sc
AlternateSubs2: "sous-table 'aalt' Activer toutes les variantes lookups3" ij.sc IJ.ss01
EndChar

StartChar: Iacute_J.loclNLD
Encoding: 65537 -1 136
Width: 724
GlyphClass: 1
Flags: W
LayerCount: 2
Fore
SplineSet
327 -8 m 0,0,1
 248 -8 248 -8 179.5 13.5 c 128,-1,2
 111 35 111 35 61 71 c 1,3,-1
 122 191 l 1,4,5
 168 160 168 160 220 144 c 128,-1,6
 272 128 272 128 321 128 c 0,7,8
 402 128 402 128 443 172.5 c 128,-1,9
 484 217 484 217 484 311 c 2,10,-1
 484 700 l 1,11,-1
 647 700 l 1,12,-1
 647 319 l 2,13,14
 647 213 647 213 607 140 c 128,-1,15
 567 67 567 67 495.5 29.5 c 128,-1,16
 424 -8 424 -8 327 -8 c 0,0,1
77 322 m 1,17,-1
 77 700 l 1,18,-1
 239 700 l 1,19,-1
 239 322 l 1,20,-1
 77 322 l 1,17,-1
84 757 m 1,21,-1
 218 901 l 1,22,-1
 374 901 l 1,23,-1
 193 757 l 1,24,-1
 84 757 l 1,21,-1
491 757 m 1,25,-1
 626 901 l 1,26,-1
 782 901 l 1,27,-1
 600 757 l 1,28,-1
 491 757 l 1,25,-1
EndSplineSet
Validated: 1
Substitution2: "sous-table 'ss01' Jeu stylistique 1 lookups52" Iacute_J.loclNLD.ss01
Substitution2: "sous-table 'c2sc' Capitales vers petites capitales lookups47" iacute_j.loclNLD.sc
Ligature2: "sous-table 'locl' Formes localis+AOkA-es g+AOkA-ographiquement dans Latin lookup 18" Iacute J
AlternateSubs2: "sous-table 'aalt' Activer toutes les variantes lookups3" iacute_j.loclNLD.sc Iacute_J.loclNLD.ss01
EndChar

StartChar: uni0196
Encoding: 406 406 151
Width: 402
GlyphClass: 2
Flags: W
AnchorPoint: "Ancre-3" 158 700 basechar 0
AnchorPoint: "Ancre-2" 342 0 basechar 0
AnchorPoint: "Ancre-0" 227 0 basechar 0
LayerCount: 2
Fore
SplineSet
274 -11 m 1,0,-1
 274 -11 l 1,1,2
 223 -11 223 -11 177.5 9 c 128,-1,3
 132 29 132 29 104.5 72.5 c 128,-1,4
 77 116 77 116 77 185 c 2,5,-1
 77 700 l 1,6,-1
 239 700 l 1,7,-1
 239 196 l 2,8,9
 239 159 239 159 259 140.5 c 128,-1,10
 279 122 279 122 307 122 c 0,11,12
 323 122 323 122 339.5 127 c 128,-1,13
 356 132 356 132 373 141 c 1,14,-1
 409 21 l 1,15,16
 378 6 378 6 343 -2.5 c 128,-1,17
 308 -11 308 -11 274 -11 c 1,0,-1
EndSplineSet
Validated: 5
Substitution2: "sous-table 'c2sc' Capitales vers petites capitales lookups47" uni0269.sc
Substitution2: "sous-table 'aalt' Activer toutes les variantes lookups2" uni0269.sc
EndChar

StartChar: uni0197
Encoding: 407 407 152
Width: 360
GlyphClass: 2
Flags: W
AnchorPoint: "Ancre-3" 180 700 basechar 0
AnchorPoint: "Ancre-2" 261 0 basechar 0
AnchorPoint: "Ancre-0" 180 0 basechar 0
LayerCount: 2
Fore
SplineSet
99 0 m 1,0,-1
 99 700 l 1,1,-1
 261 700 l 1,2,-1
 261 0 l 1,3,-1
 99 0 l 1,0,-1
11 303 m 1,4,-1
 11 412 l 1,5,-1
 349 412 l 1,6,-1
 349 303 l 1,7,-1
 11 303 l 1,4,-1
EndSplineSet
Validated: 5
Substitution2: "sous-table 'ss01' Jeu stylistique 1 lookups52" uni0197.ss01
Substitution2: "sous-table 'c2sc' Capitales vers petites capitales lookups47" uni0268.sc
AlternateSubs2: "sous-table 'aalt' Activer toutes les variantes lookups3" uni0268.sc uni0197.ss01
EndChar

StartChar: J
Encoding: 74 74 155
Width: 541
GlyphClass: 2
Flags: W
AnchorPoint: "Ancre-3" 261 700 basechar 0
LayerCount: 2
Fore
SplineSet
212 -12 m 0,0,1
 141 -12 141 -12 81.5 14.5 c 128,-1,2
 22 41 22 41 -16 90 c 1,3,-1
 74 198 l 1,4,5
 103 160 103 160 135 140.5 c 128,-1,6
 167 121 167 121 204 121 c 0,7,8
 303 121 303 121 303 237 c 2,9,-1
 303 570 l 1,10,-1
 57 570 l 1,11,-1
 57 700 l 1,12,-1
 464 700 l 1,13,-1
 464 246 l 2,14,15
 464 116 464 116 400 52 c 128,-1,16
 336 -12 336 -12 212 -12 c 0,0,1
EndSplineSet
Validated: 1
Substitution2: "sous-table 'ss01' Jeu stylistique 1 lookups52" J.ss01
Substitution2: "sous-table 'c2sc' Capitales vers petites capitales lookups47" j.sc
AlternateSubs2: "sous-table 'aalt' Activer toutes les variantes lookups3" j.sc J.ss01
EndChar

StartChar: uniA7B2
Encoding: 42930 42930 157
Width: 548
GlyphClass: 2
Flags: W
AnchorPoint: "Ancre-3" 260 700 basechar 0
LayerCount: 2
Fore
SplineSet
218 -12 m 0,0,1
 156 -12 156 -12 110.5 8.5 c 128,-1,2
 65 29 65 29 41 65.5 c 128,-1,3
 17 102 17 102 17 147 c 0,4,5
 17 186 17 186 37.5 222 c 128,-1,6
 58 258 58 258 104.5 281 c 128,-1,7
 151 304 151 304 228 304 c 2,8,-1
 537 304 l 1,9,-1
 537 198 l 1,10,-1
 236 198 l 2,11,12
 201 198 201 198 182 189.5 c 128,-1,13
 163 181 163 181 157 169 c 128,-1,14
 151 157 151 157 151 146 c 0,15,16
 151 133 151 133 158 122 c 128,-1,17
 165 111 165 111 179.5 104.5 c 128,-1,18
 194 98 194 98 214 98 c 0,19,20
 236 98 236 98 255.5 107.5 c 128,-1,21
 275 117 275 117 287.5 138 c 128,-1,22
 300 159 300 159 300 195 c 2,23,-1
 301 570 l 1,24,-1
 56 570 l 1,25,-1
 56 700 l 1,26,-1
 463 700 l 1,27,-1
 461 214 l 2,28,29
 461 135 461 135 426.5 85 c 128,-1,30
 392 35 392 35 337 11.5 c 128,-1,31
 282 -12 282 -12 218 -12 c 0,0,1
EndSplineSet
Validated: 5
Substitution2: "sous-table 'ss01' Jeu stylistique 1 lookups52" uniA7B2.ss01
Substitution2: "sous-table 'c2sc' Capitales vers petites capitales lookups47" uni029D.sc
AlternateSubs2: "sous-table 'aalt' Activer toutes les variantes lookups3" uni029D.sc uniA7B2.ss01
EndChar

StartChar: uni0248
Encoding: 584 584 158
Width: 546
GlyphClass: 2
Flags: W
AnchorPoint: "Ancre-3" 261 700 basechar 0
LayerCount: 2
Fore
SplineSet
212 -12 m 0,0,1
 141 -12 141 -12 81.5 14.5 c 128,-1,2
 22 41 22 41 -16 90 c 1,3,-1
 74 198 l 1,4,5
 103 160 103 160 135 140.5 c 128,-1,6
 167 121 167 121 204 121 c 0,7,8
 303 121 303 121 303 237 c 2,9,-1
 303 570 l 1,10,-1
 57 570 l 1,11,-1
 57 700 l 1,12,-1
 464 700 l 1,13,-1
 464 246 l 2,14,15
 464 116 464 116 400 52 c 128,-1,16
 336 -12 336 -12 212 -12 c 0,0,1
171 303 m 1,17,-1
 171 412 l 1,18,-1
 553 412 l 1,19,-1
 553 303 l 1,20,-1
 171 303 l 1,17,-1
EndSplineSet
Validated: 5
Substitution2: "sous-table 'ss01' Jeu stylistique 1 lookups52" uni0248.ss01
Substitution2: "sous-table 'c2sc' Capitales vers petites capitales lookups47" uni0249.sc
AlternateSubs2: "sous-table 'aalt' Activer toutes les variantes lookups3" uni0249.sc uni0248.ss01
EndChar

StartChar: K
Encoding: 75 75 159
Width: 740
GlyphClass: 2
Flags: W
AnchorPoint: "Ancre-3" 379 700 basechar 0
AnchorPoint: "Ancre-0" 379 0 basechar 0
LayerCount: 2
Fore
SplineSet
228 160 m 1,0,-1
 219 347 l 1,1,-1
 554 700 l 1,2,-1
 734 700 l 1,3,-1
 432 375 l 1,4,-1
 342 279 l 1,5,-1
 228 160 l 1,0,-1
83 0 m 1,6,-1
 83 700 l 1,7,-1
 244 700 l 1,8,-1
 244 0 l 1,9,-1
 83 0 l 1,6,-1
562 0 m 1,10,-1
 313 305 l 1,11,-1
 419 420 l 1,12,-1
 751 0 l 1,13,-1
 562 0 l 1,10,-1
EndSplineSet
Validated: 5
Substitution2: "sous-table 'c2sc' Capitales vers petites capitales lookups47" k.sc
Substitution2: "sous-table 'aalt' Activer toutes les variantes lookups2" k.sc
EndChar

StartChar: uni0198
Encoding: 408 408 164
Width: 730
GlyphClass: 2
Flags: W
AnchorPoint: "Ancre-3" 379 700 basechar 0
AnchorPoint: "Ancre-0" 379 0 basechar 0
LayerCount: 2
Fore
SplineSet
222 162 m 1,0,-1
 212 350 l 1,1,-1
 483 668 l 2,2,3
 532 723 532 723 581 740.5 c 128,-1,4
 630 758 630 758 675 747 c 128,-1,5
 720 736 720 736 756 703 c 1,6,-1
 684 600 l 1,7,8
 661 620 661 620 635 616.5 c 128,-1,9
 609 613 609 613 586 586 c 2,10,-1
 222 162 l 1,0,-1
83 0 m 1,11,-1
 83 700 l 1,12,-1
 244 700 l 1,13,-1
 244 0 l 1,14,-1
 83 0 l 1,11,-1
562 0 m 1,15,-1
 313 305 l 1,16,-1
 419 420 l 1,17,-1
 751 0 l 1,18,-1
 562 0 l 1,15,-1
EndSplineSet
Validated: 37
Substitution2: "sous-table 'c2sc' Capitales vers petites capitales lookups47" uni0199.sc
Substitution2: "sous-table 'aalt' Activer toutes les variantes lookups2" uni0199.sc
EndChar

StartChar: uniA740
Encoding: 42816 42816 166
Width: 740
GlyphClass: 2
Flags: W
AnchorPoint: "Ancre-3" 379 700 basechar 0
AnchorPoint: "Ancre-0" 379 0 basechar 0
LayerCount: 2
Fore
SplineSet
232 137 m 1,0,-1
 228 331 l 1,1,-1
 565 700 l 1,2,-1
 744 700 l 1,3,-1
 232 137 l 1,0,-1
92 0 m 1,4,-1
 92 700 l 1,5,-1
 253 700 l 1,6,-1
 253 0 l 1,7,-1
 92 0 l 1,4,-1
572 0 m 1,8,-1
 324 305 l 1,9,-1
 429 420 l 1,10,-1
 761 0 l 1,11,-1
 572 0 l 1,8,-1
4 528 m 1,12,-1
 4 625 l 1,13,-1
 379 625 l 1,14,-1
 379 528 l 1,15,-1
 4 528 l 1,12,-1
EndSplineSet
Validated: 5
Substitution2: "sous-table 'c2sc' Capitales vers petites capitales lookups47" uniA741.sc
Substitution2: "sous-table 'aalt' Activer toutes les variantes lookups2" uniA741.sc
EndChar

StartChar: L
Encoding: 76 76 167
Width: 604
GlyphClass: 2
Flags: W
AnchorPoint: "Ancre-4" 431 700 basechar 0
AnchorPoint: "Ancre-3" 164 700 basechar 0
AnchorPoint: "Ancre-1" 164 365 basechar 0
AnchorPoint: "Ancre-0" 340 0 basechar 0
LayerCount: 2
Fore
SplineSet
83 0 m 1,0,-1
 83 700 l 1,1,-1
 245 700 l 1,2,-1
 245 132 l 1,3,-1
 596 132 l 1,4,-1
 596 0 l 1,5,-1
 83 0 l 1,0,-1
EndSplineSet
Validated: 1
Substitution2: "sous-table 'c2sc' Capitales vers petites capitales lookups47" l.sc
Substitution2: "sous-table 'aalt' Activer toutes les variantes lookups2" l.sc
EndChar

StartChar: uni023D
Encoding: 573 573 170
Width: 615
GlyphClass: 2
Flags: W
AnchorPoint: "Ancre-4" 441 700 basechar 0
AnchorPoint: "Ancre-3" 175 700 basechar 0
AnchorPoint: "Ancre-1" 175 365 basechar 0
AnchorPoint: "Ancre-0" 350 0 basechar 0
LayerCount: 2
Fore
SplineSet
93 0 m 1,0,-1
 93 700 l 1,1,-1
 256 700 l 1,2,-1
 256 132 l 1,3,-1
 606 132 l 1,4,-1
 606 0 l 1,5,-1
 93 0 l 1,0,-1
5 303 m 1,6,-1
 5 412 l 1,7,-1
 388 412 l 1,8,-1
 388 303 l 1,9,-1
 5 303 l 1,6,-1
EndSplineSet
Validated: 5
Substitution2: "sous-table 'c2sc' Capitales vers petites capitales lookups47" uni019A.sc
Substitution2: "sous-table 'aalt' Activer toutes les variantes lookups2" uni019A.sc
EndChar

StartChar: uniA7AD
Encoding: 42925 42925 171
Width: 697
GlyphClass: 2
Flags: W
AnchorPoint: "Ancre-4" 523 700 basechar 0
AnchorPoint: "Ancre-3" 257 700 basechar 0
AnchorPoint: "Ancre-1" 257 387 basechar 0
AnchorPoint: "Ancre-0" 444 0 basechar 0
LayerCount: 2
Fore
SplineSet
176 0 m 1,0,-1
 176 700 l 1,1,-1
 338 700 l 1,2,-1
 338 132 l 1,3,-1
 688 132 l 1,4,-1
 688 0 l 1,5,-1
 176 0 l 1,0,-1
152 311 m 2,6,7
 90 311 90 311 51.5 332.5 c 128,-1,8
 13 354 13 354 -4.5 387 c 128,-1,9
 -22 420 -22 420 -22 457 c 0,10,11
 -22 496 -22 496 -5 526 c 128,-1,12
 12 556 12 556 42.5 574 c 128,-1,13
 73 592 73 592 112 592 c 0,14,15
 150 592 150 592 178.5 573 c 128,-1,16
 207 554 207 554 223 516.5 c 128,-1,17
 239 479 239 479 239 422 c 1,18,-1
 176 422 l 1,19,20
 174 464 174 464 155 482 c 128,-1,21
 136 500 136 500 118 500 c 0,22,23
 103 500 103 500 93.5 490.5 c 128,-1,24
 84 481 84 481 84 467 c 0,25,26
 84 451 84 451 99.5 436.5 c 128,-1,27
 115 422 115 422 154 422 c 2,28,-1
 532 422 l 1,29,-1
 534 311 l 1,30,-1
 152 311 l 2,6,7
EndSplineSet
Validated: 5
Substitution2: "sous-table 'c2sc' Capitales vers petites capitales lookups47" uni026C.sc
Substitution2: "sous-table 'aalt' Activer toutes les variantes lookups2" uni026C.sc
EndChar

StartChar: uni2C60
Encoding: 11360 11360 178
Width: 648
GlyphClass: 1
Flags: W
LayerCount: 2
Fore
SplineSet
126 0 m 1,0,-1
 126 700 l 1,1,-1
 289 700 l 1,2,-1
 289 132 l 1,3,-1
 639 132 l 1,4,-1
 639 0 l 1,5,-1
 126 0 l 1,0,-1
38 259 m 1,6,-1
 38 366 l 1,7,-1
 421 366 l 1,8,-1
 421 259 l 1,9,-1
 38 259 l 1,6,-1
38 421 m 1,10,-1
 38 529 l 1,11,-1
 421 529 l 1,12,-1
 421 421 l 1,13,-1
 38 421 l 1,10,-1
EndSplineSet
Validated: 5
Substitution2: "sous-table 'c2sc' Capitales vers petites capitales lookups47" uni2C61.sc
Substitution2: "sous-table 'aalt' Activer toutes les variantes lookups2" uni2C61.sc
EndChar

StartChar: uni2C62
Encoding: 11362 11362 181
Width: 648
GlyphClass: 2
Flags: W
AnchorPoint: "Ancre-4" 475 700 basechar 0
AnchorPoint: "Ancre-3" 208 700 basechar 0
AnchorPoint: "Ancre-0" 383 0 basechar 0
LayerCount: 2
Fore
SplineSet
127 0 m 1,0,-1
 127 700 l 1,1,-1
 289 700 l 1,2,-1
 289 132 l 1,3,-1
 639 132 l 1,4,-1
 639 0 l 1,5,-1
 127 0 l 1,0,-1
330 321 m 0,6,7
 303 321 303 321 270.5 330.5 c 128,-1,8
 238 340 238 340 206 352.5 c 128,-1,9
 174 365 174 365 147 374.5 c 128,-1,10
 120 384 120 384 104 384 c 0,11,12
 84 384 84 384 72 368.5 c 128,-1,13
 60 353 60 353 58 328 c 1,14,-1
 -21 328 l 1,15,16
 -19 394 -19 394 11.5 434 c 128,-1,17
 42 474 42 474 96 474 c 0,18,19
 123 474 123 474 155.5 464.5 c 128,-1,20
 188 455 188 455 220 442 c 128,-1,21
 252 429 252 429 279 419.5 c 128,-1,22
 306 410 306 410 322 410 c 0,23,24
 342 410 342 410 354.5 425.5 c 128,-1,25
 367 441 367 441 368 464 c 1,26,-1
 447 464 l 1,27,28
 446 401 446 401 415 361 c 128,-1,29
 384 321 384 321 330 321 c 0,6,7
EndSplineSet
Validated: 5
Substitution2: "sous-table 'c2sc' Capitales vers petites capitales lookups47" uni026B.sc
Substitution2: "sous-table 'aalt' Activer toutes les variantes lookups2" uni026B.sc
EndChar

StartChar: M
Encoding: 77 77 183
Width: 955
GlyphClass: 2
Flags: W
AnchorPoint: "Ancre-3" 477 700 basechar 0
AnchorPoint: "Ancre-0" 477 0 basechar 0
LayerCount: 2
Fore
SplineSet
83 0 m 1,0,-1
 83 700 l 1,1,-1
 217 700 l 1,2,-1
 515 206 l 1,3,-1
 444 206 l 1,4,-1
 737 700 l 1,5,-1
 870 700 l 1,6,-1
 872 0 l 1,7,-1
 720 0 l 1,8,-1
 719 467 l 1,9,-1
 747 467 l 1,10,-1
 513 74 l 1,11,-1
 440 74 l 1,12,-1
 201 467 l 1,13,-1
 235 467 l 1,14,-1
 235 0 l 1,15,-1
 83 0 l 1,0,-1
EndSplineSet
Validated: 5
Substitution2: "sous-table 'ss01' Jeu stylistique 1 lookups52" M.ss01
Substitution2: "sous-table 'c2sc' Capitales vers petites capitales lookups47" m.sc
AlternateSubs2: "sous-table 'aalt' Activer toutes les variantes lookups3" m.sc M.ss01
EndChar

StartChar: uni2C6E
Encoding: 11374 11374 187
Width: 965
GlyphClass: 2
Flags: W
AnchorPoint: "Ancre-3" 487 700 basechar 0
AnchorPoint: "Ancre-0" 487 0 basechar 0
LayerCount: 2
Fore
SplineSet
562 -172 m 1,0,-1
 606 -58 l 1,1,2
 629 -71 629 -71 651 -74.5 c 128,-1,3
 673 -78 673 -78 690.5 -71.5 c 128,-1,4
 708 -65 708 -65 719 -49 c 128,-1,5
 730 -33 730 -33 730 -8 c 2,6,-1
 730 467 l 1,7,-1
 757 467 l 1,8,-1
 523 74 l 1,9,-1
 450 74 l 1,10,-1
 211 467 l 1,11,-1
 245 467 l 1,12,-1
 245 0 l 1,13,-1
 93 0 l 1,14,-1
 93 700 l 1,15,-1
 227 700 l 1,16,-1
 525 206 l 1,17,-1
 454 206 l 1,18,-1
 747 700 l 1,19,-1
 880 700 l 1,20,-1
 882 -10 l 2,21,22
 882 -67 882 -67 861.5 -106.5 c 128,-1,23
 841 -146 841 -146 807.5 -169.5 c 128,-1,24
 774 -193 774 -193 731.5 -200.5 c 128,-1,25
 689 -208 689 -208 645 -201 c 128,-1,26
 601 -194 601 -194 562 -172 c 1,0,-1
EndSplineSet
Validated: 37
Substitution2: "sous-table 'c2sc' Capitales vers petites capitales lookups47" uni0271.sc
Substitution2: "sous-table 'aalt' Activer toutes les variantes lookups2" uni0271.sc
EndChar

StartChar: uni019C
Encoding: 412 412 188
Width: 1221
GlyphClass: 2
Flags: W
AnchorPoint: "Ancre-3" 610 700 basechar 0
AnchorPoint: "Ancre-0" 612 0 basechar 0
LayerCount: 2
Fore
SplineSet
1138 700 m 1,0,-1
 1138 0 l 1,1,-1
 981 0 l 1,2,-1
 981 152 l 1,3,-1
 1003 127 l 1,4,5
 977 61 977 61 917.5 24.5 c 128,-1,6
 858 -12 858 -12 774 -12 c 0,7,8
 685 -12 685 -12 625.5 28 c 128,-1,9
 566 68 566 68 543 139 c 1,10,-1
 590 135 l 1,11,12
 560 64 560 64 493 26 c 128,-1,13
 426 -12 426 -12 339 -12 c 0,14,15
 217 -12 217 -12 147 59.5 c 128,-1,16
 77 131 77 131 77 270 c 2,17,-1
 77 700 l 1,18,-1
 239 700 l 1,19,-1
 239 275 l 2,20,21
 239 199 239 199 278.5 162.5 c 128,-1,22
 318 126 318 126 379 126 c 0,23,24
 445 126 445 126 487.5 164 c 128,-1,25
 530 202 530 202 530 285 c 2,26,-1
 530 700 l 1,27,-1
 692 700 l 1,28,-1
 692 275 l 2,29,30
 692 199 692 199 729 162.5 c 128,-1,31
 766 126 766 126 826 126 c 0,32,33
 869 126 869 126 903 142.5 c 128,-1,34
 937 159 937 159 956.5 194.5 c 128,-1,35
 976 230 976 230 976 285 c 2,36,-1
 976 700 l 1,37,-1
 1138 700 l 1,0,-1
EndSplineSet
Validated: 5
Substitution2: "sous-table 'c2sc' Capitales vers petites capitales lookups47" uni026F.sc
Substitution2: "sous-table 'aalt' Activer toutes les variantes lookups2" uni026F.sc
EndChar

StartChar: N
Encoding: 78 78 189
Width: 808
GlyphClass: 2
Flags: W
AnchorPoint: "Ancre-3" 404 700 basechar 0
AnchorPoint: "Ancre-0" 404 0 basechar 0
LayerCount: 2
Fore
SplineSet
83 0 m 1,0,-1
 83 700 l 1,1,-1
 217 700 l 1,2,-1
 630 196 l 1,3,-1
 565 196 l 1,4,-1
 565 700 l 1,5,-1
 725 700 l 1,6,-1
 725 0 l 1,7,-1
 592 0 l 1,8,-1
 178 504 l 1,9,-1
 243 504 l 1,10,-1
 243 0 l 1,11,-1
 83 0 l 1,0,-1
EndSplineSet
Validated: 5
Substitution2: "sous-table 'ss01' Jeu stylistique 1 lookups52" N.ss01
Substitution2: "sous-table 'c2sc' Capitales vers petites capitales lookups47" n.sc
AlternateSubs2: "sous-table 'aalt' Activer toutes les variantes lookups3" n.sc N.ss01
EndChar

StartChar: uni019D
Encoding: 413 413 198
Width: 809
GlyphClass: 2
Flags: W
AnchorPoint: "Ancre-3" 413 700 basechar 0
AnchorPoint: "Ancre-0" 413 0 basechar 0
LayerCount: 2
Fore
SplineSet
-44 -184 m 1,0,-1
 -4 -68 l 1,1,2
 21 -77 21 -77 43.5 -73.5 c 128,-1,3
 66 -70 66 -70 80.5 -53.5 c 128,-1,4
 95 -37 95 -37 95 -8 c 2,5,-1
 95 700 l 1,6,-1
 252 700 l 1,7,-1
 252 526 l 1,8,-1
 218 554 l 1,9,10
 251 634 251 634 314.5 673 c 128,-1,11
 378 712 378 712 466 712 c 0,12,13
 591 712 591 712 661.5 634 c 128,-1,14
 732 556 732 556 732 410 c 2,15,-1
 732 0 l 1,16,-1
 569 0 l 1,17,-1
 569 405 l 2,18,19
 569 491 569 491 528.5 532.5 c 128,-1,20
 488 574 488 574 421 574 c 0,21,22
 349 574 349 574 303.5 530.5 c 128,-1,23
 258 487 258 487 258 394 c 2,24,-1
 258 -8 l 2,25,26
 258 -73 258 -73 230 -116.5 c 128,-1,27
 202 -160 202 -160 157.5 -181.5 c 128,-1,28
 113 -203 113 -203 60 -203.5 c 128,-1,29
 7 -204 7 -204 -44 -184 c 1,0,-1
EndSplineSet
Validated: 37
Substitution2: "sous-table 'c2sc' Capitales vers petites capitales lookups47" uni0272.sc
Substitution2: "sous-table 'aalt' Activer toutes les variantes lookups2" uni0272.sc
EndChar

StartChar: uni0220
Encoding: 544 544 201
Width: 808
GlyphClass: 2
Flags: W
AnchorPoint: "Ancre-3" 411 700 basechar 0
AnchorPoint: "Ancre-0" 411 0 basechar 0
LayerCount: 2
Fore
SplineSet
567 -194 m 1,0,-1
 567 405 l 2,1,2
 567 491 567 491 526.5 532.5 c 128,-1,3
 486 574 486 574 419 574 c 0,4,5
 347 574 347 574 301.5 530.5 c 128,-1,6
 256 487 256 487 256 394 c 2,7,-1
 256 0 l 1,8,-1
 93 0 l 1,9,-1
 93 700 l 1,10,-1
 250 700 l 1,11,-1
 250 526 l 1,12,-1
 216 554 l 1,13,14
 249 634 249 634 312.5 673 c 128,-1,15
 376 712 376 712 464 712 c 0,16,17
 589 712 589 712 659.5 634 c 128,-1,18
 730 556 730 556 730 410 c 2,19,-1
 730 -194 l 1,20,-1
 567 -194 l 1,0,-1
EndSplineSet
Validated: 5
EndChar

StartChar: Eng
Encoding: 330 330 203
Width: 808
GlyphClass: 2
Flags: W
AnchorPoint: "Ancre-3" 404 700 basechar 0
AnchorPoint: "Ancre-0" 404 -195 basechar 0
LayerCount: 2
Fore
SplineSet
83 0 m 1,0,-1
 83 700 l 1,1,-1
 217 700 l 1,2,-1
 630 196 l 1,3,-1
 592 0 l 1,4,-1
 178 504 l 1,5,-1
 243 504 l 1,6,-1
 243 0 l 1,7,-1
 83 0 l 1,0,-1
479 -202 m 0,8,9
 424 -202 424 -202 374 -184.5 c 128,-1,10
 324 -167 324 -167 290 -135 c 1,11,-1
 365 -23 l 1,12,13
 386 -45 386 -45 412.5 -57.5 c 128,-1,14
 439 -70 439 -70 469 -70 c 0,15,16
 515 -70 515 -70 540 -40.5 c 128,-1,17
 565 -11 565 -11 565 47 c 2,18,-1
 565 700 l 1,19,-1
 725 700 l 1,20,-1
 725 63 l 2,21,22
 725 -8 725 -8 707 -58 c 128,-1,23
 689 -108 689 -108 656 -140 c 128,-1,24
 623 -172 623 -172 578 -187 c 128,-1,25
 533 -202 533 -202 479 -202 c 0,8,9
EndSplineSet
Validated: 5
Substitution2: "sous-table 'ss01' Jeu stylistique 1 lookups52" Eng.ss01
Substitution2: "sous-table 'c2sc' Capitales vers petites capitales lookups47" eng.sc
Substitution2: "sous-table 'locl' Formes localis+AOkA-es g+AOkA-ographiquement dans Latin lookup 19" Eng.loclNSM
AlternateSubs2: "sous-table 'aalt' Activer toutes les variantes lookups3" Eng.loclNSM eng.sc Eng.ss01
EndChar

StartChar: O
Encoding: 79 79 204
Width: 844
GlyphClass: 2
Flags: W
AnchorPoint: "Ancre-4" 616 700 basechar 0
AnchorPoint: "Ancre-3" 422 700 basechar 0
AnchorPoint: "Ancre-2" 520 0 basechar 0
AnchorPoint: "Ancre-1" 422 350 basechar 0
AnchorPoint: "Ancre-0" 422 0 basechar 0
LayerCount: 2
Fore
SplineSet
423 -12 m 0,0,1
 340 -12 340 -12 269.5 15 c 128,-1,2
 199 42 199 42 147.5 91 c 128,-1,3
 96 140 96 140 67.5 206 c 128,-1,4
 39 272 39 272 39 350 c 256,5,6
 39 428 39 428 67.5 494 c 128,-1,7
 96 560 96 560 148 609 c 128,-1,8
 200 658 200 658 270 685 c 128,-1,9
 340 712 340 712 422 712 c 0,10,11
 505 712 505 712 574.5 685 c 128,-1,12
 644 658 644 658 695.5 609 c 128,-1,13
 747 560 747 560 776 494.5 c 128,-1,14
 805 429 805 429 805 350 c 0,15,16
 805 272 805 272 776 205.5 c 128,-1,17
 747 139 747 139 695.5 90.5 c 128,-1,18
 644 42 644 42 574.5 15 c 128,-1,19
 505 -12 505 -12 423 -12 c 0,0,1
422 126 m 256,20,21
 469 126 469 126 508.5 142 c 128,-1,22
 548 158 548 158 578 188 c 128,-1,23
 608 218 608 218 624.5 259 c 128,-1,24
 641 300 641 300 641 350 c 256,25,26
 641 400 641 400 624.5 441 c 128,-1,27
 608 482 608 482 578.5 512 c 128,-1,28
 549 542 549 542 509 558 c 128,-1,29
 469 574 469 574 422 574 c 256,30,31
 375 574 375 574 335.5 558 c 128,-1,32
 296 542 296 542 266 512 c 128,-1,33
 236 482 236 482 219.5 441 c 128,-1,34
 203 400 203 400 203 350 c 0,35,36
 203 301 203 301 219.5 259.5 c 128,-1,37
 236 218 236 218 265.5 188 c 128,-1,38
 295 158 295 158 335 142 c 128,-1,39
 375 126 375 126 422 126 c 256,20,21
EndSplineSet
Validated: 1
Substitution2: "sous-table 'c2sc' Capitales vers petites capitales lookups47" o.sc
Substitution2: "sous-table Substitution simple lookups41" ordmasculine
AlternateSubs2: "sous-table 'aalt' Activer toutes les variantes lookups3" ordmasculine o.sc
EndChar

StartChar: uni0222
Encoding: 546 546 205
Width: 752
GlyphClass: 1
Flags: W
LayerCount: 2
Fore
SplineSet
376 -10 m 0,0,1
 273 -10 273 -10 197 19 c 128,-1,2
 121 48 121 48 79.5 102 c 128,-1,3
 38 156 38 156 38 230 c 0,4,5
 38 301 38 301 79.5 353 c 128,-1,6
 121 405 121 405 197 434 c 128,-1,7
 273 463 273 463 376 463 c 0,8,9
 480 463 480 463 555.5 434 c 128,-1,10
 631 405 631 405 672.5 353 c 128,-1,11
 714 301 714 301 714 230 c 0,12,13
 714 156 714 156 672.5 102 c 128,-1,14
 631 48 631 48 555.5 19 c 128,-1,15
 480 -10 480 -10 376 -10 c 0,0,1
376 115 m 0,16,17
 459 115 459 115 507 148 c 128,-1,18
 555 181 555 181 555 238 c 0,19,20
 555 294 555 294 507 326.5 c 128,-1,21
 459 359 459 359 376 359 c 0,22,23
 321 359 321 359 280.5 344.5 c 128,-1,24
 240 330 240 330 219 302.5 c 128,-1,25
 198 275 198 275 198 238 c 0,26,27
 198 200 198 200 219 172.5 c 128,-1,28
 240 145 240 145 280.5 130 c 128,-1,29
 321 115 321 115 376 115 c 0,16,17
376 370 m 0,30,31
 279 370 279 370 210 395.5 c 128,-1,32
 141 421 141 421 104 470 c 128,-1,33
 67 519 67 519 67 588 c 2,34,-1
 67 700 l 1,35,-1
 228 700 l 1,36,-1
 228 589 l 2,37,38
 228 534 228 534 267 503.5 c 128,-1,39
 306 473 306 473 376 473 c 256,40,41
 446 473 446 473 485 503.5 c 128,-1,42
 524 534 524 534 524 589 c 2,43,-1
 524 700 l 1,44,-1
 685 700 l 1,45,-1
 685 588 l 2,46,47
 685 519 685 519 648 470 c 128,-1,48
 611 421 611 421 541.5 395.5 c 128,-1,49
 472 370 472 370 376 370 c 0,30,31
EndSplineSet
Validated: 5
Substitution2: "sous-table 'c2sc' Capitales vers petites capitales lookups47" uni0223.sc
Substitution2: "sous-table 'aalt' Activer toutes les variantes lookups2" uni0223.sc
EndChar

StartChar: Ohorn
Encoding: 416 416 224
Width: 844
GlyphClass: 2
Flags: W
AnchorPoint: "Ancre-3" 422 700 basechar 0
AnchorPoint: "Ancre-0" 422 0 basechar 0
LayerCount: 2
Fore
SplineSet
422 -12 m 0,0,1
 340 -12 340 -12 269.5 15 c 128,-1,2
 199 42 199 42 147.5 91 c 128,-1,3
 96 140 96 140 67.5 206 c 128,-1,4
 39 272 39 272 39 350 c 0,5,6
 39 429 39 429 67.5 495 c 128,-1,7
 96 561 96 561 148.5 609.5 c 128,-1,8
 201 658 201 658 272.5 685 c 128,-1,9
 344 712 344 712 429 712 c 0,10,11
 485 712 485 712 530 705 c 128,-1,12
 575 698 575 698 612 698 c 0,13,14
 650 698 650 698 672 715 c 128,-1,15
 694 732 694 732 694 764 c 0,16,17
 694 782 694 782 688 797 c 128,-1,18
 682 812 682 812 674 824 c 1,19,-1
 766 858 l 1,20,21
 781 837 781 837 789.5 812 c 128,-1,22
 798 787 798 787 798 758 c 0,23,24
 798 684 798 684 746.5 644 c 128,-1,25
 695 604 695 604 605 604 c 0,26,27
 567 604 567 604 530 609 c 128,-1,28
 493 614 493 614 458 618 c 1,29,-1
 649 642 l 1,30,31
 695 613 695 613 730 569 c 128,-1,32
 765 525 765 525 785 469.5 c 128,-1,33
 805 414 805 414 805 350 c 0,34,35
 805 272 805 272 776 205.5 c 128,-1,36
 747 139 747 139 695.5 90.5 c 128,-1,37
 644 42 644 42 574.5 15 c 128,-1,38
 505 -12 505 -12 422 -12 c 0,0,1
422 126 m 256,39,40
 469 126 469 126 508.5 142.5 c 128,-1,41
 548 159 548 159 578 188.5 c 128,-1,42
 608 218 608 218 624.5 259.5 c 128,-1,43
 641 301 641 301 641 350 c 256,44,45
 641 399 641 399 624.5 440.5 c 128,-1,46
 608 482 608 482 578 511.5 c 128,-1,47
 548 541 548 541 508.5 557.5 c 128,-1,48
 469 574 469 574 422 574 c 256,49,50
 375 574 375 574 335 558 c 128,-1,51
 295 542 295 542 265.5 512 c 128,-1,52
 236 482 236 482 219.5 441 c 128,-1,53
 203 400 203 400 203 350 c 0,54,55
 203 301 203 301 219.5 259.5 c 128,-1,56
 236 218 236 218 265.5 188 c 128,-1,57
 295 158 295 158 335 142 c 128,-1,58
 375 126 375 126 422 126 c 256,39,40
EndSplineSet
Validated: 5
Substitution2: "sous-table 'c2sc' Capitales vers petites capitales lookups47" ohorn.sc
Substitution2: "sous-table 'aalt' Activer toutes les variantes lookups2" ohorn.sc
EndChar

StartChar: uniA7B6
Encoding: 42934 42934 235
Width: 1050
GlyphClass: 2
Flags: W
AnchorPoint: "Ancre-3" 526 700 basechar 0
AnchorPoint: "Ancre-0" 526 0 basechar 0
LayerCount: 2
Fore
SplineSet
320 -10 m 0,0,1
 247 -10 247 -10 195.5 20.5 c 128,-1,2
 144 51 144 51 112 103.5 c 128,-1,3
 80 156 80 156 64.5 221 c 128,-1,4
 49 286 49 286 49 357 c 0,5,6
 49 453 49 453 75 545 c 128,-1,7
 101 637 101 637 147 700 c 1,8,-1
 313 700 l 1,9,10
 282 655 282 655 259.5 596 c 128,-1,11
 237 537 237 537 224.5 473 c 128,-1,12
 212 409 212 409 212 349 c 256,13,14
 212 289 212 289 226 238.5 c 128,-1,15
 240 188 240 188 269 157.5 c 128,-1,16
 298 127 298 127 343 127 c 0,17,18
 374 127 374 127 396.5 143.5 c 128,-1,19
 419 160 419 160 431 193.5 c 128,-1,20
 443 227 443 227 443 276 c 2,21,-1
 443 450 l 1,22,-1
 605 450 l 1,23,-1
 605 276 l 2,24,25
 605 227 605 227 617 193.5 c 128,-1,26
 629 160 629 160 651.5 143.5 c 128,-1,27
 674 127 674 127 706 127 c 0,28,29
 752 127 752 127 780.5 157.5 c 128,-1,30
 809 188 809 188 822 239 c 128,-1,31
 835 290 835 290 835 350 c 0,32,33
 835 409 835 409 823 472.5 c 128,-1,34
 811 536 811 536 789.5 595 c 128,-1,35
 768 654 768 654 737 700 c 1,36,-1
 902 700 l 1,37,38
 933 658 933 658 955 602 c 128,-1,39
 977 546 977 546 989 483 c 128,-1,40
 1001 420 1001 420 1001 356 c 0,41,42
 1001 286 1001 286 985.5 221 c 128,-1,43
 970 156 970 156 937.5 103.5 c 128,-1,44
 905 51 905 51 853 20.5 c 128,-1,45
 801 -10 801 -10 728 -10 c 0,46,47
 657 -10 657 -10 602.5 20 c 128,-1,48
 548 50 548 50 517.5 104.5 c 128,-1,49
 487 159 487 159 484 232 c 1,50,-1
 564 232 l 1,51,52
 562 159 562 159 531 104.5 c 128,-1,53
 500 50 500 50 446 20 c 128,-1,54
 392 -10 392 -10 320 -10 c 0,0,1
EndSplineSet
Validated: 5
Substitution2: "sous-table 'c2sc' Capitales vers petites capitales lookups47" uniA7B7.sc
Substitution2: "sous-table 'aalt' Activer toutes les variantes lookups2" uniA7B7.sc
EndChar

StartChar: uni01EA
Encoding: 490 490 236
Width: 844
GlyphClass: 2
Flags: W
AnchorPoint: "Ancre-3" 422 700 basechar 0
LayerCount: 2
Fore
SplineSet
443 -232 m 0,0,1
 377 -232 377 -232 341 -201 c 128,-1,2
 305 -170 305 -170 305 -120 c 0,3,4
 305 -88 305 -88 320.5 -58.5 c 128,-1,5
 336 -29 336 -29 370.5 -3.5 c 128,-1,6
 405 22 405 22 458 41 c 1,7,-1
 467 -9 l 1,8,9
 453 -10 453 -10 442 -11 c 128,-1,10
 431 -12 431 -12 422 -12 c 0,11,12
 340 -12 340 -12 270 15 c 128,-1,13
 200 42 200 42 148 90.5 c 128,-1,14
 96 139 96 139 67.5 205.5 c 128,-1,15
 39 272 39 272 39 350 c 0,16,17
 39 429 39 429 67.5 495 c 128,-1,18
 96 561 96 561 148 609.5 c 128,-1,19
 200 658 200 658 270 685 c 128,-1,20
 340 712 340 712 422 712 c 0,21,22
 505 712 505 712 574.5 685 c 128,-1,23
 644 658 644 658 695.5 609.5 c 128,-1,24
 747 561 747 561 776 495 c 128,-1,25
 805 429 805 429 805 350 c 0,26,27
 805 262 805 262 770 192 c 128,-1,28
 735 122 735 122 675.5 75 c 128,-1,29
 616 28 616 28 542 6 c 0,30,31
 495 -8 495 -8 464 -26 c 128,-1,32
 433 -44 433 -44 418 -64.5 c 128,-1,33
 403 -85 403 -85 403 -107 c 0,34,35
 403 -128 403 -128 418.5 -140.5 c 128,-1,36
 434 -153 434 -153 461 -153 c 0,37,38
 477 -153 477 -153 493 -148.5 c 128,-1,39
 509 -144 509 -144 521 -138 c 1,40,-1
 544 -209 l 1,41,42
 525 -219 525 -219 498 -225.5 c 128,-1,43
 471 -232 471 -232 443 -232 c 0,0,1
422 126 m 256,44,45
 469 126 469 126 508.5 142 c 128,-1,46
 548 158 548 158 578 188 c 128,-1,47
 608 218 608 218 624.5 259.5 c 128,-1,48
 641 301 641 301 641 350 c 0,49,50
 641 400 641 400 624.5 441 c 128,-1,51
 608 482 608 482 578 512 c 128,-1,52
 548 542 548 542 508.5 558 c 128,-1,53
 469 574 469 574 422 574 c 256,54,55
 375 574 375 574 335 558 c 128,-1,56
 295 542 295 542 265.5 512 c 128,-1,57
 236 482 236 482 219.5 441 c 128,-1,58
 203 400 203 400 203 350 c 0,59,60
 203 301 203 301 219.5 259.5 c 128,-1,61
 236 218 236 218 265.5 188 c 128,-1,62
 295 158 295 158 335 142 c 128,-1,63
 375 126 375 126 422 126 c 256,44,45
EndSplineSet
Validated: 5
Substitution2: "sous-table 'c2sc' Capitales vers petites capitales lookups47" uni01EB.sc
Substitution2: "sous-table 'locl' Formes localis+AOkA-es g+AOkA-ographiquement dans Latin lookup 17" uni01EA.loclNAV
AlternateSubs2: "sous-table 'aalt' Activer toutes les variantes lookups3" uni01EA.loclNAV uni01EB.sc
EndChar

StartChar: uni0186
Encoding: 390 390 238
Width: 724
GlyphClass: 2
Flags: W
AnchorPoint: "Ancre-3" 311 700 basechar 0
AnchorPoint: "Ancre-2" 387 0 basechar 0
AnchorPoint: "Ancre-1" 556 342 basechar 0
AnchorPoint: "Ancre-0" 311 0 basechar 0
LayerCount: 2
Fore
SplineSet
305 712 m 0,0,1
 387 712 387 712 456.5 685.5 c 128,-1,2
 526 659 526 659 577 610 c 128,-1,3
 628 561 628 561 656 495 c 128,-1,4
 684 429 684 429 684 350 c 256,5,6
 684 271 684 271 656 205 c 128,-1,7
 628 139 628 139 576.5 90 c 128,-1,8
 525 41 525 41 455.5 14.5 c 128,-1,9
 386 -12 386 -12 305 -12 c 0,10,11
 214 -12 214 -12 140 20 c 128,-1,12
 66 52 66 52 17 112 c 1,13,-1
 120 208 l 1,14,15
 156 167 156 167 200.5 146.5 c 128,-1,16
 245 126 245 126 297 126 c 0,17,18
 346 126 346 126 387 142 c 128,-1,19
 428 158 428 158 458 188 c 128,-1,20
 488 218 488 218 504.5 259 c 128,-1,21
 521 300 521 300 521 350 c 256,22,23
 521 400 521 400 504.5 441 c 128,-1,24
 488 482 488 482 458 512 c 128,-1,25
 428 542 428 542 387 558 c 128,-1,26
 346 574 346 574 297 574 c 0,27,28
 245 574 245 574 200.5 553.5 c 128,-1,29
 156 533 156 533 120 491 c 1,30,-1
 17 587 l 1,31,32
 66 648 66 648 140 680 c 128,-1,33
 214 712 214 712 305 712 c 0,0,1
EndSplineSet
Validated: 1
Substitution2: "sous-table 'c2sc' Capitales vers petites capitales lookups47" uni0254.sc
Substitution2: "sous-table 'aalt' Activer toutes les variantes lookups2" uni0254.sc
EndChar

StartChar: OE
Encoding: 338 338 245
Width: 1136
GlyphClass: 2
Flags: W
AnchorPoint: "Ancre-3" 628 700 basechar 0
AnchorPoint: "Ancre-0" 628 0 basechar 0
LayerCount: 2
Fore
SplineSet
425 0 m 2,0,1
 311 0 311 0 224 43.5 c 128,-1,2
 137 87 137 87 88 165.5 c 128,-1,3
 39 244 39 244 39 349 c 0,4,5
 39 456 39 456 88 534.5 c 128,-1,6
 137 613 137 613 224 656.5 c 128,-1,7
 311 700 311 700 425 700 c 2,8,-1
 589 700 l 1,9,-1
 589 567 l 1,10,-1
 433 567 l 2,11,12
 364 567 364 567 312 540.5 c 128,-1,13
 260 514 260 514 231.5 465.5 c 128,-1,14
 203 417 203 417 203 349 c 0,15,16
 203 283 203 283 231.5 234.5 c 128,-1,17
 260 186 260 186 312 159.5 c 128,-1,18
 364 133 364 133 433 133 c 2,19,-1
 589 133 l 1,20,-1
 589 0 l 1,21,-1
 425 0 l 2,0,1
548 0 m 1,22,-1
 548 700 l 1,23,-1
 1077 700 l 1,24,-1
 1077 570 l 1,25,-1
 709 570 l 1,26,-1
 709 130 l 1,27,-1
 1090 130 l 1,28,-1
 1090 0 l 1,29,-1
 548 0 l 1,22,-1
697 292 m 1,30,-1
 697 418 l 1,31,-1
 1034 418 l 1,32,-1
 1034 292 l 1,33,-1
 697 292 l 1,30,-1
EndSplineSet
Validated: 5
Substitution2: "sous-table 'c2sc' Capitales vers petites capitales lookups47" oe.sc
Substitution2: "sous-table 'aalt' Activer toutes les variantes lookups2" oe.sc
EndChar

StartChar: P
Encoding: 80 80 246
Width: 732
GlyphClass: 2
Flags: W
AnchorPoint: "Ancre-3" 366 700 basechar 0
AnchorPoint: "Ancre-0" 366 0 basechar 0
LayerCount: 2
Fore
SplineSet
83 0 m 1,0,-1
 83 700 l 1,1,-1
 386 700 l 2,2,3
 480 700 480 700 548 669.5 c 128,-1,4
 616 639 616 639 653 582 c 128,-1,5
 690 525 690 525 690 446 c 0,6,7
 690 368 690 368 653 311 c 128,-1,8
 616 254 616 254 548 223.5 c 128,-1,9
 480 193 480 193 386 193 c 2,10,-1
 173 193 l 1,11,-1
 245 266 l 1,12,-1
 245 0 l 1,13,-1
 83 0 l 1,0,-1
245 248 m 1,14,-1
 173 325 l 1,15,-1
 377 325 l 2,16,17
 452 325 452 325 489 357 c 128,-1,18
 526 389 526 389 526 446 c 0,19,20
 526 504 526 504 489 536 c 128,-1,21
 452 568 452 568 377 568 c 2,22,-1
 173 568 l 1,23,-1
 245 645 l 1,24,-1
 245 248 l 1,14,-1
EndSplineSet
Validated: 5
Substitution2: "sous-table 'c2sc' Capitales vers petites capitales lookups47" p.sc
Substitution2: "sous-table 'aalt' Activer toutes les variantes lookups2" p.sc
EndChar

StartChar: uni01A4
Encoding: 420 420 249
Width: 931
GlyphClass: 2
Flags: W
AnchorPoint: "Ancre-3" 565 700 basechar 0
AnchorPoint: "Ancre-0" 565 0 basechar 0
LayerCount: 2
Fore
SplineSet
87 350 m 1,0,1
 53 388 53 388 36.5 435 c 128,-1,2
 20 482 20 482 23.5 528.5 c 128,-1,3
 27 575 27 575 51 614 c 128,-1,4
 75 653 75 653 121.5 676.5 c 128,-1,5
 168 700 168 700 237 700 c 2,6,-1
 290 700 l 1,7,-1
 290 568 l 1,8,-1
 236 568 l 2,9,10
 208 568 208 568 192 554 c 128,-1,11
 176 540 176 540 172 518 c 128,-1,12
 168 496 168 496 176 470 c 128,-1,13
 184 444 184 444 204 418 c 1,14,-1
 87 350 l 1,0,1
282 0 m 1,15,-1
 282 700 l 1,16,-1
 585 700 l 2,17,18
 679 700 679 700 747 669.5 c 128,-1,19
 815 639 815 639 852 582 c 128,-1,20
 889 525 889 525 889 446 c 0,21,22
 889 368 889 368 852 311 c 128,-1,23
 815 254 815 254 747 223.5 c 128,-1,24
 679 193 679 193 585 193 c 2,25,-1
 372 193 l 1,26,-1
 444 266 l 1,27,-1
 444 0 l 1,28,-1
 282 0 l 1,15,-1
444 248 m 1,29,-1
 372 325 l 1,30,-1
 576 325 l 2,31,32
 651 325 651 325 688 357 c 128,-1,33
 725 389 725 389 725 446 c 0,34,35
 725 504 725 504 688 536 c 128,-1,36
 651 568 651 568 576 568 c 2,37,-1
 372 568 l 1,38,-1
 444 645 l 1,39,-1
 444 248 l 1,29,-1
EndSplineSet
Validated: 37
Substitution2: "sous-table 'c2sc' Capitales vers petites capitales lookups47" uni01A5.sc
Substitution2: "sous-table 'aalt' Activer toutes les variantes lookups2" uni01A5.sc
EndChar

StartChar: Thorn
Encoding: 222 222 250
Width: 732
GlyphClass: 1
Flags: W
LayerCount: 2
Fore
SplineSet
211 115 m 1,0,-1
 211 247 l 1,1,-1
 377 247 l 2,2,3
 452 247 452 247 489 279 c 128,-1,4
 526 311 526 311 526 369 c 256,5,6
 526 427 526 427 489 459 c 128,-1,7
 452 491 452 491 377 491 c 2,8,-1
 211 491 l 1,9,-1
 211 623 l 1,10,-1
 386 623 l 2,11,12
 480 623 480 623 548 592 c 128,-1,13
 616 561 616 561 653 504.5 c 128,-1,14
 690 448 690 448 690 369 c 0,15,16
 690 291 690 291 653 234 c 128,-1,17
 616 177 616 177 548 146 c 128,-1,18
 480 115 480 115 386 115 c 2,19,-1
 211 115 l 1,0,-1
83 0 m 1,20,-1
 83 700 l 1,21,-1
 245 700 l 1,22,-1
 245 0 l 1,23,-1
 83 0 l 1,20,-1
EndSplineSet
Validated: 5
Substitution2: "sous-table 'c2sc' Capitales vers petites capitales lookups47" thorn.sc
Substitution2: "sous-table 'aalt' Activer toutes les variantes lookups2" thorn.sc
EndChar

StartChar: uni2C63
Encoding: 11363 11363 251
Width: 738
GlyphClass: 2
Flags: W
LayerCount: 2
Fore
SplineSet
89 0 m 1,0,-1
 89 700 l 1,1,-1
 392 700 l 2,2,3
 486 700 486 700 554.5 669.5 c 128,-1,4
 623 639 623 639 659.5 582 c 128,-1,5
 696 525 696 525 696 446 c 0,6,7
 696 368 696 368 659.5 311 c 128,-1,8
 623 254 623 254 554.5 223.5 c 128,-1,9
 486 193 486 193 392 193 c 2,10,-1
 179 193 l 1,11,-1
 252 266 l 1,12,-1
 252 0 l 1,13,-1
 89 0 l 1,0,-1
1 394 m 1,14,-1
 1 501 l 1,15,-1
 380 501 l 1,16,-1
 380 394 l 1,17,-1
 1 394 l 1,14,-1
252 248 m 1,18,-1
 179 321 l 1,19,-1
 384 321 l 2,20,21
 457 321 457 321 495 354 c 128,-1,22
 533 387 533 387 533 446 c 0,23,24
 533 507 533 507 495 539.5 c 128,-1,25
 457 572 457 572 384 572 c 2,26,-1
 179 572 l 1,27,-1
 252 645 l 1,28,-1
 252 248 l 1,18,-1
EndSplineSet
Validated: 5
Substitution2: "sous-table 'c2sc' Capitales vers petites capitales lookups47" uni1D7D.sc
Substitution2: "sous-table 'aalt' Activer toutes les variantes lookups2" uni1D7D.sc
EndChar

StartChar: Q
Encoding: 81 81 252
Width: 844
GlyphClass: 2
Flags: W
AnchorPoint: "Ancre-3" 423 700 basechar 0
LayerCount: 2
Fore
SplineSet
422 -12 m 0,0,1
 340 -12 340 -12 269.5 15 c 128,-1,2
 199 42 199 42 147.5 91 c 128,-1,3
 96 140 96 140 67.5 206 c 128,-1,4
 39 272 39 272 39 350 c 256,5,6
 39 428 39 428 67.5 494 c 128,-1,7
 96 560 96 560 148 609 c 128,-1,8
 200 658 200 658 270 685 c 128,-1,9
 340 712 340 712 422 712 c 0,10,11
 505 712 505 712 574.5 685 c 128,-1,12
 644 658 644 658 695.5 609.5 c 128,-1,13
 747 561 747 561 776 495 c 128,-1,14
 805 429 805 429 805 350 c 0,15,16
 805 272 805 272 776 205.5 c 128,-1,17
 747 139 747 139 695.5 90.5 c 128,-1,18
 644 42 644 42 574.5 15 c 128,-1,19
 505 -12 505 -12 422 -12 c 0,0,1
651 -161 m 0,20,21
 610 -161 610 -161 573.5 -152 c 128,-1,22
 537 -143 537 -143 501.5 -123 c 128,-1,23
 466 -103 466 -103 427.5 -69 c 128,-1,24
 389 -35 389 -35 344 15 c 1,25,-1
 514 58 l 1,26,27
 541 21 541 21 564 -1 c 128,-1,28
 587 -23 587 -23 608.5 -32 c 128,-1,29
 630 -41 630 -41 654 -41 c 0,30,31
 718 -41 718 -41 768 11 c 1,32,-1
 840 -75 l 1,33,34
 769 -161 769 -161 651 -161 c 0,20,21
422 126 m 256,35,36
 469 126 469 126 508.5 142 c 128,-1,37
 548 158 548 158 578 188 c 128,-1,38
 608 218 608 218 624.5 259.5 c 128,-1,39
 641 301 641 301 641 350 c 0,40,41
 641 400 641 400 624.5 441 c 128,-1,42
 608 482 608 482 578 512 c 128,-1,43
 548 542 548 542 508.5 558 c 128,-1,44
 469 574 469 574 422 574 c 256,45,46
 375 574 375 574 335 558 c 128,-1,47
 295 542 295 542 265.5 512 c 128,-1,48
 236 482 236 482 219.5 441 c 128,-1,49
 203 400 203 400 203 350 c 0,50,51
 203 301 203 301 219.5 259.5 c 128,-1,52
 236 218 236 218 265.5 188 c 128,-1,53
 295 158 295 158 335 142 c 128,-1,54
 375 126 375 126 422 126 c 256,35,36
EndSplineSet
Validated: 5
Substitution2: "sous-table 'ss01' Jeu stylistique 1 lookups52" Q.ss01
Substitution2: "sous-table 'c2sc' Capitales vers petites capitales lookups47" q.sc
AlternateSubs2: "sous-table 'aalt' Activer toutes les variantes lookups3" q.sc Q.ss01
EndChar

StartChar: uni024A
Encoding: 586 586 253
Width: 879
GlyphClass: 2
Flags: W
AnchorPoint: "Ancre-4" 614 700 basechar 0
AnchorPoint: "Ancre-3" 420 700 basechar 0
AnchorPoint: "Ancre-2" 518 0 basechar 0
AnchorPoint: "Ancre-1" 420 350 basechar 0
AnchorPoint: "Ancre-0" 420 0 basechar 0
LayerCount: 2
Fore
SplineSet
398 -12 m 0,0,1
 322 -12 322 -12 256.5 15 c 128,-1,2
 191 42 191 42 142.5 91 c 128,-1,3
 94 140 94 140 66.5 206 c 128,-1,4
 39 272 39 272 39 350 c 256,5,6
 39 428 39 428 66.5 494 c 128,-1,7
 94 560 94 560 142.5 609 c 128,-1,8
 191 658 191 658 256.5 685 c 128,-1,9
 322 712 322 712 398 712 c 0,10,11
 473 712 473 712 534.5 685 c 128,-1,12
 596 658 596 658 641.5 609.5 c 128,-1,13
 687 561 687 561 711.5 495 c 128,-1,14
 736 429 736 429 736 350 c 0,15,16
 736 272 736 272 711.5 205.5 c 128,-1,17
 687 139 687 139 641.5 90.5 c 128,-1,18
 596 42 596 42 534.5 15 c 128,-1,19
 473 -12 473 -12 398 -12 c 0,0,1
422 126 m 256,20,21
 470 126 470 126 510 142 c 128,-1,22
 550 158 550 158 579 188 c 128,-1,23
 608 218 608 218 624.5 259.5 c 128,-1,24
 641 301 641 301 641 350 c 0,25,26
 641 400 641 400 625 440.5 c 128,-1,27
 609 481 609 481 579.5 511.5 c 128,-1,28
 550 542 550 542 510 558 c 128,-1,29
 470 574 470 574 422 574 c 256,30,31
 374 574 374 574 334 558 c 128,-1,32
 294 542 294 542 264.5 511.5 c 128,-1,33
 235 481 235 481 219 440 c 128,-1,34
 203 399 203 399 203 350 c 256,35,36
 203 301 203 301 219 260 c 128,-1,37
 235 219 235 219 264.5 188.5 c 128,-1,38
 294 158 294 158 334 142 c 128,-1,39
 374 126 374 126 422 126 c 256,20,21
934 -185 m 1,40,41
 883 -205 883 -205 830 -204.5 c 128,-1,42
 777 -204 777 -204 733 -183 c 128,-1,43
 689 -162 689 -162 662 -119.5 c 128,-1,44
 635 -77 635 -77 635 -13 c 2,45,-1
 635 152 l 1,46,-1
 654 351 l 1,47,-1
 638 558 l 1,48,-1
 635 700 l 1,49,-1
 797 700 l 1,50,-1
 797 -10 l 2,51,52
 797 -38 797 -38 811.5 -54 c 128,-1,53
 826 -70 826 -70 849 -73.5 c 128,-1,54
 872 -77 872 -77 896 -68 c 1,55,-1
 934 -185 l 1,40,41
EndSplineSet
Validated: 37
Substitution2: "sous-table 'c2sc' Capitales vers petites capitales lookups47" uni024B.sc
Substitution2: "sous-table 'aalt' Activer toutes les variantes lookups2" uni024B.sc
EndChar

StartChar: R
Encoding: 82 82 254
Width: 735
GlyphClass: 2
Flags: W
AnchorPoint: "Ancre-3" 366 700 basechar 0
AnchorPoint: "Ancre-0" 366 0 basechar 0
LayerCount: 2
Fore
SplineSet
83 0 m 1,0,-1
 83 700 l 1,1,-1
 382 700 l 2,2,3
 528 700 528 700 609 632.5 c 128,-1,4
 690 565 690 565 690 446 c 0,5,6
 690 368 690 368 653 311.5 c 128,-1,7
 616 255 616 255 548 225 c 128,-1,8
 480 195 480 195 386 195 c 2,9,-1
 173 195 l 1,10,-1
 245 266 l 1,11,-1
 245 0 l 1,12,-1
 83 0 l 1,0,-1
528 0 m 1,13,-1
 353 254 l 1,14,-1
 526 254 l 1,15,-1
 703 0 l 1,16,-1
 528 0 l 1,13,-1
245 248 m 1,17,-1
 173 324 l 1,18,-1
 377 324 l 2,19,20
 452 324 452 324 489 356.5 c 128,-1,21
 526 389 526 389 526 446 c 0,22,23
 526 504 526 504 489 536 c 128,-1,24
 452 568 452 568 377 568 c 2,25,-1
 173 568 l 1,26,-1
 245 645 l 1,27,-1
 245 248 l 1,17,-1
EndSplineSet
Validated: 5
Substitution2: "sous-table 'c2sc' Capitales vers petites capitales lookups47" r.sc
Substitution2: "sous-table 'aalt' Activer toutes les variantes lookups2" r.sc
EndChar

StartChar: uni024C
Encoding: 588 588 264
Width: 735
GlyphClass: 2
Flags: W
AnchorPoint: "Ancre-3" 366 700 basechar 0
AnchorPoint: "Ancre-0" 366 0 basechar 0
LayerCount: 2
Fore
SplineSet
83 0 m 1,0,-1
 83 700 l 1,1,-1
 382 700 l 2,2,3
 528 700 528 700 609 632.5 c 128,-1,4
 690 565 690 565 690 446 c 0,5,6
 690 368 690 368 653 311.5 c 128,-1,7
 616 255 616 255 548 225 c 128,-1,8
 480 195 480 195 386 195 c 2,9,-1
 173 195 l 1,10,-1
 245 266 l 1,11,-1
 245 0 l 1,12,-1
 83 0 l 1,0,-1
528 0 m 1,13,-1
 353 254 l 1,14,-1
 526 254 l 1,15,-1
 703 0 l 1,16,-1
 528 0 l 1,13,-1
245 248 m 1,17,-1
 173 324 l 1,18,-1
 377 324 l 2,19,20
 452 324 452 324 489 356.5 c 128,-1,21
 526 389 526 389 526 446 c 0,22,23
 526 504 526 504 489 536 c 128,-1,24
 452 568 452 568 377 568 c 2,25,-1
 173 568 l 1,26,-1
 245 645 l 1,27,-1
 245 248 l 1,17,-1
-5 216 m 1,28,-1
 -5 324 l 1,29,-1
 358 324 l 1,30,-1
 358 216 l 1,31,-1
 -5 216 l 1,28,-1
EndSplineSet
Validated: 5
Substitution2: "sous-table 'c2sc' Capitales vers petites capitales lookups47" uni024D.sc
Substitution2: "sous-table 'aalt' Activer toutes les variantes lookups2" uni024D.sc
EndChar

StartChar: uni2C64
Encoding: 11364 11364 265
Width: 755
GlyphClass: 2
Flags: W
AnchorPoint: "Ancre-3" 386 700 basechar 0
AnchorPoint: "Ancre-0" 386 0 basechar 0
LayerCount: 2
Fore
SplineSet
428 -169 m 1,0,1
 375 -197 375 -197 317 -203 c 128,-1,2
 259 -209 259 -209 208 -190 c 128,-1,3
 157 -171 157 -171 125.5 -127.5 c 128,-1,4
 94 -84 94 -84 94 -13 c 2,5,-1
 94 700 l 1,6,-1
 396 700 l 2,7,8
 491 700 491 700 559 669.5 c 128,-1,9
 627 639 627 639 664 582 c 128,-1,10
 701 525 701 525 701 446 c 0,11,12
 701 368 701 368 664 311.5 c 128,-1,13
 627 255 627 255 559 225 c 128,-1,14
 491 195 491 195 396 195 c 2,15,-1
 208 195 l 1,16,-1
 256 246 l 1,17,-1
 256 -10 l 2,18,19
 256 -35 256 -35 267.5 -50.5 c 128,-1,20
 279 -66 279 -66 297 -71.5 c 128,-1,21
 315 -77 315 -77 337.5 -73 c 128,-1,22
 360 -69 360 -69 383 -56 c 1,23,-1
 428 -169 l 1,0,1
539 0 m 1,24,-1
 364 254 l 1,25,-1
 537 254 l 1,26,-1
 714 0 l 1,27,-1
 539 0 l 1,24,-1
256 268 m 1,28,-1
 208 324 l 1,29,-1
 388 324 l 2,30,31
 462 324 462 324 499.5 356.5 c 128,-1,32
 537 389 537 389 537 446 c 0,33,34
 537 504 537 504 499.5 536 c 128,-1,35
 462 568 462 568 388 568 c 2,36,-1
 208 568 l 1,37,-1
 256 625 l 1,38,-1
 256 268 l 1,28,-1
EndSplineSet
Validated: 37
Substitution2: "sous-table 'c2sc' Capitales vers petites capitales lookups47" uni027D.sc
Substitution2: "sous-table 'aalt' Activer toutes les variantes lookups2" uni027D.sc
EndChar

StartChar: S
Encoding: 83 83 266
Width: 638
GlyphClass: 2
Flags: W
AnchorPoint: "Ancre-3" 325 700 basechar 0
AnchorPoint: "Ancre-1" 325 350 basechar 0
AnchorPoint: "Ancre-0" 325 0 basechar 0
LayerCount: 2
Fore
SplineSet
313 -12 m 0,0,1
 229 -12 229 -12 152 10.5 c 128,-1,2
 75 33 75 33 28 69 c 1,3,-1
 83 191 l 1,4,5
 128 159 128 159 189.5 138.5 c 128,-1,6
 251 118 251 118 314 118 c 0,7,8
 362 118 362 118 391.5 127.5 c 128,-1,9
 421 137 421 137 435 154 c 128,-1,10
 449 171 449 171 449 193 c 0,11,12
 449 221 449 221 427 237.5 c 128,-1,13
 405 254 405 254 369 264.5 c 128,-1,14
 333 275 333 275 289.5 284.5 c 128,-1,15
 246 294 246 294 202.5 308 c 128,-1,16
 159 322 159 322 123 344 c 128,-1,17
 87 366 87 366 64.5 402 c 128,-1,18
 42 438 42 438 42 494 c 0,19,20
 42 554 42 554 74.5 603.5 c 128,-1,21
 107 653 107 653 172.5 682.5 c 128,-1,22
 238 712 238 712 337 712 c 0,23,24
 403 712 403 712 467 696.5 c 128,-1,25
 531 681 531 681 580 650 c 1,26,-1
 530 527 l 1,27,28
 481 555 481 555 432 568.5 c 128,-1,29
 383 582 383 582 336 582 c 256,30,31
 289 582 289 582 259 571 c 128,-1,32
 229 560 229 560 216 542.5 c 128,-1,33
 203 525 203 525 203 502 c 0,34,35
 203 475 203 475 225 458.5 c 128,-1,36
 247 442 247 442 283 432 c 128,-1,37
 319 422 319 422 362.5 412 c 128,-1,38
 406 402 406 402 449.5 389 c 128,-1,39
 493 376 493 376 529 354 c 128,-1,40
 565 332 565 332 587.5 296 c 128,-1,41
 610 260 610 260 610 205 c 0,42,43
 610 146 610 146 577 97 c 128,-1,44
 544 48 544 48 478.5 18 c 128,-1,45
 413 -12 413 -12 313 -12 c 0,0,1
EndSplineSet
Validated: 1
Substitution2: "sous-table 'c2sc' Capitales vers petites capitales lookups47" s.sc
Substitution2: "sous-table 'aalt' Activer toutes les variantes lookups2" s.sc
EndChar

StartChar: uni1E9E
Encoding: 7838 7838 277
Width: 779
GlyphClass: 1
Flags: W
LayerCount: 2
Fore
SplineSet
477 -12 m 0,0,1
 435 -12 435 -12 398.5 -6 c 128,-1,2
 362 0 362 0 331 12 c 1,3,-1
 355 140 l 1,4,5
 376 130 376 130 403 124 c 128,-1,6
 430 118 430 118 457 118 c 0,7,8
 514 118 514 118 545 142 c 128,-1,9
 576 166 576 166 576 213 c 0,10,11
 576 259 576 259 544.5 283 c 128,-1,12
 513 307 513 307 458 307 c 0,13,14
 438 307 438 307 419 304 c 128,-1,15
 400 301 400 301 384 296 c 1,16,-1
 356 367 l 1,17,-1
 588 634 l 1,18,-1
 603 528 l 1,19,20
 564 555 564 555 520 568.5 c 128,-1,21
 476 582 476 582 425 582 c 0,22,23
 333 582 333 582 286 531.5 c 128,-1,24
 239 481 239 481 239 388 c 2,25,-1
 239 0 l 1,26,-1
 77 0 l 1,27,-1
 77 392 l 2,28,29
 77 491 77 491 117 562.5 c 128,-1,30
 157 634 157 634 234 673 c 128,-1,31
 311 712 311 712 420 712 c 0,32,33
 464 712 464 712 509.5 704.5 c 128,-1,34
 555 697 555 697 597 682 c 128,-1,35
 639 667 639 667 670 645 c 1,36,-1
 670 546 l 1,37,-1
 478 327 l 1,38,-1
 413 416 l 1,39,40
 430 420 430 420 449 422 c 128,-1,41
 468 424 468 424 489 424 c 0,42,43
 557 424 557 424 614.5 398.5 c 128,-1,44
 672 373 672 373 706 324.5 c 128,-1,45
 740 276 740 276 740 206 c 256,46,47
 740 136 740 136 706 87.5 c 128,-1,48
 672 39 672 39 612.5 13.5 c 128,-1,49
 553 -12 553 -12 477 -12 c 0,0,1
EndSplineSet
Validated: 5
Substitution2: "sous-table 'c2sc' Capitales vers petites capitales lookups47" germandbls.sc
Substitution2: "sous-table 'aalt' Activer toutes les variantes lookups2" germandbls.sc
EndChar

StartChar: uniA7A8
Encoding: 42920 42920 278
Width: 634
GlyphClass: 2
Flags: W
AnchorPoint: "Ancre-3" 323 700 basechar 0
AnchorPoint: "Ancre-0" 323 0 basechar 0
LayerCount: 2
Fore
SplineSet
312 -11 m 0,0,1
 257 -11 257 -11 204 -1 c 128,-1,2
 151 9 151 9 105.5 27.5 c 128,-1,3
 60 46 60 46 28 70 c 1,4,-1
 81 188 l 1,5,6
 125 156 125 156 187 135 c 128,-1,7
 249 114 249 114 312 114 c 0,8,9
 362 114 362 114 392.5 124 c 128,-1,10
 423 134 423 134 437 152 c 128,-1,11
 451 170 451 170 451 192 c 0,12,13
 451 221 451 221 429 238 c 128,-1,14
 407 255 407 255 370.5 266 c 128,-1,15
 334 277 334 277 290.5 286.5 c 128,-1,16
 247 296 247 296 203 309.5 c 128,-1,17
 159 323 159 323 123 345 c 128,-1,18
 87 367 87 367 64.5 403.5 c 128,-1,19
 42 440 42 440 42 496 c 0,20,21
 42 555 42 555 74 604 c 128,-1,22
 106 653 106 653 171 682 c 128,-1,23
 236 711 236 711 335 711 c 0,24,25
 401 711 401 711 464.5 695.5 c 128,-1,26
 528 680 528 680 576 650 c 1,27,-1
 527 531 l 1,28,29
 480 559 480 559 430.5 572.5 c 128,-1,30
 381 586 381 586 334 586 c 0,31,32
 285 586 285 586 254.5 574.5 c 128,-1,33
 224 563 224 563 210.5 544.5 c 128,-1,34
 197 526 197 526 197 503 c 0,35,36
 197 475 197 475 219 458 c 128,-1,37
 241 441 241 441 277.5 430.5 c 128,-1,38
 314 420 314 420 357.5 410.5 c 128,-1,39
 401 401 401 401 445 388 c 128,-1,40
 489 375 489 375 525 353 c 128,-1,41
 561 331 561 331 583.5 295 c 128,-1,42
 606 259 606 259 606 204 c 0,43,44
 606 146 606 146 573.5 97 c 128,-1,45
 541 48 541 48 476 18.5 c 128,-1,46
 411 -11 411 -11 312 -11 c 0,0,1
262 169 m 1,47,-1
 179 213 l 1,48,-1
 346 529 l 1,49,-1
 428 489 l 1,50,-1
 262 169 l 1,47,-1
EndSplineSet
Validated: 5
Substitution2: "sous-table 'c2sc' Capitales vers petites capitales lookups47" uniA7A9.sc
Substitution2: "sous-table 'aalt' Activer toutes les variantes lookups2" uniA7A9.sc
EndChar

StartChar: T
Encoding: 84 84 279
Width: 618
GlyphClass: 2
Flags: W
AnchorPoint: "Ancre-3" 309 700 basechar 0
AnchorPoint: "Ancre-1" 309 351 basechar 0
AnchorPoint: "Ancre-0" 309 0 basechar 0
LayerCount: 2
Fore
SplineSet
228 0 m 1,0,-1
 228 568 l 1,1,-1
 4 568 l 1,2,-1
 4 700 l 1,3,-1
 614 700 l 1,4,-1
 614 568 l 1,5,-1
 390 568 l 1,6,-1
 390 0 l 1,7,-1
 228 0 l 1,0,-1
EndSplineSet
Validated: 1
Substitution2: "sous-table 'ss01' Jeu stylistique 1 lookups52" T.ss01
Substitution2: "sous-table 'c2sc' Capitales vers petites capitales lookups47" t.sc
AlternateSubs2: "sous-table 'aalt' Activer toutes les variantes lookups3" t.sc T.ss01
EndChar

StartChar: Tbar
Encoding: 358 358 280
Width: 618
GlyphClass: 2
Flags: W
AnchorPoint: "Ancre-3" 309 700 basechar 0
AnchorPoint: "Ancre-1" 309 351 basechar 0
AnchorPoint: "Ancre-0" 309 0 basechar 0
LayerCount: 2
Fore
SplineSet
228 0 m 1,0,-1
 228 568 l 1,1,-1
 4 568 l 1,2,-1
 4 700 l 1,3,-1
 614 700 l 1,4,-1
 614 568 l 1,5,-1
 390 568 l 1,6,-1
 390 0 l 1,7,-1
 228 0 l 1,0,-1
95 287 m 1,8,-1
 95 395 l 1,9,-1
 522 395 l 1,10,-1
 522 287 l 1,11,-1
 95 287 l 1,8,-1
EndSplineSet
Validated: 5
Substitution2: "sous-table 'ss01' Jeu stylistique 1 lookups52" Tbar.ss01
Substitution2: "sous-table 'c2sc' Capitales vers petites capitales lookups47" tbar.sc
AlternateSubs2: "sous-table 'aalt' Activer toutes les variantes lookups3" tbar.sc Tbar.ss01
EndChar

StartChar: uni023E
Encoding: 574 574 285
Width: 615
GlyphClass: 2
Flags: W
AnchorPoint: "Ancre-3" 308 700 basechar 0
AnchorPoint: "Ancre-1" 308 329 basechar 0
AnchorPoint: "Ancre-0" 308 0 basechar 0
LayerCount: 2
Fore
SplineSet
232 0 m 1,0,-1
 232 568 l 1,1,-1
 4 568 l 1,2,-1
 4 700 l 1,3,-1
 611 700 l 1,4,-1
 611 568 l 1,5,-1
 384 568 l 1,6,-1
 384 0 l 1,7,-1
 232 0 l 1,0,-1
107 -70 m 1,8,-1
 491 770 l 1,9,-1
 591 770 l 1,10,-1
 206 -70 l 1,11,-1
 107 -70 l 1,8,-1
EndSplineSet
Validated: 5
Substitution2: "sous-table 'ss01' Jeu stylistique 1 lookups52" uni023E.ss01
Substitution2: "sous-table 'c2sc' Capitales vers petites capitales lookups47" uni2C66.sc
AlternateSubs2: "sous-table 'aalt' Activer toutes les variantes lookups3" uni2C66.sc uni023E.ss01
Substitution2: "sous-table 'rvrn' Required Variation Alternates lookups0" uni023E.BRACKET.varAlt01
EndChar

StartChar: uni01AC
Encoding: 428 428 288
Width: 716
GlyphClass: 1
Flags: W
LayerCount: 2
Fore
SplineSet
326 0 m 1,0,-1
 326 594 l 1,1,-1
 358 568 l 1,2,-1
 229 568 l 2,3,4
 199 568 199 568 182.5 553.5 c 128,-1,5
 166 539 166 539 162.5 515.5 c 128,-1,6
 159 492 159 492 168.5 465 c 128,-1,7
 178 438 178 438 199 413 c 1,8,-1
 87 351 l 1,9,10
 53 389 53 389 37 435.5 c 128,-1,11
 21 482 21 482 24.5 528.5 c 128,-1,12
 28 575 28 575 51.5 614 c 128,-1,13
 75 653 75 653 119.5 676.5 c 128,-1,14
 164 700 164 700 231 700 c 2,15,-1
 712 700 l 1,16,-1
 712 568 l 1,17,-1
 453 568 l 1,18,-1
 488 594 l 1,19,-1
 488 0 l 1,20,-1
 326 0 l 1,0,-1
EndSplineSet
Validated: 37
Substitution2: "sous-table 'ss01' Jeu stylistique 1 lookups52" uni01AC.ss01
Substitution2: "sous-table 'c2sc' Capitales vers petites capitales lookups47" uni01AD.sc
AlternateSubs2: "sous-table 'aalt' Activer toutes les variantes lookups3" uni01AD.sc uni01AC.ss01
EndChar

StartChar: uni01AE
Encoding: 430 430 290
Width: 618
GlyphClass: 2
Flags: W
AnchorPoint: "Ancre-3" 309 700 basechar 0
AnchorPoint: "Ancre-1" 309 328 basechar 0
AnchorPoint: "Ancre-0" 309 0 basechar 0
LayerCount: 2
Fore
SplineSet
562 -169 m 1,0,1
 509 -197 509 -197 451 -202.5 c 128,-1,2
 393 -208 393 -208 342 -189.5 c 128,-1,3
 291 -171 291 -171 259.5 -127 c 128,-1,4
 228 -83 228 -83 228 -12 c 2,5,-1
 228 589 l 1,6,-1
 390 589 l 1,7,-1
 390 -9 l 2,8,9
 390 -34 390 -34 401.5 -49.5 c 128,-1,10
 413 -65 413 -65 431 -71 c 128,-1,11
 449 -77 449 -77 471.5 -73 c 128,-1,12
 494 -69 494 -69 517 -55 c 1,13,-1
 562 -169 l 1,0,1
4 568 m 1,14,-1
 4 700 l 1,15,-1
 614 700 l 1,16,-1
 614 568 l 1,17,-1
 4 568 l 1,14,-1
EndSplineSet
Validated: 37
Substitution2: "sous-table 'ss01' Jeu stylistique 1 lookups52" uni01AE.ss01
Substitution2: "sous-table 'c2sc' Capitales vers petites capitales lookups47" uni0288.sc
AlternateSubs2: "sous-table 'aalt' Activer toutes les variantes lookups3" uni0288.sc uni01AE.ss01
EndChar

StartChar: uniA7B1
Encoding: 42929 42929 291
Width: 618
GlyphClass: 1
Flags: W
LayerCount: 2
Fore
SplineSet
390 700 m 1,0,-1
 390 132 l 1,1,-1
 614 132 l 1,2,-1
 614 0 l 1,3,-1
 4 0 l 1,4,-1
 4 132 l 1,5,-1
 228 132 l 1,6,-1
 228 700 l 1,7,-1
 390 700 l 1,0,-1
EndSplineSet
Validated: 1
Substitution2: "sous-table 'ss01' Jeu stylistique 1 lookups52" uniA7B1.ss01
Substitution2: "sous-table 'c2sc' Capitales vers petites capitales lookups47" uni0287.sc
AlternateSubs2: "sous-table 'aalt' Activer toutes les variantes lookups3" uni0287.sc uniA7B1.ss01
EndChar

StartChar: U
Encoding: 85 85 292
Width: 788
GlyphClass: 2
Flags: W
AnchorPoint: "Ancre-4" 651 700 basechar 0
AnchorPoint: "Ancre-3" 395 700 basechar 0
AnchorPoint: "Ancre-2" 607 0 basechar 0
AnchorPoint: "Ancre-1" 395 366 basechar 0
AnchorPoint: "Ancre-0" 395 0 basechar 0
LayerCount: 2
Fore
SplineSet
394 -12 m 256,0,1
 245 -12 245 -12 161 71 c 128,-1,2
 77 154 77 154 77 308 c 2,3,-1
 77 700 l 1,4,-1
 239 700 l 1,5,-1
 239 314 l 2,6,7
 239 214 239 214 280 170 c 128,-1,8
 321 126 321 126 395 126 c 256,9,10
 469 126 469 126 510 170 c 128,-1,11
 551 214 551 214 551 314 c 2,12,-1
 551 700 l 1,13,-1
 711 700 l 1,14,-1
 711 308 l 2,15,16
 711 154 711 154 627 71 c 128,-1,17
 543 -12 543 -12 394 -12 c 256,0,1
EndSplineSet
Validated: 1
Substitution2: "sous-table 'ss01' Jeu stylistique 1 lookups52" U.ss01
Substitution2: "sous-table 'c2sc' Capitales vers petites capitales lookups47" u.sc
AlternateSubs2: "sous-table 'aalt' Activer toutes les variantes lookups3" u.sc U.ss01
EndChar

StartChar: uni0244
Encoding: 580 580 294
Width: 791
GlyphClass: 2
Flags: W
AnchorPoint: "Ancre-4" 652 700 basechar 0
AnchorPoint: "Ancre-3" 396 700 basechar 0
AnchorPoint: "Ancre-2" 608 0 basechar 0
AnchorPoint: "Ancre-1" 396 366 basechar 0
AnchorPoint: "Ancre-0" 396 0 basechar 0
LayerCount: 2
Fore
SplineSet
395 -12 m 256,0,1
 246 -12 246 -12 162 71 c 128,-1,2
 78 154 78 154 78 308 c 2,3,-1
 78 700 l 1,4,-1
 240 700 l 1,5,-1
 240 314 l 2,6,7
 240 214 240 214 281 170 c 128,-1,8
 322 126 322 126 396 126 c 256,9,10
 470 126 470 126 511 170 c 128,-1,11
 552 214 552 214 552 314 c 2,12,-1
 552 700 l 1,13,-1
 712 700 l 1,14,-1
 712 308 l 2,15,16
 712 154 712 154 628 71 c 128,-1,17
 544 -12 544 -12 395 -12 c 256,0,1
-10 303 m 1,18,-1
 -10 412 l 1,19,-1
 800 412 l 1,20,-1
 800 303 l 1,21,-1
 -10 303 l 1,18,-1
EndSplineSet
Validated: 5
Substitution2: "sous-table 'ss01' Jeu stylistique 1 lookups52" uni0244.ss01
Substitution2: "sous-table 'c2sc' Capitales vers petites capitales lookups47" uni0289.sc
AlternateSubs2: "sous-table 'aalt' Activer toutes les variantes lookups3" uni0289.sc uni0244.ss01
EndChar

StartChar: Uogonek
Encoding: 370 370 319
Width: 788
GlyphClass: 2
Flags: W
AnchorPoint: "Ancre-4" 651 700 basechar 0
AnchorPoint: "Ancre-3" 395 700 basechar 0
AnchorPoint: "Ancre-1" 395 366 basechar 0
AnchorPoint: "Ancre-0" 395 -231 basechar 0
LayerCount: 2
Fore
SplineSet
423 -232 m 0,0,1
 358 -232 358 -232 321.5 -201 c 128,-1,2
 285 -170 285 -170 285 -120 c 0,3,4
 285 -88 285 -88 301 -59 c 128,-1,5
 317 -30 317 -30 351 -4 c 128,-1,6
 385 22 385 22 438 41 c 1,7,-1
 440 -10 l 1,8,9
 428 -11 428 -11 417 -11.5 c 128,-1,10
 406 -12 406 -12 394 -12 c 0,11,12
 245 -12 245 -12 161 71 c 128,-1,13
 77 154 77 154 77 308 c 2,14,-1
 77 700 l 1,15,-1
 239 700 l 1,16,-1
 239 314 l 2,17,18
 239 214 239 214 280 170 c 128,-1,19
 321 126 321 126 395 126 c 256,20,21
 469 126 469 126 510 170 c 128,-1,22
 551 214 551 214 551 314 c 2,23,-1
 551 700 l 1,24,-1
 711 700 l 1,25,-1
 711 308 l 2,26,27
 711 185 711 185 660 112 c 128,-1,28
 609 39 609 39 524 8 c 0,29,30
 468 -13 468 -13 437.5 -33 c 128,-1,31
 407 -53 407 -53 395.5 -71 c 128,-1,32
 384 -89 384 -89 384 -107 c 0,33,34
 384 -128 384 -128 399 -140.5 c 128,-1,35
 414 -153 414 -153 441 -153 c 0,36,37
 458 -153 458 -153 474 -148.5 c 128,-1,38
 490 -144 490 -144 501 -138 c 1,39,-1
 524 -209 l 1,40,41
 506 -219 506 -219 479 -225.5 c 128,-1,42
 452 -232 452 -232 423 -232 c 0,0,1
EndSplineSet
Validated: 5
Substitution2: "sous-table 'ss01' Jeu stylistique 1 lookups52" Uogonek.ss01
Substitution2: "sous-table 'c2sc' Capitales vers petites capitales lookups47" uogonek.sc
Substitution2: "sous-table 'locl' Formes localis+AOkA-es g+AOkA-ographiquement dans Latin lookup 17" Uogonek.loclNAV
AlternateSubs2: "sous-table 'aalt' Activer toutes les variantes lookups3" Uogonek.loclNAV uogonek.sc Uogonek.ss01
EndChar

StartChar: uni01B1
Encoding: 433 433 320
Width: 857
GlyphClass: 2
Flags: W
AnchorPoint: "Ancre-3" 428 700 basechar 0
AnchorPoint: "Ancre-0" 428 0 basechar 0
LayerCount: 2
Fore
SplineSet
834 700 m 1,0,-1
 834 568 l 1,1,-1
 707 568 l 1,2,3
 754 525 754 525 781.5 463.5 c 128,-1,4
 809 402 809 402 809 326 c 0,5,6
 809 251 809 251 780 189 c 128,-1,7
 751 127 751 127 699.5 82 c 128,-1,8
 648 37 648 37 579 12.5 c 128,-1,9
 510 -12 510 -12 428 -12 c 0,10,11
 348 -12 348 -12 278.5 12.5 c 128,-1,12
 209 37 209 37 157 82 c 128,-1,13
 105 127 105 127 76.5 189.5 c 128,-1,14
 48 252 48 252 48 326 c 0,15,16
 48 402 48 402 75.5 463.5 c 128,-1,17
 103 525 103 525 149 568 c 1,18,-1
 23 568 l 1,19,-1
 23 700 l 1,20,-1
 359 700 l 1,21,-1
 359 577 l 1,22,23
 288 541 288 541 249 479 c 128,-1,24
 210 417 210 417 210 343 c 0,25,26
 210 293 210 293 226.5 253 c 128,-1,27
 243 213 243 213 272 184.5 c 128,-1,28
 301 156 301 156 341 141 c 128,-1,29
 381 126 381 126 428 126 c 0,30,31
 476 126 476 126 516 141 c 128,-1,32
 556 156 556 156 585 184.5 c 128,-1,33
 614 213 614 213 630 253 c 128,-1,34
 646 293 646 293 646 343 c 0,35,36
 646 418 646 418 607.5 480 c 128,-1,37
 569 542 569 542 498 577 c 1,38,-1
 498 700 l 1,39,-1
 834 700 l 1,0,-1
EndSplineSet
Validated: 1
Substitution2: "sous-table 'c2sc' Capitales vers petites capitales lookups47" uni028A.sc
Substitution2: "sous-table 'aalt' Activer toutes les variantes lookups2" uni028A.sc
EndChar

StartChar: V
Encoding: 86 86 325
Width: 746
GlyphClass: 2
Flags: W
AnchorPoint: "Ancre-3" 373 700 basechar 0
AnchorPoint: "Ancre-2" 454 0 basechar 0
AnchorPoint: "Ancre-0" 373 0 basechar 0
LayerCount: 2
Fore
SplineSet
293 0 m 1,0,-1
 -9 700 l 1,1,-1
 166 700 l 1,2,-1
 430 80 l 1,3,-1
 327 80 l 1,4,-1
 595 700 l 1,5,-1
 756 700 l 1,6,-1
 453 0 l 1,7,-1
 293 0 l 1,0,-1
EndSplineSet
Validated: 5
Substitution2: "sous-table 'c2sc' Capitales vers petites capitales lookups47" v.sc
Substitution2: "sous-table 'aalt' Activer toutes les variantes lookups2" v.sc
EndChar

StartChar: uni0194
Encoding: 404 404 326
Width: 676
GlyphClass: 2
Flags: W
AnchorPoint: "Ancre-3" 338 700 basechar 0
AnchorPoint: "Ancre-1" 334 257 basechar 0
AnchorPoint: "Ancre-0" 338 0 basechar 0
LayerCount: 2
Fore
SplineSet
341 -206 m 0,0,1
 295 -206 295 -206 257 -187.5 c 128,-1,2
 219 -169 219 -169 196 -135 c 128,-1,3
 173 -101 173 -101 173 -56 c 0,4,5
 173 -19 173 -19 189 19 c 128,-1,6
 205 57 205 57 229 94 c 128,-1,7
 253 131 253 131 277.5 168 c 128,-1,8
 302 205 302 205 318 239 c 2,9,-1
 545 700 l 1,10,-1
 706 700 l 1,11,-1
 434 153 l 2,12,13
 422 128 422 128 398.5 100.5 c 128,-1,14
 375 73 375 73 350.5 44.5 c 128,-1,15
 326 16 326 16 309 -10.5 c 128,-1,16
 292 -37 292 -37 292 -60 c 0,17,18
 292 -80 292 -80 306.5 -92.5 c 128,-1,19
 321 -105 321 -105 341 -105 c 256,20,21
 361 -105 361 -105 375.5 -92.5 c 128,-1,22
 390 -80 390 -80 390 -60 c 0,23,24
 390 -39 390 -39 374 -12.5 c 128,-1,25
 358 14 358 14 335.5 42.5 c 128,-1,26
 313 71 313 71 291.5 98.5 c 128,-1,27
 270 126 270 126 259 149 c 2,28,-1
 -19 700 l 1,29,-1
 156 700 l 1,30,-1
 380 239 l 2,31,32
 396 208 396 208 417 172.5 c 128,-1,33
 438 137 438 137 459 98.5 c 128,-1,34
 480 60 480 60 494 21 c 128,-1,35
 508 -18 508 -18 508 -55 c 0,36,37
 508 -100 508 -100 486 -134 c 128,-1,38
 464 -168 464 -168 426.5 -187 c 128,-1,39
 389 -206 389 -206 341 -206 c 0,0,1
EndSplineSet
Validated: 5
Substitution2: "sous-table 'c2sc' Capitales vers petites capitales lookups47" uni0263.sc
Substitution2: "sous-table 'aalt' Activer toutes les variantes lookups2" uni0263.sc
EndChar

StartChar: uni01B2
Encoding: 434 434 328
Width: 778
GlyphClass: 2
Flags: W
AnchorPoint: "Ancre-4" 648 700 basechar 0
AnchorPoint: "Ancre-3" 392 700 basechar 0
AnchorPoint: "Ancre-2" 605 0 basechar 0
AnchorPoint: "Ancre-0" 392 0 basechar 0
LayerCount: 2
Fore
SplineSet
391 -12 m 0,0,1
 242 -12 242 -12 158 71 c 128,-1,2
 74 154 74 154 74 308 c 2,3,-1
 74 700 l 1,4,-1
 237 700 l 1,5,-1
 237 314 l 2,6,7
 237 214 237 214 278 170 c 128,-1,8
 319 126 319 126 392 126 c 0,9,10
 467 126 467 126 507.5 170 c 128,-1,11
 548 214 548 214 548 314 c 2,12,-1
 548 522 l 2,13,14
 548 551 548 551 537 568 c 128,-1,15
 526 585 526 585 507.5 591.5 c 128,-1,16
 489 598 489 598 466.5 594 c 128,-1,17
 444 590 444 590 422 576 c 1,18,-1
 384 690 l 1,19,20
 435 716 435 716 492 721.5 c 128,-1,21
 549 727 549 727 598.5 709 c 128,-1,22
 648 691 648 691 679.5 647 c 128,-1,23
 711 603 711 603 711 529 c 2,24,-1
 711 308 l 2,25,26
 711 154 711 154 626.5 71 c 128,-1,27
 542 -12 542 -12 391 -12 c 0,0,1
EndSplineSet
Validated: 33
Substitution2: "sous-table 'c2sc' Capitales vers petites capitales lookups47" uni028B.sc
Substitution2: "sous-table 'locl' Formes localis+AOkA-es g+AOkA-ographiquement dans Latin lookup 20" uni01B2.loclTOD0
AlternateSubs2: "sous-table 'aalt' Activer toutes les variantes lookups3" uni01B2.loclTOD0 uni028B.sc
EndChar

StartChar: uni0245
Encoding: 581 581 330
Width: 746
GlyphClass: 2
Flags: W
AnchorPoint: "Ancre-3" 373 700 basechar 0
AnchorPoint: "Ancre-2" 756 0 basechar 0
AnchorPoint: "Ancre-0" 373 0 basechar 0
LayerCount: 2
Fore
SplineSet
453 700 m 1,0,-1
 756 0 l 1,1,-1
 580 0 l 1,2,-1
 317 620 l 1,3,-1
 419 620 l 1,4,-1
 151 0 l 1,5,-1
 -9 0 l 1,6,-1
 293 700 l 1,7,-1
 453 700 l 1,0,-1
EndSplineSet
Validated: 5
Substitution2: "sous-table 'c2sc' Capitales vers petites capitales lookups47" uni028C.sc
Substitution2: "sous-table 'aalt' Activer toutes les variantes lookups2" uni028C.sc
EndChar

StartChar: W
Encoding: 87 87 331
Width: 1163
GlyphClass: 2
Flags: W
AnchorPoint: "Ancre-3" 582 700 basechar 0
AnchorPoint: "Ancre-0" 582 0 basechar 0
LayerCount: 2
Fore
SplineSet
251 0 m 1,0,-1
 22 700 l 1,1,-1
 190 700 l 1,2,-1
 389 80 l 1,3,-1
 305 80 l 1,4,-1
 513 700 l 1,5,-1
 663 700 l 1,6,-1
 863 80 l 1,7,-1
 782 80 l 1,8,-1
 986 700 l 1,9,-1
 1141 700 l 1,10,-1
 912 0 l 1,11,-1
 738 0 l 1,12,-1
 561 544 l 1,13,-1
 607 544 l 1,14,-1
 425 0 l 1,15,-1
 251 0 l 1,0,-1
EndSplineSet
Validated: 5
Substitution2: "sous-table 'ss01' Jeu stylistique 1 lookups52" W.ss01
Substitution2: "sous-table 'c2sc' Capitales vers petites capitales lookups47" w.sc
AlternateSubs2: "sous-table 'aalt' Activer toutes les variantes lookups3" w.sc W.ss01
EndChar

StartChar: uni2C72
Encoding: 11378 11378 338
Width: 1196
GlyphClass: 2
Flags: W
AnchorPoint: "Ancre-3" 582 700 basechar 0
AnchorPoint: "Ancre-0" 582 0 basechar 0
LayerCount: 2
Fore
SplineSet
251 0 m 1,0,-1
 22 700 l 1,1,-1
 190 700 l 1,2,-1
 389 80 l 1,3,-1
 305 80 l 1,4,-1
 513 700 l 1,5,-1
 663 700 l 1,6,-1
 852 80 l 1,7,-1
 772 80 l 1,8,-1
 946 608 l 2,9,10
 964 667 964 667 997 700 c 128,-1,11
 1030 733 1030 733 1069.5 744.5 c 128,-1,12
 1109 756 1109 756 1150.5 748.5 c 128,-1,13
 1192 741 1192 741 1229 719 c 1,14,-1
 1179 602 l 1,15,16
 1151 618 1151 618 1124 608.5 c 128,-1,17
 1097 599 1097 599 1085 562 c 2,18,-1
 902 0 l 1,19,-1
 729 0 l 1,20,-1
 561 544 l 1,21,-1
 607 544 l 1,22,-1
 425 0 l 1,23,-1
 251 0 l 1,0,-1
EndSplineSet
Validated: 37
Substitution2: "sous-table 'ss01' Jeu stylistique 1 lookups52" uni2C72.ss01
Substitution2: "sous-table 'c2sc' Capitales vers petites capitales lookups47" uni2C73.sc
AlternateSubs2: "sous-table 'aalt' Activer toutes les variantes lookups3" uni2C73.sc uni2C72.ss01
EndChar

StartChar: X
Encoding: 88 88 339
Width: 714
GlyphClass: 2
Flags: W
AnchorPoint: "Ancre-3" 357 700 basechar 0
AnchorPoint: "Ancre-0" 357 0 basechar 0
LayerCount: 2
Fore
SplineSet
3 0 m 1,0,-1
 304 415 l 1,1,-1
 304 297 l 1,2,-1
 16 700 l 1,3,-1
 200 700 l 1,4,-1
 399 419 l 1,5,-1
 322 418 l 1,6,-1
 518 700 l 1,7,-1
 694 700 l 1,8,-1
 408 304 l 1,9,-1
 408 420 l 1,10,-1
 711 0 l 1,11,-1
 524 0 l 1,12,-1
 318 297 l 1,13,-1
 392 297 l 1,14,-1
 189 0 l 1,15,-1
 3 0 l 1,0,-1
EndSplineSet
Validated: 5
Substitution2: "sous-table 'c2sc' Capitales vers petites capitales lookups47" x.sc
Substitution2: "sous-table 'aalt' Activer toutes les variantes lookups2" x.sc
EndChar

StartChar: Y
Encoding: 89 89 342
Width: 676
GlyphClass: 2
Flags: W
AnchorPoint: "Ancre-3" 338 700 basechar 0
AnchorPoint: "Ancre-2" 419 0 basechar 0
AnchorPoint: "Ancre-1" 334 257 basechar 0
AnchorPoint: "Ancre-0" 338 0 basechar 0
LayerCount: 2
Fore
SplineSet
257 0 m 1,0,-1
 257 286 l 1,1,-1
 294 188 l 1,2,-1
 -14 700 l 1,3,-1
 158 700 l 1,4,-1
 394 307 l 1,5,-1
 295 307 l 1,6,-1
 532 700 l 1,7,-1
 691 700 l 1,8,-1
 383 188 l 1,9,-1
 419 286 l 1,10,-1
 419 0 l 1,11,-1
 257 0 l 1,0,-1
EndSplineSet
Validated: 5
Substitution2: "sous-table 'ss01' Jeu stylistique 1 lookups52" Y.ss01
Substitution2: "sous-table 'c2sc' Capitales vers petites capitales lookups47" y.sc
AlternateSubs2: "sous-table 'aalt' Activer toutes les variantes lookups3" y.sc Y.ss01
EndChar

StartChar: uni01B3
Encoding: 435 435 349
Width: 715
GlyphClass: 2
Flags: W
AnchorPoint: "Ancre-3" 338 700 basechar 0
AnchorPoint: "Ancre-1" 334 257 basechar 0
AnchorPoint: "Ancre-0" 338 0 basechar 0
LayerCount: 2
Fore
SplineSet
768 713 m 1,0,-1
 711 600 l 1,1,2
 686 618 686 618 660 613 c 128,-1,3
 634 608 634 608 614 576 c 2,4,-1
 383 188 l 1,5,-1
 419 286 l 1,6,-1
 419 0 l 1,7,-1
 257 0 l 1,8,-1
 257 286 l 1,9,-1
 294 188 l 1,10,-1
 -14 700 l 1,11,-1
 158 700 l 1,12,-1
 394 307 l 1,13,-1
 296 307 l 1,14,-1
 501 651 l 2,15,16
 537 712 537 712 583.5 735 c 128,-1,17
 630 758 630 758 678.5 750.5 c 128,-1,18
 727 743 727 743 768 713 c 1,0,-1
EndSplineSet
Validated: 37
Substitution2: "sous-table 'ss01' Jeu stylistique 1 lookups52" uni01B3.ss01
Substitution2: "sous-table 'c2sc' Capitales vers petites capitales lookups47" uni01B4.sc
AlternateSubs2: "sous-table 'aalt' Activer toutes les variantes lookups3" uni01B4.sc uni01B3.ss01
EndChar

StartChar: uni01A6
Encoding: 422 422 352
Width: 735
GlyphClass: 2
Flags: W
AnchorPoint: "Ancre-3" 366 700 basechar 0
AnchorPoint: "Ancre-0" 366 0 basechar 0
LayerCount: 2
Fore
SplineSet
169 131 m 1,0,-1
 169 260 l 1,1,-1
 377 260 l 2,2,3
 452 260 452 260 489 292.5 c 128,-1,4
 526 325 526 325 526 382 c 0,5,6
 526 440 526 440 489 472 c 128,-1,7
 452 504 452 504 377 504 c 2,8,-1
 169 504 l 1,9,-1
 169 636 l 1,10,-1
 382 636 l 2,11,12
 528 636 528 636 609 568.5 c 128,-1,13
 690 501 690 501 690 382 c 0,14,15
 690 304 690 304 653 248 c 128,-1,16
 616 192 616 192 548 161.5 c 128,-1,17
 480 131 480 131 386 131 c 2,18,-1
 169 131 l 1,0,-1
83 0 m 1,19,-1
 83 700 l 1,20,-1
 245 700 l 1,21,-1
 245 0 l 1,22,-1
 83 0 l 1,19,-1
528 -100 m 1,23,-1
 357 164 l 1,24,-1
 531 164 l 1,25,-1
 703 -100 l 1,26,-1
 528 -100 l 1,23,-1
EndSplineSet
Validated: 5
Substitution2: "sous-table 'c2sc' Capitales vers petites capitales lookups47" uni0280.sc
Substitution2: "sous-table 'aalt' Activer toutes les variantes lookups2" uni0280.sc
EndChar

StartChar: uni024E
Encoding: 590 590 353
Width: 676
GlyphClass: 2
Flags: W
AnchorPoint: "Ancre-3" 338 700 basechar 0
AnchorPoint: "Ancre-1" 334 257 basechar 0
AnchorPoint: "Ancre-0" 338 0 basechar 0
LayerCount: 2
Fore
SplineSet
257 0 m 1,0,-1
 257 266 l 1,1,-1
 294 168 l 1,2,-1
 -14 700 l 1,3,-1
 150 700 l 1,4,-1
 378 296 l 1,5,-1
 311 296 l 1,6,-1
 540 700 l 1,7,-1
 691 700 l 1,8,-1
 383 168 l 1,9,-1
 419 266 l 1,10,-1
 419 0 l 1,11,-1
 257 0 l 1,0,-1
-10 499 m 1,12,-1
 -10 608 l 1,13,-1
 686 608 l 1,14,-1
 686 499 l 1,15,-1
 -10 499 l 1,12,-1
EndSplineSet
Validated: 5
Substitution2: "sous-table 'ss01' Jeu stylistique 1 lookups52" uni024E.ss01
Substitution2: "sous-table 'c2sc' Capitales vers petites capitales lookups47" uni024F.sc
AlternateSubs2: "sous-table 'aalt' Activer toutes les variantes lookups3" uni024F.sc uni024E.ss01
EndChar

StartChar: Z
Encoding: 90 90 355
Width: 671
GlyphClass: 2
Flags: W
AnchorPoint: "Ancre-3" 344 700 basechar 0
AnchorPoint: "Ancre-2" 650 0 basechar 0
AnchorPoint: "Ancre-0" 347 0 basechar 0
LayerCount: 2
Fore
SplineSet
38 0 m 1,0,-1
 38 105 l 1,1,-1
 471 627 l 1,2,-1
 491 568 l 1,3,-1
 46 568 l 1,4,-1
 46 700 l 1,5,-1
 635 700 l 1,6,-1
 635 595 l 1,7,-1
 203 73 l 1,8,-1
 183 132 l 1,9,-1
 650 132 l 1,10,-1
 650 0 l 1,11,-1
 38 0 l 1,0,-1
EndSplineSet
Validated: 5
Substitution2: "sous-table 'ss01' Jeu stylistique 1 lookups52" Z.ss01
Substitution2: "sous-table 'c2sc' Capitales vers petites capitales lookups47" z.sc
AlternateSubs2: "sous-table 'aalt' Activer toutes les variantes lookups3" z.sc Z.ss01
EndChar

StartChar: uni01B5
Encoding: 437 437 362
Width: 671
GlyphClass: 2
Flags: W
AnchorPoint: "Ancre-3" 344 700 basechar 0
AnchorPoint: "Ancre-0" 347 0 basechar 0
LayerCount: 2
Fore
SplineSet
38 0 m 1,0,-1
 38 105 l 1,1,-1
 471 627 l 1,2,-1
 491 568 l 1,3,-1
 46 568 l 1,4,-1
 46 700 l 1,5,-1
 635 700 l 1,6,-1
 635 595 l 1,7,-1
 203 73 l 1,8,-1
 183 132 l 1,9,-1
 650 132 l 1,10,-1
 650 0 l 1,11,-1
 38 0 l 1,0,-1
115 303 m 1,12,-1
 115 412 l 1,13,-1
 571 412 l 1,14,-1
 571 303 l 1,15,-1
 115 303 l 1,12,-1
EndSplineSet
Validated: 5
Substitution2: "sous-table 'c2sc' Capitales vers petites capitales lookups47" uni01B6.sc
Substitution2: "sous-table 'aalt' Activer toutes les variantes lookups2" uni01B6.sc
EndChar

StartChar: uniA78B
Encoding: 42891 42891 363
Width: 297
GlyphClass: 1
Flags: W
LayerCount: 2
Fore
SplineSet
68 297 m 1,0,-1
 68 700 l 1,1,-1
 228 700 l 1,2,-1
 208 297 l 1,3,-1
 68 297 l 1,0,-1
EndSplineSet
Validated: 1
Substitution2: "sous-table 'c2sc' Capitales vers petites capitales lookups47" uniA78C.sc
Substitution2: "sous-table 'aalt' Activer toutes les variantes lookups2" uniA78C.sc
EndChar

StartChar: uni0295.case
Encoding: 65538 -1 364
Width: 617
GlyphClass: 2
Flags: W
AnchorPoint: "Ancre-3" 322 700 basechar 0
AnchorPoint: "Ancre-0" 326 0 basechar 0
LayerCount: 2
Fore
SplineSet
407 0 m 1,0,-1
 245 0 l 1,1,-1
 245 156 l 2,2,3
 245 190 245 190 228.5 214.5 c 128,-1,4
 212 239 212 239 185.5 258.5 c 128,-1,5
 159 278 159 278 130 297 c 128,-1,6
 101 316 101 316 74.5 340.5 c 128,-1,7
 48 365 48 365 31 399 c 128,-1,8
 14 433 14 433 14 481 c 0,9,10
 14 540 14 540 40 583.5 c 128,-1,11
 66 627 66 627 109.5 655.5 c 128,-1,12
 153 684 153 684 208 698 c 128,-1,13
 263 712 263 712 321 712 c 0,14,15
 386 712 386 712 447 695 c 128,-1,16
 508 678 508 678 557 645.5 c 128,-1,17
 606 613 606 613 636 564 c 1,18,-1
 511 489 l 1,19,20
 491 521 491 521 461 541 c 128,-1,21
 431 561 431 561 397 570.5 c 128,-1,22
 363 580 363 580 328 580 c 0,23,24
 290 580 290 580 255.5 568 c 128,-1,25
 221 556 221 556 199.5 533 c 128,-1,26
 178 510 178 510 178 474 c 0,27,28
 178 444 178 444 194.5 422.5 c 128,-1,29
 211 401 211 401 237 384 c 128,-1,30
 263 367 263 367 292.5 349.5 c 128,-1,31
 322 332 322 332 348 309 c 128,-1,32
 374 286 374 286 390.5 252 c 128,-1,33
 407 218 407 218 407 168 c 2,34,-1
 407 0 l 1,0,-1
EndSplineSet
Validated: 1
EndChar

StartChar: uni01B2.loclTOD0
Encoding: 65548 -1 374
Width: 798
GlyphClass: 2
Flags: W
AnchorPoint: "Ancre-3" 373 700 basechar 0
AnchorPoint: "Ancre-0" 373 0 basechar 0
LayerCount: 2
Fore
SplineSet
294 0 m 1,0,-1
 -9 700 l 1,1,-1
 166 700 l 1,2,-1
 412 120 l 1,3,-1
 344 120 l 1,4,-1
 554 611 l 2,5,6
 579 668 579 668 611.5 700.5 c 128,-1,7
 644 733 644 733 682.5 745 c 128,-1,8
 721 757 721 757 760.5 750.5 c 128,-1,9
 800 744 800 744 837 722 c 1,10,-1
 786 605 l 1,11,12
 758 620 758 620 733 610.5 c 128,-1,13
 708 601 708 601 693 565 c 2,14,-1
 453 0 l 1,15,-1
 294 0 l 1,0,-1
EndSplineSet
Validated: 37
Substitution2: "sous-table 'ss01' Jeu stylistique 1 lookups52" uni01B2.loclTOD0.ss01
Substitution2: "sous-table 'c2sc' Capitales vers petites capitales lookups47" uni01B2.loclTOD0.sc
AlternateSubs2: "sous-table 'aalt' Activer toutes les variantes lookups3" uni01B2.loclTOD0.sc uni01B2.loclTOD0.ss01
EndChar

StartChar: uni0181.loclXPE
Encoding: 65549 -1 375
Width: 744
GlyphClass: 1
Flags: W
LayerCount: 2
Fore
SplineSet
92 47 m 1,0,-1
 92 700 l 1,1,-1
 638 700 l 1,2,-1
 638 571 l 1,3,-1
 252 571 l 1,4,-1
 252 128 l 1,5,-1
 92 47 l 1,0,-1
402 -11 m 0,6,7
 322 -11 322 -11 240 5 c 128,-1,8
 158 21 158 21 92 47 c 1,9,-1
 242 137 l 1,10,11
 257 131 257 131 281 125 c 128,-1,12
 305 119 305 119 335 114.5 c 128,-1,13
 365 110 365 110 394 110 c 256,14,15
 423 110 423 110 449.5 115 c 128,-1,16
 476 120 476 120 497 130 c 128,-1,17
 518 140 518 140 530.5 158.5 c 128,-1,18
 543 177 543 177 543 204 c 0,19,20
 543 240 543 240 523 260 c 128,-1,21
 503 280 503 280 470.5 288.5 c 128,-1,22
 438 297 438 297 399 297 c 0,23,24
 353 297 353 297 306 288 c 128,-1,25
 259 279 259 279 224 268 c 1,26,-1
 224 382 l 1,27,28
 270 398 270 398 322.5 407.5 c 128,-1,29
 375 417 375 417 428 417 c 0,30,31
 482 417 482 417 532 405.5 c 128,-1,32
 582 394 582 394 621 368.5 c 128,-1,33
 660 343 660 343 683 302.5 c 128,-1,34
 706 262 706 262 706 204 c 0,35,36
 706 144 706 144 681.5 102.5 c 128,-1,37
 657 61 657 61 614.5 36 c 128,-1,38
 572 11 572 11 517.5 0 c 128,-1,39
 463 -11 463 -11 402 -11 c 0,6,7
EndSplineSet
Validated: 5
EndChar

StartChar: A.ss01
Encoding: 65550 -1 376
Width: 796
GlyphClass: 2
Flags: W
AnchorPoint: "Ancre-3" 398 700 basechar 0
AnchorPoint: "Ancre-2" 719 0 basechar 0
AnchorPoint: "Ancre-0" 398 0 basechar 0
LayerCount: 2
Fore
SplineSet
77 0 m 1,0,-1
 77 383 l 2,1,2
 77 490 77 490 117.5 563.5 c 128,-1,3
 158 637 158 637 230 674.5 c 128,-1,4
 302 712 302 712 398 712 c 256,5,6
 494 712 494 712 566.5 674.5 c 128,-1,7
 639 637 639 637 679 563.5 c 128,-1,8
 719 490 719 490 719 383 c 2,9,-1
 719 0 l 1,10,-1
 557 0 l 1,11,-1
 557 398 l 2,12,13
 557 488 557 488 513 531 c 128,-1,14
 469 574 469 574 397 574 c 256,15,16
 325 574 325 574 281 531 c 128,-1,17
 237 488 237 488 237 398 c 2,18,-1
 237 0 l 1,19,-1
 77 0 l 1,0,-1
179 168 m 1,20,-1
 179 298 l 1,21,-1
 615 298 l 1,22,-1
 615 168 l 1,23,-1
 179 168 l 1,20,-1
EndSplineSet
Validated: 5
EndChar

StartChar: uni023A.ss01
Encoding: 65579 -1 405
Width: 796
GlyphClass: 2
Flags: W
AnchorPoint: "Ancre-3" 398 700 basechar 0
AnchorPoint: "Ancre-2" 719 0 basechar 0
AnchorPoint: "Ancre-0" 398 0 basechar 0
LayerCount: 2
Fore
SplineSet
77 0 m 1,0,-1
 77 383 l 2,1,2
 77 490 77 490 117.5 563.5 c 128,-1,3
 158 637 158 637 230 674.5 c 128,-1,4
 302 712 302 712 398 712 c 256,5,6
 494 712 494 712 566.5 674.5 c 128,-1,7
 639 637 639 637 679 563.5 c 128,-1,8
 719 490 719 490 719 383 c 2,9,-1
 719 0 l 1,10,-1
 562 0 l 1,11,-1
 562 398 l 2,12,13
 562 488 562 488 516.5 531 c 128,-1,14
 471 574 471 574 397 574 c 256,15,16
 323 574 323 574 278 531 c 128,-1,17
 233 488 233 488 233 398 c 2,18,-1
 233 0 l 1,19,-1
 77 0 l 1,0,-1
179 176 m 1,20,-1
 179 298 l 1,21,-1
 615 298 l 1,22,-1
 615 176 l 1,23,-1
 179 176 l 1,20,-1
224 -70 m 1,24,-1
 608 770 l 1,25,-1
 708 770 l 1,26,-1
 324 -70 l 1,27,-1
 224 -70 l 1,24,-1
EndSplineSet
Validated: 5
EndChar

StartChar: uni2C6F.ss01
Encoding: 65581 -1 407
Width: 796
GlyphClass: 2
Flags: W
AnchorPoint: "Ancre-3" 398 700 basechar 0
AnchorPoint: "Ancre-0" 398 0 basechar 0
LayerCount: 2
Fore
SplineSet
719 700 m 1,0,-1
 719 317 l 2,1,2
 719 211 719 211 679 137 c 128,-1,3
 639 63 639 63 566.5 25.5 c 128,-1,4
 494 -12 494 -12 398 -12 c 256,5,6
 302 -12 302 -12 230 25.5 c 128,-1,7
 158 63 158 63 117.5 137 c 128,-1,8
 77 211 77 211 77 317 c 2,9,-1
 77 700 l 1,10,-1
 239 700 l 1,11,-1
 239 302 l 2,12,13
 239 213 239 213 283 169.5 c 128,-1,14
 327 126 327 126 399 126 c 0,15,16
 472 126 472 126 516 169.5 c 128,-1,17
 560 213 560 213 560 302 c 2,18,-1
 560 700 l 1,19,-1
 719 700 l 1,0,-1
617 532 m 1,20,-1
 617 402 l 1,21,-1
 181 402 l 1,22,-1
 181 532 l 1,23,-1
 617 532 l 1,20,-1
EndSplineSet
Validated: 5
EndChar

StartChar: AE.ss01
Encoding: 65582 -1 408
Width: 1086
GlyphClass: 2
Flags: W
AnchorPoint: "Ancre-3" 539 700 basechar 0
AnchorPoint: "Ancre-0" 539 0 basechar 0
LayerCount: 2
Fore
SplineSet
506 0 m 1,0,-1
 506 700 l 1,1,-1
 1035 700 l 1,2,-1
 1035 571 l 1,3,-1
 666 571 l 1,4,-1
 666 417 l 1,5,-1
 993 417 l 1,6,-1
 993 294 l 1,7,-1
 666 294 l 1,8,-1
 666 129 l 1,9,-1
 1049 129 l 1,10,-1
 1049 0 l 1,11,-1
 506 0 l 1,0,-1
172 177 m 1,12,-1
 172 305 l 1,13,-1
 586 305 l 1,14,-1
 586 177 l 1,15,-1
 172 177 l 1,12,-1
70 0 m 1,16,-1
 70 385 l 2,17,18
 70 538 70 538 151 619 c 128,-1,19
 232 700 232 700 384 700 c 2,20,-1
 586 700 l 1,21,-1
 586 562 l 1,22,-1
 398 562 l 2,23,24
 314 562 314 562 273.5 517.5 c 128,-1,25
 233 473 233 473 233 381 c 2,26,-1
 233 0 l 1,27,-1
 70 0 l 1,16,-1
EndSplineSet
Validated: 5
EndChar

StartChar: E.ss01
Encoding: 65589 -1 415
Width: 667
GlyphClass: 2
Flags: W
AnchorPoint: "Ancre-3" 362 700 basechar 0
AnchorPoint: "Ancre-2" 617 0 basechar 0
AnchorPoint: "Ancre-0" 362 0 basechar 0
LayerCount: 2
Fore
SplineSet
369 -12 m 0,0,1
 261 -12 261 -12 187.5 15 c 128,-1,2
 114 42 114 42 76.5 89.5 c 128,-1,3
 39 137 39 137 39 197 c 0,4,5
 39 250 39 250 66.5 290.5 c 128,-1,6
 94 331 94 331 142 354 c 128,-1,7
 190 377 190 377 250 377 c 1,8,-1
 255 337 l 1,9,10
 197 337 197 337 155 359.5 c 128,-1,11
 113 382 113 382 91 420.5 c 128,-1,12
 69 459 69 459 69 505 c 0,13,14
 69 560 69 560 103 607 c 128,-1,15
 137 654 137 654 207 683 c 128,-1,16
 277 712 277 712 384 712 c 0,17,18
 453 712 453 712 517.5 698.5 c 128,-1,19
 582 685 582 685 630 662 c 1,20,-1
 585 538 l 1,21,22
 537 561 537 561 488.5 571 c 128,-1,23
 440 581 440 581 390 581 c 0,24,25
 310 581 310 581 271.5 556.5 c 128,-1,26
 233 532 233 532 233 494 c 0,27,28
 233 458 233 458 259 438 c 128,-1,29
 285 418 285 418 340 418 c 2,30,-1
 531 418 l 1,31,-1
 531 290 l 1,32,-1
 330 290 l 2,33,34
 290 290 290 290 261.5 280.5 c 128,-1,35
 233 271 233 271 218 253 c 128,-1,36
 203 235 203 235 203 208 c 0,37,38
 203 168 203 168 244 143.5 c 128,-1,39
 285 119 285 119 376 119 c 0,40,41
 438 119 438 119 499.5 135.5 c 128,-1,42
 561 152 561 152 605 182 c 1,43,-1
 655 60 l 1,44,45
 606 27 606 27 530 7.5 c 128,-1,46
 454 -12 454 -12 369 -12 c 0,0,1
EndSplineSet
Validated: 5
EndChar

StartChar: Eogonek.ss01
Encoding: 65612 -1 438
Width: 667
GlyphClass: 2
Flags: W
AnchorPoint: "Ancre-3" 362 700 basechar 0
AnchorPoint: "Ancre-0" 362 0 basechar 0
LayerCount: 2
Fore
SplineSet
540 -232 m 0,0,1
 474 -232 474 -232 437.5 -201 c 128,-1,2
 401 -170 401 -170 401 -120 c 0,3,4
 401 -77 401 -77 425.5 -38 c 128,-1,5
 450 1 450 1 501 32 c 1,6,-1
 512 6 l 1,7,8
 479 -2 479 -2 443 -7 c 128,-1,9
 407 -12 407 -12 369 -12 c 0,10,11
 261 -12 261 -12 187.5 15 c 128,-1,12
 114 42 114 42 76.5 89.5 c 128,-1,13
 39 137 39 137 39 197 c 0,14,15
 39 250 39 250 66.5 290.5 c 128,-1,16
 94 331 94 331 142 354 c 128,-1,17
 190 377 190 377 250 377 c 1,18,-1
 255 337 l 1,19,20
 197 337 197 337 155 359.5 c 128,-1,21
 113 382 113 382 91 420.5 c 128,-1,22
 69 459 69 459 69 505 c 0,23,24
 69 560 69 560 103 607 c 128,-1,25
 137 654 137 654 207 683 c 128,-1,26
 277 712 277 712 384 712 c 0,27,28
 453 712 453 712 517.5 698.5 c 128,-1,29
 582 685 582 685 630 662 c 1,30,-1
 585 538 l 1,31,32
 537 561 537 561 488.5 571 c 128,-1,33
 440 581 440 581 390 581 c 0,34,35
 310 581 310 581 271.5 556.5 c 128,-1,36
 233 532 233 532 233 494 c 0,37,38
 233 458 233 458 259 438 c 128,-1,39
 285 418 285 418 340 418 c 2,40,-1
 531 418 l 1,41,-1
 531 290 l 1,42,-1
 330 290 l 2,43,44
 290 290 290 290 261.5 280.5 c 128,-1,45
 233 271 233 271 218 253 c 128,-1,46
 203 235 203 235 203 208 c 0,47,48
 203 168 203 168 244 143.5 c 128,-1,49
 285 119 285 119 376 119 c 0,50,51
 438 119 438 119 499.5 136 c 128,-1,52
 561 153 561 153 605 182 c 1,53,-1
 655 60 l 1,54,55
 596 26 596 26 562 -3.5 c 128,-1,56
 528 -33 528 -33 514 -58 c 128,-1,57
 500 -83 500 -83 500 -104 c 0,58,59
 500 -127 500 -127 515.5 -140 c 128,-1,60
 531 -153 531 -153 557 -153 c 0,61,62
 574 -153 574 -153 590 -148.5 c 128,-1,63
 606 -144 606 -144 618 -138 c 1,64,-1
 640 -209 l 1,65,66
 622 -219 622 -219 595 -225.5 c 128,-1,67
 568 -232 568 -232 540 -232 c 0,0,1
EndSplineSet
Validated: 5
EndChar

StartChar: uni0246.ss01
Encoding: 65613 -1 439
Width: 667
GlyphClass: 2
Flags: W
AnchorPoint: "Ancre-3" 353 700 basechar 0
AnchorPoint: "Ancre-2" 463 0 basechar 0
AnchorPoint: "Ancre-0" 353 0 basechar 0
LayerCount: 2
Fore
SplineSet
369 -12 m 0,0,1
 261 -12 261 -12 187.5 15 c 128,-1,2
 114 42 114 42 76.5 89.5 c 128,-1,3
 39 137 39 137 39 197 c 0,4,5
 39 250 39 250 66.5 290.5 c 128,-1,6
 94 331 94 331 142 354 c 128,-1,7
 190 377 190 377 250 377 c 1,8,-1
 255 337 l 1,9,10
 197 337 197 337 155 359.5 c 128,-1,11
 113 382 113 382 91 420.5 c 128,-1,12
 69 459 69 459 69 505 c 0,13,14
 69 560 69 560 103 607 c 128,-1,15
 137 654 137 654 207 683 c 128,-1,16
 277 712 277 712 384 712 c 0,17,18
 453 712 453 712 517.5 698.5 c 128,-1,19
 582 685 582 685 630 662 c 1,20,-1
 585 538 l 1,21,22
 537 561 537 561 488.5 571 c 128,-1,23
 440 581 440 581 390 581 c 0,24,25
 310 581 310 581 271.5 556.5 c 128,-1,26
 233 532 233 532 233 494 c 0,27,28
 233 458 233 458 259 438 c 128,-1,29
 285 418 285 418 340 418 c 2,30,-1
 531 418 l 1,31,-1
 531 290 l 1,32,-1
 330 290 l 2,33,34
 290 290 290 290 261.5 280.5 c 128,-1,35
 233 271 233 271 218 253 c 128,-1,36
 203 235 203 235 203 208 c 0,37,38
 203 168 203 168 244 143.5 c 128,-1,39
 285 119 285 119 376 119 c 0,40,41
 438 119 438 119 499.5 135.5 c 128,-1,42
 561 152 561 152 605 182 c 1,43,-1
 655 60 l 1,44,45
 606 27 606 27 530 7.5 c 128,-1,46
 454 -12 454 -12 369 -12 c 0,0,1
149 -70 m 1,47,-1
 534 770 l 1,48,-1
 633 770 l 1,49,-1
 249 -70 l 1,50,-1
 149 -70 l 1,47,-1
EndSplineSet
Validated: 5
EndChar

StartChar: uni018E.ss01
Encoding: 65616 -1 442
Width: 652
GlyphClass: 2
Flags: W
AnchorPoint: "Ancre-3" 278 700 basechar 0
AnchorPoint: "Ancre-0" 278 0 basechar 0
LayerCount: 2
Fore
SplineSet
280 -12 m 0,0,1
 193 -12 193 -12 119.5 7.5 c 128,-1,2
 46 27 46 27 -5 60 c 1,3,-1
 46 182 l 1,4,5
 93 151 93 151 153 135 c 128,-1,6
 213 119 213 119 281 119 c 0,7,8
 367 119 367 119 407.5 144 c 128,-1,9
 448 169 448 169 448 212 c 0,10,11
 448 240 448 240 433 259 c 128,-1,12
 418 278 418 278 389.5 288 c 128,-1,13
 361 298 361 298 321 298 c 2,14,-1
 140 298 l 1,15,-1
 140 420 l 1,16,-1
 311 420 l 2,17,18
 365 420 365 420 391.5 439 c 128,-1,19
 418 458 418 458 418 493 c 0,20,21
 418 525 418 525 399.5 544 c 128,-1,22
 381 563 381 563 350 571.5 c 128,-1,23
 319 580 319 580 281 580 c 0,24,25
 245 580 245 580 206 573.5 c 128,-1,26
 167 567 167 567 132 555.5 c 128,-1,27
 97 544 97 544 69 529 c 1,28,-1
 24 653 l 1,29,30
 77 681 77 681 144 696.5 c 128,-1,31
 211 712 211 712 280 712 c 0,32,33
 338 712 338 712 392 700.5 c 128,-1,34
 446 689 446 689 489 665 c 128,-1,35
 532 641 532 641 557 604.5 c 128,-1,36
 582 568 582 568 582 517 c 0,37,38
 582 471 582 471 560 431 c 128,-1,39
 538 391 538 391 496 366 c 128,-1,40
 454 341 454 341 395 341 c 1,41,-1
 400 376 l 1,42,43
 461 376 461 376 508.5 355 c 128,-1,44
 556 334 556 334 583.5 294.5 c 128,-1,45
 611 255 611 255 611 200 c 0,46,47
 611 138 611 138 572.5 90 c 128,-1,48
 534 42 534 42 460.5 15 c 128,-1,49
 387 -12 387 -12 280 -12 c 0,0,1
EndSplineSet
Validated: 5
EndChar

StartChar: uni018F.ss01
Encoding: 65617 -1 443
Width: 817
GlyphClass: 2
Flags: W
AnchorPoint: "Ancre-3" 408 700 basechar 0
AnchorPoint: "Ancre-2" 471 0 basechar 0
AnchorPoint: "Ancre-0" 408 0 basechar 0
LayerCount: 2
Fore
SplineSet
409 -12 m 0,0,1
 322 -12 322 -12 250.5 19 c 128,-1,2
 179 50 179 50 129 107.5 c 128,-1,3
 79 165 79 165 55 245 c 1,4,-1
 618 471 l 1,5,-1
 652 365 l 1,6,-1
 170 168 l 1,7,-1
 220 275 l 1,8,9
 230 202 230 202 277.5 159.5 c 128,-1,10
 325 117 325 117 409 117 c 0,11,12
 457 117 457 117 495 132 c 128,-1,13
 533 147 533 147 559.5 175.5 c 128,-1,14
 586 204 586 204 600 243.5 c 128,-1,15
 614 283 614 283 614 331 c 2,16,-1
 614 357 l 2,17,18
 614 404 614 404 597.5 444 c 128,-1,19
 581 484 581 484 552 513 c 128,-1,20
 523 542 523 542 483 558 c 128,-1,21
 443 574 443 574 397 574 c 0,22,23
 361 574 361 574 324 565 c 128,-1,24
 287 556 287 556 253.5 538 c 128,-1,25
 220 520 220 520 194 492 c 1,26,-1
 97 597 l 1,27,28
 130 631 130 631 177.5 657 c 128,-1,29
 225 683 225 683 281 697.5 c 128,-1,30
 337 712 337 712 398 712 c 0,31,32
 481 712 481 712 550.5 685.5 c 128,-1,33
 620 659 620 659 671.5 610 c 128,-1,34
 723 561 723 561 750.5 495 c 128,-1,35
 778 429 778 429 778 351 c 0,36,37
 778 271 778 271 750.5 205 c 128,-1,38
 723 139 723 139 673 90.5 c 128,-1,39
 623 42 623 42 556 15 c 128,-1,40
 489 -12 489 -12 409 -12 c 0,0,1
EndSplineSet
Validated: 5
EndChar

StartChar: F.ss01
Encoding: 65618 -1 444
Width: 615
GlyphClass: 2
Flags: W
AnchorPoint: "Ancre-3" 364 700 basechar 0
AnchorPoint: "Ancre-0" 364 0 basechar 0
LayerCount: 2
Fore
SplineSet
77 0 m 1,0,-1
 77 427 l 2,1,2
 77 562 77 562 162 637 c 128,-1,3
 247 712 247 712 398 712 c 0,4,5
 459 712 459 712 511.5 699.5 c 128,-1,6
 564 687 564 687 603 663 c 1,7,-1
 553 535 l 1,8,9
 521 556 521 556 483.5 565 c 128,-1,10
 446 574 446 574 409 574 c 0,11,12
 325 574 325 574 282 537.5 c 128,-1,13
 239 501 239 501 239 428 c 2,14,-1
 239 0 l 1,15,-1
 77 0 l 1,0,-1
178 255 m 1,16,-1
 178 385 l 1,17,-1
 527 385 l 1,18,-1
 527 255 l 1,19,-1
 178 255 l 1,16,-1
EndSplineSet
Validated: 5
EndChar

StartChar: uni0191.ss01
Encoding: 65620 -1 446
Width: 639
GlyphClass: 1
Flags: W
LayerCount: 2
Fore
SplineSet
-44 -182 m 1,0,-1
 -4 -66 l 1,1,2
 16 -74 16 -74 34.5 -74.5 c 128,-1,3
 53 -75 53 -75 68 -67.5 c 128,-1,4
 83 -60 83 -60 92 -45 c 128,-1,5
 101 -30 101 -30 101 -8 c 2,6,-1
 101 427 l 2,7,8
 101 562 101 562 186 637 c 128,-1,9
 271 712 271 712 422 712 c 0,10,11
 482 712 482 712 535 699.5 c 128,-1,12
 588 687 588 687 627 663 c 1,13,-1
 577 535 l 1,14,15
 545 556 545 556 507.5 565 c 128,-1,16
 470 574 470 574 432 574 c 0,17,18
 349 574 349 574 304.5 537.5 c 128,-1,19
 260 501 260 501 263 428 c 2,20,-1
 263 -17 l 2,21,22
 263 -67 263 -67 244.5 -104 c 128,-1,23
 226 -141 226 -141 194.5 -164 c 128,-1,24
 163 -187 163 -187 123 -196.5 c 128,-1,25
 83 -206 83 -206 40 -202.5 c 128,-1,26
 -3 -199 -3 -199 -44 -182 c 1,0,-1
202 255 m 1,27,-1
 202 385 l 1,28,-1
 550 385 l 1,29,-1
 550 255 l 1,30,-1
 202 255 l 1,27,-1
EndSplineSet
Validated: 37
EndChar

StartChar: G.ss01
Encoding: 65621 -1 447
Width: 771
GlyphClass: 2
Flags: W
AnchorPoint: "Ancre-3" 417 700 basechar 0
AnchorPoint: "Ancre-0" 407 0 basechar 0
LayerCount: 2
Fore
SplineSet
394 -12 m 0,0,1
 323 -12 323 -12 259 11 c 128,-1,2
 195 34 195 34 145 79.5 c 128,-1,3
 95 125 95 125 67 191.5 c 128,-1,4
 39 258 39 258 39 344 c 0,5,6
 39 426 39 426 67.5 493 c 128,-1,7
 96 560 96 560 148 609 c 128,-1,8
 200 658 200 658 270 685 c 128,-1,9
 340 712 340 712 424 712 c 0,10,11
 517 712 517 712 591.5 681 c 128,-1,12
 666 650 666 650 717 591 c 1,13,-1
 613 495 l 1,14,15
 575 535 575 535 530 554.5 c 128,-1,16
 485 574 485 574 432 574 c 0,17,18
 381 574 381 574 339 558 c 128,-1,19
 297 542 297 542 266.5 512 c 128,-1,20
 236 482 236 482 219.5 439.5 c 128,-1,21
 203 397 203 397 203 345 c 0,22,23
 203 290 203 290 220 248 c 128,-1,24
 237 206 237 206 266.5 178.5 c 128,-1,25
 296 151 296 151 333.5 137 c 128,-1,26
 371 123 371 123 413 123 c 0,27,28
 466 123 466 123 514 144.5 c 128,-1,29
 562 166 562 166 593 211 c 1,30,-1
 662 144 l 1,31,32
 626 63 626 63 556.5 25.5 c 128,-1,33
 487 -12 487 -12 394 -12 c 0,0,1
582 0 m 1,34,-1
 582 92 l 1,35,-1
 556 110 l 1,36,-1
 556 361 l 1,37,-1
 704 361 l 1,38,-1
 704 0 l 1,39,-1
 582 0 l 1,34,-1
EndSplineSet
Validated: 5
EndChar

StartChar: uni0193.ss01
Encoding: 65628 -1 454
Width: 787
GlyphClass: 2
Flags: W
AnchorPoint: "Ancre-3" 417 700 basechar 0
AnchorPoint: "Ancre-0" 407 0 basechar 0
LayerCount: 2
Fore
SplineSet
579 589 m 1,0,-1
 579 671 l 2,1,2
 579 732 579 732 603 771.5 c 128,-1,3
 627 811 627 811 666 831 c 128,-1,4
 705 851 705 851 752.5 851.5 c 128,-1,5
 800 852 800 852 846 833 c 1,6,-1
 810 721 l 1,7,8
 789 730 789 730 767 726 c 128,-1,9
 745 722 745 722 731 707 c 128,-1,10
 717 692 717 692 717 665 c 2,11,-1
 717 591 l 1,12,-1
 579 589 l 1,0,-1
394 -12 m 0,13,14
 323 -12 323 -12 259 11 c 128,-1,15
 195 34 195 34 145 79.5 c 128,-1,16
 95 125 95 125 67 191.5 c 128,-1,17
 39 258 39 258 39 344 c 0,18,19
 39 426 39 426 67.5 493 c 128,-1,20
 96 560 96 560 148 609 c 128,-1,21
 200 658 200 658 270 685 c 128,-1,22
 340 712 340 712 424 712 c 0,23,24
 517 712 517 712 591.5 681 c 128,-1,25
 666 650 666 650 717 591 c 1,26,-1
 613 495 l 1,27,28
 575 535 575 535 530 554.5 c 128,-1,29
 485 574 485 574 432 574 c 0,30,31
 381 574 381 574 339 558 c 128,-1,32
 297 542 297 542 266.5 512 c 128,-1,33
 236 482 236 482 219.5 439.5 c 128,-1,34
 203 397 203 397 203 345 c 0,35,36
 203 290 203 290 220 248 c 128,-1,37
 237 206 237 206 266.5 178.5 c 128,-1,38
 296 151 296 151 333.5 137 c 128,-1,39
 371 123 371 123 413 123 c 0,40,41
 466 123 466 123 514 144.5 c 128,-1,42
 562 166 562 166 593 211 c 1,43,-1
 662 144 l 1,44,45
 626 63 626 63 556.5 25.5 c 128,-1,46
 487 -12 487 -12 394 -12 c 0,13,14
582 0 m 1,47,-1
 582 92 l 1,48,-1
 556 110 l 1,49,-1
 556 361 l 1,50,-1
 704 361 l 1,51,-1
 704 0 l 1,52,-1
 582 0 l 1,47,-1
EndSplineSet
Validated: 37
EndChar

StartChar: uni01E4.ss01
Encoding: 65630 -1 456
Width: 816
GlyphClass: 2
Flags: W
AnchorPoint: "Ancre-3" 417 700 basechar 0
AnchorPoint: "Ancre-0" 407 0 basechar 0
LayerCount: 2
Fore
SplineSet
394 -12 m 0,0,1
 323 -12 323 -12 259 11 c 128,-1,2
 195 34 195 34 145 79.5 c 128,-1,3
 95 125 95 125 67 191.5 c 128,-1,4
 39 258 39 258 39 344 c 0,5,6
 39 426 39 426 67.5 493 c 128,-1,7
 96 560 96 560 148 609 c 128,-1,8
 200 658 200 658 270 685 c 128,-1,9
 340 712 340 712 424 712 c 0,10,11
 517 712 517 712 591.5 681 c 128,-1,12
 666 650 666 650 717 591 c 1,13,-1
 613 495 l 1,14,15
 575 535 575 535 530 554.5 c 128,-1,16
 485 574 485 574 432 574 c 0,17,18
 381 574 381 574 339 558 c 128,-1,19
 297 542 297 542 266.5 512 c 128,-1,20
 236 482 236 482 219.5 439.5 c 128,-1,21
 203 397 203 397 203 345 c 0,22,23
 203 290 203 290 220 248 c 128,-1,24
 237 206 237 206 266.5 178.5 c 128,-1,25
 296 151 296 151 333.5 137 c 128,-1,26
 371 123 371 123 413 123 c 0,27,28
 466 123 466 123 514 144.5 c 128,-1,29
 562 166 562 166 593 211 c 1,30,-1
 662 144 l 1,31,32
 626 63 626 63 556.5 25.5 c 128,-1,33
 487 -12 487 -12 394 -12 c 0,0,1
582 0 m 1,34,-1
 582 92 l 1,35,-1
 556 110 l 1,36,-1
 556 361 l 1,37,-1
 704 361 l 1,38,-1
 704 0 l 1,39,-1
 582 0 l 1,34,-1
424 208 m 1,40,-1
 424 317 l 1,41,-1
 792 317 l 1,42,-1
 792 208 l 1,43,-1
 424 208 l 1,40,-1
EndSplineSet
Validated: 5
EndChar

StartChar: I.ss01
Encoding: 65631 -1 457
Width: 483
GlyphClass: 2
Flags: W
AnchorPoint: "Ancre-3" 242 700 basechar 0
AnchorPoint: "Ancre-2" 333 0 basechar 0
AnchorPoint: "Ancre-0" 242 0 basechar 0
LayerCount: 2
Fore
SplineSet
161 17 m 1,0,-1
 161 684 l 1,1,-1
 323 684 l 1,2,-1
 323 17 l 1,3,-1
 161 17 l 1,0,-1
39 0 m 1,4,-1
 39 129 l 1,5,-1
 444 129 l 1,6,-1
 444 0 l 1,7,-1
 39 0 l 1,4,-1
39 571 m 1,8,-1
 39 700 l 1,9,-1
 444 700 l 1,10,-1
 444 571 l 1,11,-1
 39 571 l 1,8,-1
EndSplineSet
Validated: 5
EndChar

StartChar: IJ.ss01
Encoding: 65632 -1 458
Width: 724
GlyphClass: 2
Flags: W
AnchorPoint: "Ancre-3" 168 700 basechar 0
LayerCount: 2
Fore
SplineSet
327 -109 m 0,0,1
 248 -109 248 -109 179.5 -88 c 128,-1,2
 111 -67 111 -67 61 -32 c 1,3,-1
 122 90 l 1,4,5
 168 58 168 58 221 42 c 128,-1,6
 274 26 274 26 324 26 c 0,7,8
 404 26 404 26 444.5 70 c 128,-1,9
 485 114 485 114 485 208 c 2,10,-1
 485 700 l 1,11,-1
 647 700 l 1,12,-1
 647 218 l 2,13,14
 647 111 647 111 607 38 c 128,-1,15
 567 -35 567 -35 495.5 -72 c 128,-1,16
 424 -109 424 -109 327 -109 c 0,0,1
77 222 m 1,17,-1
 77 700 l 1,18,-1
 239 700 l 1,19,-1
 239 222 l 1,20,-1
 77 222 l 1,17,-1
EndSplineSet
Validated: 1
EndChar

StartChar: Iogonek.ss01
Encoding: 65645 -1 471
Width: 483
GlyphClass: 2
Flags: W
AnchorPoint: "Ancre-3" 242 700 basechar 0
AnchorPoint: "Ancre-2" 333 0 basechar 0
AnchorPoint: "Ancre-0" 242 0 basechar 0
LayerCount: 2
Fore
SplineSet
161 17 m 1,0,-1
 161 684 l 1,1,-1
 323 684 l 1,2,-1
 323 17 l 1,3,-1
 161 17 l 1,0,-1
253 -232 m 0,4,5
 214 -232 214 -232 183 -219 c 128,-1,6
 152 -206 152 -206 133.5 -181 c 128,-1,7
 115 -156 115 -156 115 -120 c 0,8,9
 115 -89 115 -89 130 -59 c 128,-1,10
 145 -29 145 -29 172 -3.5 c 128,-1,11
 199 22 199 22 234 40 c 1,12,-1
 297 0 l 1,13,14
 255 -28 255 -28 234.5 -55 c 128,-1,15
 214 -82 214 -82 214 -106 c 256,16,17
 214 -130 214 -130 230.5 -141.5 c 128,-1,18
 247 -153 247 -153 272 -153 c 0,19,20
 289 -153 289 -153 304.5 -148.5 c 128,-1,21
 320 -144 320 -144 332 -138 c 1,22,-1
 355 -209 l 1,23,24
 335 -220 335 -220 308 -226 c 128,-1,25
 281 -232 281 -232 253 -232 c 0,4,5
39 0 m 1,26,-1
 39 130 l 1,27,-1
 444 130 l 1,28,-1
 444 0 l 1,29,-1
 39 0 l 1,26,-1
39 570 m 1,30,-1
 39 700 l 1,31,-1
 444 700 l 1,32,-1
 444 570 l 1,33,-1
 39 570 l 1,30,-1
EndSplineSet
Validated: 5
EndChar

StartChar: uni0197.ss01
Encoding: 65646 -1 472
Width: 483
GlyphClass: 2
Flags: W
AnchorPoint: "Ancre-3" 242 700 basechar 0
AnchorPoint: "Ancre-2" 333 0 basechar 0
AnchorPoint: "Ancre-0" 242 0 basechar 0
LayerCount: 2
Fore
SplineSet
161 17 m 1,0,-1
 161 684 l 1,1,-1
 323 684 l 1,2,-1
 323 17 l 1,3,-1
 161 17 l 1,0,-1
39 0 m 1,4,-1
 39 129 l 1,5,-1
 444 129 l 1,6,-1
 444 0 l 1,7,-1
 39 0 l 1,4,-1
39 571 m 1,8,-1
 39 700 l 1,9,-1
 444 700 l 1,10,-1
 444 571 l 1,11,-1
 39 571 l 1,8,-1
73 303 m 1,12,-1
 73 412 l 1,13,-1
 412 412 l 1,14,-1
 412 303 l 1,15,-1
 73 303 l 1,12,-1
EndSplineSet
Validated: 5
EndChar

StartChar: J.ss01
Encoding: 65649 -1 475
Width: 540
GlyphClass: 2
Flags: W
AnchorPoint: "Ancre-3" 260 700 basechar 0
LayerCount: 2
Fore
SplineSet
210 -112 m 0,0,1
 139 -112 139 -112 80.5 -85.5 c 128,-1,2
 22 -59 22 -59 -16 -10 c 1,3,-1
 72 98 l 1,4,5
 101 60 101 60 132.5 40.5 c 128,-1,6
 164 21 164 21 201 21 c 0,7,8
 301 21 301 21 301 137 c 2,9,-1
 301 570 l 1,10,-1
 56 570 l 1,11,-1
 56 700 l 1,12,-1
 463 700 l 1,13,-1
 463 146 l 2,14,15
 463 16 463 16 398.5 -48 c 128,-1,16
 334 -112 334 -112 210 -112 c 0,0,1
EndSplineSet
Validated: 1
EndChar

StartChar: uniA7B2.ss01
Encoding: 65651 -1 477
Width: 540
GlyphClass: 2
Flags: W
AnchorPoint: "Ancre-3" 260 700 basechar 0
LayerCount: 2
Fore
SplineSet
221 -110 m 0,0,1
 158 -110 158 -110 112.5 -89.5 c 128,-1,2
 67 -69 67 -69 43 -33 c 128,-1,3
 19 3 19 3 19 47 c 0,4,5
 19 87 19 87 40.5 123 c 128,-1,6
 62 159 62 159 110.5 182.5 c 128,-1,7
 159 206 159 206 236 206 c 2,8,-1
 539 206 l 1,9,-1
 539 100 l 1,10,-1
 252 100 l 2,11,12
 213 100 213 100 191 91.5 c 128,-1,13
 169 83 169 83 160.5 70.5 c 128,-1,14
 152 58 152 58 152 46 c 256,15,16
 152 34 152 34 159.5 23.5 c 128,-1,17
 167 13 167 13 181.5 6.5 c 128,-1,18
 196 0 196 0 216 0 c 0,19,20
 238 0 238 0 257.5 9 c 128,-1,21
 277 18 277 18 289 39.5 c 128,-1,22
 301 61 301 61 301 96 c 2,23,-1
 301 570 l 1,24,-1
 56 570 l 1,25,-1
 56 700 l 1,26,-1
 463 700 l 1,27,-1
 463 115 l 2,28,29
 463 36 463 36 428.5 -13.5 c 128,-1,30
 394 -63 394 -63 338.5 -86.5 c 128,-1,31
 283 -110 283 -110 221 -110 c 0,0,1
EndSplineSet
Validated: 5
EndChar

StartChar: uni0248.ss01
Encoding: 65652 -1 478
Width: 540
GlyphClass: 2
Flags: W
AnchorPoint: "Ancre-3" 260 700 basechar 0
LayerCount: 2
Fore
SplineSet
210 -112 m 0,0,1
 139 -112 139 -112 80.5 -85.5 c 128,-1,2
 22 -59 22 -59 -16 -10 c 1,3,-1
 72 98 l 1,4,5
 101 60 101 60 132.5 40.5 c 128,-1,6
 164 21 164 21 201 21 c 0,7,8
 301 21 301 21 301 137 c 2,9,-1
 301 570 l 1,10,-1
 56 570 l 1,11,-1
 56 700 l 1,12,-1
 463 700 l 1,13,-1
 463 146 l 2,14,15
 463 16 463 16 398.5 -48 c 128,-1,16
 334 -112 334 -112 210 -112 c 0,0,1
169 303 m 1,17,-1
 169 412 l 1,18,-1
 551 412 l 1,19,-1
 551 303 l 1,20,-1
 169 303 l 1,17,-1
EndSplineSet
Validated: 5
EndChar

StartChar: M.ss01
Encoding: 65654 -1 480
Width: 1221
GlyphClass: 2
Flags: W
AnchorPoint: "Ancre-3" 609 700 basechar 0
AnchorPoint: "Ancre-0" 611 0 basechar 0
LayerCount: 2
Fore
SplineSet
83 0 m 1,0,-1
 83 700 l 1,1,-1
 240 700 l 1,2,-1
 240 548 l 1,3,-1
 218 573 l 1,4,5
 244 639 244 639 303.5 675.5 c 128,-1,6
 363 712 363 712 447 712 c 0,7,8
 536 712 536 712 595.5 672 c 128,-1,9
 655 632 655 632 678 561 c 1,10,-1
 631 565 l 1,11,12
 661 636 661 636 728 674 c 128,-1,13
 795 712 795 712 882 712 c 0,14,15
 1004 712 1004 712 1074 640.5 c 128,-1,16
 1144 569 1144 569 1144 430 c 2,17,-1
 1144 0 l 1,18,-1
 982 0 l 1,19,-1
 982 425 l 2,20,21
 982 502 982 502 942.5 538 c 128,-1,22
 903 574 903 574 842 574 c 0,23,24
 776 574 776 574 733.5 536 c 128,-1,25
 691 498 691 498 691 415 c 2,26,-1
 691 0 l 1,27,-1
 529 0 l 1,28,-1
 529 425 l 2,29,30
 529 502 529 502 492 538 c 128,-1,31
 455 574 455 574 395 574 c 0,32,33
 353 574 353 574 318.5 557.5 c 128,-1,34
 284 541 284 541 264.5 506 c 128,-1,35
 245 471 245 471 245 415 c 2,36,-1
 245 0 l 1,37,-1
 83 0 l 1,0,-1
EndSplineSet
Validated: 5
EndChar

StartChar: N.ss01
Encoding: 65656 -1 482
Width: 796
GlyphClass: 2
Flags: W
AnchorPoint: "Ancre-3" 401 700 basechar 0
AnchorPoint: "Ancre-0" 401 0 basechar 0
LayerCount: 2
Fore
SplineSet
83 0 m 1,0,-1
 83 700 l 1,1,-1
 240 700 l 1,2,-1
 240 526 l 1,3,-1
 206 554 l 1,4,5
 239 634 239 634 302 673 c 128,-1,6
 365 712 365 712 454 712 c 0,7,8
 579 712 579 712 649 634 c 128,-1,9
 719 556 719 556 719 410 c 2,10,-1
 719 0 l 1,11,-1
 557 0 l 1,12,-1
 557 405 l 2,13,14
 557 491 557 491 516.5 532.5 c 128,-1,15
 476 574 476 574 408 574 c 0,16,17
 337 574 337 574 291 530.5 c 128,-1,18
 245 487 245 487 245 394 c 2,19,-1
 245 0 l 1,20,-1
 83 0 l 1,0,-1
EndSplineSet
Validated: 5
EndChar

StartChar: Eng.ss01
Encoding: 65668 -1 494
Width: 796
GlyphClass: 2
Flags: W
AnchorPoint: "Ancre-3" 454 700 basechar 0
AnchorPoint: "Ancre-0" 398 -194 basechar 0
LayerCount: 2
Fore
SplineSet
468 -202 m 0,0,1
 412 -202 412 -202 364 -185.5 c 128,-1,2
 316 -169 316 -169 279 -136 c 1,3,-1
 355 -20 l 1,4,5
 376 -42 376 -42 402 -54 c 128,-1,6
 428 -66 428 -66 459 -66 c 0,7,8
 557 -66 557 -66 557 50 c 2,9,-1
 557 405 l 2,10,11
 557 491 557 491 516.5 532.5 c 128,-1,12
 476 574 476 574 408 574 c 0,13,14
 337 574 337 574 291 530.5 c 128,-1,15
 245 487 245 487 245 394 c 2,16,-1
 245 0 l 1,17,-1
 83 0 l 1,18,-1
 83 700 l 1,19,-1
 240 700 l 1,20,-1
 240 526 l 1,21,-1
 206 554 l 1,22,23
 239 634 239 634 302 673 c 128,-1,24
 365 712 365 712 454 712 c 0,25,26
 579 712 579 712 649 634 c 128,-1,27
 719 556 719 556 719 410 c 2,28,-1
 719 57 l 2,29,30
 719 -73 719 -73 654.5 -137.5 c 128,-1,31
 590 -202 590 -202 468 -202 c 0,0,1
EndSplineSet
Validated: 5
EndChar

StartChar: Q.ss01
Encoding: 65669 -1 495
Width: 844
GlyphClass: 1
Flags: W
LayerCount: 2
Fore
SplineSet
422 -12 m 0,0,1
 340 -12 340 -12 269.5 15 c 128,-1,2
 199 42 199 42 147.5 91 c 128,-1,3
 96 140 96 140 67.5 206 c 128,-1,4
 39 272 39 272 39 350 c 256,5,6
 39 428 39 428 67.5 494 c 128,-1,7
 96 560 96 560 148 609 c 128,-1,8
 200 658 200 658 270 685 c 128,-1,9
 340 712 340 712 422 712 c 0,10,11
 505 712 505 712 574.5 685 c 128,-1,12
 644 658 644 658 695.5 609.5 c 128,-1,13
 747 561 747 561 776 495 c 128,-1,14
 805 429 805 429 805 350 c 0,15,16
 805 272 805 272 776 206 c 128,-1,17
 747 140 747 140 695.5 91 c 128,-1,18
 644 42 644 42 574.5 15 c 128,-1,19
 505 -12 505 -12 422 -12 c 0,0,1
340 -135 m 1,20,-1
 340 18 l 1,21,-1
 346 67 l 1,22,-1
 346 281 l 1,23,-1
 496 281 l 1,24,-1
 496 67 l 1,25,-1
 503 18 l 1,26,-1
 503 -135 l 1,27,-1
 340 -135 l 1,20,-1
422 126 m 256,28,29
 471 126 471 126 511 142 c 128,-1,30
 551 158 551 158 580 188 c 128,-1,31
 609 218 609 218 625 259 c 128,-1,32
 641 300 641 300 641 350 c 256,33,34
 641 400 641 400 624.5 441 c 128,-1,35
 608 482 608 482 578 512 c 128,-1,36
 548 542 548 542 508.5 558 c 128,-1,37
 469 574 469 574 422 574 c 256,38,39
 375 574 375 574 335 558 c 128,-1,40
 295 542 295 542 265.5 512 c 128,-1,41
 236 482 236 482 219.5 441 c 128,-1,42
 203 400 203 400 203 350 c 256,43,44
 203 300 203 300 219 259 c 128,-1,45
 235 218 235 218 264 188 c 128,-1,46
 293 158 293 158 333 142 c 128,-1,47
 373 126 373 126 422 126 c 256,28,29
EndSplineSet
Validated: 5
EndChar

StartChar: T.ss01
Encoding: 65670 -1 496
Width: 638
GlyphClass: 2
Flags: W
AnchorPoint: "Ancre-3" 322 700 basechar 0
AnchorPoint: "Ancre-1" 319 342 basechar 0
AnchorPoint: "Ancre-0" 319 0 basechar 0
LayerCount: 2
Fore
SplineSet
44 504 m 1,0,-1
 -11 625 l 1,1,2
 62 669 62 669 146.5 690.5 c 128,-1,3
 231 712 231 712 318 712 c 0,4,5
 406 712 406 712 491 690.5 c 128,-1,6
 576 669 576 669 648 625 c 1,7,-1
 593 504 l 1,8,9
 531 540 531 540 463 558 c 128,-1,10
 395 576 395 576 318 576 c 0,11,12
 242 576 242 576 174.5 558 c 128,-1,13
 107 540 107 540 44 504 c 1,0,-1
238 0 m 1,14,-1
 238 632 l 1,15,-1
 400 632 l 1,16,-1
 400 0 l 1,17,-1
 238 0 l 1,14,-1
EndSplineSet
Validated: 5
EndChar

StartChar: Tbar.ss01
Encoding: 65671 -1 497
Width: 638
GlyphClass: 2
Flags: W
AnchorPoint: "Ancre-3" 322 700 basechar 0
AnchorPoint: "Ancre-1" 319 342 basechar 0
AnchorPoint: "Ancre-0" 319 0 basechar 0
LayerCount: 2
Fore
SplineSet
44 504 m 1,0,-1
 -11 625 l 1,1,2
 62 669 62 669 146.5 690.5 c 128,-1,3
 231 712 231 712 318 712 c 0,4,5
 406 712 406 712 491 690.5 c 128,-1,6
 576 669 576 669 648 625 c 1,7,-1
 593 504 l 1,8,9
 531 540 531 540 463 558 c 128,-1,10
 395 576 395 576 318 576 c 0,11,12
 242 576 242 576 174.5 558 c 128,-1,13
 107 540 107 540 44 504 c 1,0,-1
238 0 m 1,14,-1
 238 632 l 1,15,-1
 400 632 l 1,16,-1
 400 0 l 1,17,-1
 238 0 l 1,14,-1
105 287 m 1,18,-1
 105 396 l 1,19,-1
 533 396 l 1,20,-1
 533 287 l 1,21,-1
 105 287 l 1,18,-1
EndSplineSet
Validated: 5
EndChar

StartChar: uni023E.ss01
Encoding: 65676 -1 502
Width: 638
GlyphClass: 2
Flags: W
AnchorPoint: "Ancre-3" 320 700 basechar 0
AnchorPoint: "Ancre-1" 320 329 basechar 0
AnchorPoint: "Ancre-0" 320 0 basechar 0
LayerCount: 2
Fore
SplineSet
118 -70 m 1,0,-1
 502 770 l 1,1,-1
 602 770 l 1,2,-1
 217 -70 l 1,3,-1
 118 -70 l 1,0,-1
44 504 m 1,4,-1
 -11 625 l 1,5,6
 62 669 62 669 146.5 690.5 c 128,-1,7
 231 712 231 712 318 712 c 0,8,9
 406 712 406 712 491 690.5 c 128,-1,10
 576 669 576 669 648 625 c 1,11,-1
 593 504 l 1,12,13
 531 540 531 540 463 558 c 128,-1,14
 395 576 395 576 318 576 c 0,15,16
 242 576 242 576 174.5 558 c 128,-1,17
 107 540 107 540 44 504 c 1,4,-1
243 0 m 1,18,-1
 243 632 l 1,19,-1
 395 632 l 1,20,-1
 395 0 l 1,21,-1
 243 0 l 1,18,-1
EndSplineSet
Validated: 5
Substitution2: "sous-table 'rvrn' Required Variation Alternates lookups0" uni023E.ss01.BRACKET.varAlt01
EndChar

StartChar: uni01AC.ss01
Encoding: 65679 -1 505
Width: 677
GlyphClass: 2
Flags: W
AnchorPoint: "Ancre-3" 359 700 basechar 0
AnchorPoint: "Ancre-1" 359 328 basechar 0
AnchorPoint: "Ancre-0" 359 0 basechar 0
LayerCount: 2
Fore
SplineSet
49 344 m 1,0,1
 12 384 12 384 -2.5 432.5 c 128,-1,2
 -17 481 -17 481 -4 530.5 c 128,-1,3
 9 580 9 580 50.5 621 c 128,-1,4
 92 662 92 662 166.5 687 c 128,-1,5
 241 712 241 712 352 712 c 0,6,7
 446 712 446 712 530 691 c 128,-1,8
 614 670 614 670 688 625 c 1,9,-1
 633 504 l 1,10,11
 587 530 587 530 543.5 545.5 c 128,-1,12
 500 561 500 561 452.5 568.5 c 128,-1,13
 405 576 405 576 348 576 c 0,14,15
 259 576 259 576 209 560.5 c 128,-1,16
 159 545 159 545 141 519.5 c 128,-1,17
 123 494 123 494 129.5 463.5 c 128,-1,18
 136 433 136 433 160 403 c 1,19,-1
 49 344 l 1,0,1
277 0 m 1,20,-1
 277 632 l 1,21,-1
 440 632 l 1,22,-1
 440 0 l 1,23,-1
 277 0 l 1,20,-1
EndSplineSet
Validated: 37
EndChar

StartChar: uni01AE.ss01
Encoding: 65681 -1 507
Width: 653
GlyphClass: 2
Flags: W
AnchorPoint: "Ancre-3" 327 700 basechar 0
AnchorPoint: "Ancre-1" 327 328 basechar 0
AnchorPoint: "Ancre-0" 327 0 basechar 0
LayerCount: 2
Fore
SplineSet
580 -169 m 1,0,1
 526 -197 526 -197 468 -202.5 c 128,-1,2
 410 -208 410 -208 359.5 -189.5 c 128,-1,3
 309 -171 309 -171 277 -127 c 128,-1,4
 245 -83 245 -83 245 -12 c 2,5,-1
 245 589 l 1,6,-1
 408 589 l 1,7,-1
 408 -9 l 2,8,9
 408 -34 408 -34 419 -49.5 c 128,-1,10
 430 -65 430 -65 448 -71 c 128,-1,11
 466 -77 466 -77 489 -73 c 128,-1,12
 512 -69 512 -69 535 -55 c 1,13,-1
 580 -169 l 1,0,1
51 504 m 1,14,-1
 -4 625 l 1,15,16
 69 669 69 669 153.5 690.5 c 128,-1,17
 238 712 238 712 326 712 c 0,18,19
 413 712 413 712 498 690.5 c 128,-1,20
 583 669 583 669 655 625 c 1,21,-1
 600 504 l 1,22,23
 538 540 538 540 470 558 c 128,-1,24
 402 576 402 576 326 576 c 0,25,26
 249 576 249 576 181.5 558 c 128,-1,27
 114 540 114 540 51 504 c 1,14,-1
EndSplineSet
Validated: 37
EndChar

StartChar: uniA7B1.ss01
Encoding: 65682 -1 508
Width: 638
GlyphClass: 1
Flags: W
LayerCount: 2
Fore
SplineSet
593 196 m 1,0,-1
 648 75 l 1,1,2
 576 31 576 31 491.5 9.5 c 128,-1,3
 407 -12 407 -12 319 -12 c 256,4,5
 231 -12 231 -12 146.5 9.5 c 128,-1,6
 62 31 62 31 -11 75 c 1,7,-1
 44 196 l 1,8,9
 107 160 107 160 174.5 142 c 128,-1,10
 242 124 242 124 319 124 c 0,11,12
 395 124 395 124 462.5 142 c 128,-1,13
 530 160 530 160 593 196 c 1,0,-1
400 700 m 1,14,-1
 400 68 l 1,15,-1
 237 68 l 1,16,-1
 237 700 l 1,17,-1
 400 700 l 1,14,-1
EndSplineSet
Validated: 5
EndChar

StartChar: U.ss01
Encoding: 65683 -1 509
Width: 792
GlyphClass: 2
Flags: W
AnchorPoint: "Ancre-4" 642 700 basechar 0
AnchorPoint: "Ancre-3" 391 700 basechar 0
AnchorPoint: "Ancre-2" 709 0 basechar 0
AnchorPoint: "Ancre-1" 393 366 basechar 0
AnchorPoint: "Ancre-0" 391 0 basechar 0
LayerCount: 2
Fore
SplineSet
340 -12 m 0,0,1
 218 -12 218 -12 147.5 66 c 128,-1,2
 77 144 77 144 77 290 c 2,3,-1
 77 700 l 1,4,-1
 239 700 l 1,5,-1
 239 295 l 2,6,7
 239 209 239 209 279.5 167.5 c 128,-1,8
 320 126 320 126 386 126 c 0,9,10
 455 126 455 126 501 169.5 c 128,-1,11
 547 213 547 213 547 306 c 2,12,-1
 547 700 l 1,13,-1
 709 700 l 1,14,-1
 709 0 l 1,15,-1
 552 0 l 1,16,-1
 552 174 l 1,17,-1
 586 146 l 1,18,19
 554 66 554 66 491 27 c 128,-1,20
 428 -12 428 -12 340 -12 c 0,0,1
EndSplineSet
Validated: 5
EndChar

StartChar: uni0244.ss01
Encoding: 65685 -1 511
Width: 807
GlyphClass: 2
Flags: W
AnchorPoint: "Ancre-4" 643 700 basechar 0
AnchorPoint: "Ancre-3" 392 700 basechar 0
AnchorPoint: "Ancre-2" 710 0 basechar 0
AnchorPoint: "Ancre-1" 394 366 basechar 0
AnchorPoint: "Ancre-0" 392 0 basechar 0
LayerCount: 2
Fore
SplineSet
341 -12 m 0,0,1
 219 -12 219 -12 148.5 66 c 128,-1,2
 78 144 78 144 78 290 c 2,3,-1
 78 700 l 1,4,-1
 240 700 l 1,5,-1
 240 295 l 2,6,7
 240 209 240 209 280.5 167.5 c 128,-1,8
 321 126 321 126 387 126 c 0,9,10
 456 126 456 126 502 169.5 c 128,-1,11
 548 213 548 213 548 306 c 2,12,-1
 548 700 l 1,13,-1
 710 700 l 1,14,-1
 710 0 l 1,15,-1
 553 0 l 1,16,-1
 553 174 l 1,17,-1
 587 146 l 1,18,19
 555 66 555 66 492 27 c 128,-1,20
 429 -12 429 -12 341 -12 c 0,0,1
-10 303 m 1,21,-1
 -10 412 l 1,22,-1
 799 412 l 1,23,-1
 799 303 l 1,24,-1
 -10 303 l 1,21,-1
EndSplineSet
Validated: 5
EndChar

StartChar: W.ss01
Encoding: 65715 -1 541
Width: 1201
GlyphClass: 2
Flags: W
AnchorPoint: "Ancre-3" 600 700 basechar 0
AnchorPoint: "Ancre-0" 601 0 basechar 0
LayerCount: 2
Fore
SplineSet
380 -12 m 0,0,1
 236 -12 236 -12 156.5 64 c 128,-1,2
 77 140 77 140 77 287 c 2,3,-1
 77 700 l 1,4,-1
 239 700 l 1,5,-1
 239 292 l 2,6,7
 239 205 239 205 275 165.5 c 128,-1,8
 311 126 311 126 378 126 c 256,9,10
 445 126 445 126 482 165.5 c 128,-1,11
 519 205 519 205 519 292 c 2,12,-1
 519 700 l 1,13,-1
 681 700 l 1,14,-1
 681 292 l 2,15,16
 681 205 681 205 718 165.5 c 128,-1,17
 755 126 755 126 823 126 c 0,18,19
 889 126 889 126 925 165.5 c 128,-1,20
 961 205 961 205 961 292 c 2,21,-1
 961 700 l 1,22,-1
 1124 700 l 1,23,-1
 1124 287 l 2,24,25
 1124 140 1124 140 1044.5 64 c 128,-1,26
 965 -12 965 -12 821 -12 c 0,27,28
 730 -12 730 -12 666.5 20.5 c 128,-1,29
 603 53 603 53 571 106 c 1,30,-1
 629 106 l 1,31,32
 597 53 597 53 534 20.5 c 128,-1,33
 471 -12 471 -12 380 -12 c 0,0,1
EndSplineSet
Validated: 5
EndChar

StartChar: uni2C72.ss01
Encoding: 65722 -1 548
Width: 1210
GlyphClass: 2
Flags: W
AnchorPoint: "Ancre-3" 600 700 basechar 0
AnchorPoint: "Ancre-0" 601 0 basechar 0
LayerCount: 2
Fore
SplineSet
1124 567 m 2,0,-1
 1124 287 l 2,1,2
 1124 140 1124 140 1044.5 64 c 128,-1,3
 965 -12 965 -12 821 -12 c 0,4,5
 730 -12 730 -12 666.5 20.5 c 128,-1,6
 603 53 603 53 571 106 c 1,7,-1
 629 106 l 1,8,9
 597 53 597 53 534 20.5 c 128,-1,10
 471 -12 471 -12 380 -12 c 0,11,12
 236 -12 236 -12 156.5 64 c 128,-1,13
 77 140 77 140 77 287 c 2,14,-1
 77 700 l 1,15,-1
 239 700 l 1,16,-1
 239 292 l 2,17,18
 239 205 239 205 275 165.5 c 128,-1,19
 311 126 311 126 378 126 c 256,20,21
 445 126 445 126 482 165.5 c 128,-1,22
 519 205 519 205 519 292 c 2,23,-1
 519 700 l 1,24,-1
 681 700 l 1,25,-1
 681 292 l 2,26,27
 681 205 681 205 718 165.5 c 128,-1,28
 755 126 755 126 823 126 c 0,29,30
 889 126 889 126 925 165.5 c 128,-1,31
 961 205 961 205 961 292 c 2,32,-1
 961 567 l 2,33,34
 961 620 961 620 979.5 657.5 c 128,-1,35
 998 695 998 695 1029 718 c 128,-1,36
 1060 741 1060 741 1098.5 750 c 128,-1,37
 1137 759 1137 759 1177.5 755.5 c 128,-1,38
 1218 752 1218 752 1255 737 c 1,39,-1
 1219 625 l 1,40,41
 1195 634 1195 634 1173.5 630 c 128,-1,42
 1152 626 1152 626 1138 610 c 128,-1,43
 1124 594 1124 594 1124 567 c 2,0,-1
EndSplineSet
Validated: 37
EndChar

StartChar: Y.ss01
Encoding: 65723 -1 549
Width: 785
GlyphClass: 2
Flags: W
AnchorPoint: "Ancre-3" 390 700 basechar 0
AnchorPoint: "Ancre-2" 451 -100 basechar 0
AnchorPoint: "Ancre-0" 671 0 basechar 0
LayerCount: 2
Fore
SplineSet
377 -108 m 0,0,1
 283 -108 283 -108 208.5 -81.5 c 128,-1,2
 134 -55 134 -55 83 -9 c 1,3,-1
 151 106 l 1,4,5
 199 68 199 68 255 48.5 c 128,-1,6
 311 29 311 29 373 29 c 0,7,8
 461 29 461 29 503.5 73 c 128,-1,9
 546 117 546 117 546 211 c 2,10,-1
 546 343 l 1,11,-1
 584 318 l 1,12,13
 551 241 551 241 490.5 204.5 c 128,-1,14
 430 168 430 168 348 168 c 0,15,16
 216 168 216 168 144 243.5 c 128,-1,17
 72 319 72 319 72 461 c 2,18,-1
 72 700 l 1,19,-1
 234 700 l 1,20,-1
 234 471 l 2,21,22
 234 387 234 387 273.5 346 c 128,-1,23
 313 305 313 305 383 305 c 0,24,25
 454 305 454 305 500 347 c 128,-1,26
 546 389 546 389 546 482 c 2,27,-1
 546 700 l 1,28,-1
 708 700 l 1,29,-1
 708 219 l 2,30,31
 708 113 708 113 668 40 c 128,-1,32
 628 -33 628 -33 553.5 -70.5 c 128,-1,33
 479 -108 479 -108 377 -108 c 0,0,1
EndSplineSet
Validated: 5
EndChar

StartChar: uni01B3.ss01
Encoding: 65730 -1 556
Width: 795
GlyphClass: 2
Flags: W
AnchorPoint: "Ancre-3" 390 700 basechar 0
AnchorPoint: "Ancre-0" 671 0 basechar 0
LayerCount: 2
Fore
SplineSet
377 -108 m 0,0,1
 284 -108 284 -108 209.5 -82 c 128,-1,2
 135 -56 135 -56 84 -11 c 1,3,-1
 153 105 l 1,4,5
 199 68 199 68 255 48.5 c 128,-1,6
 311 29 311 29 373 29 c 0,7,8
 461 29 461 29 503.5 73 c 128,-1,9
 546 117 546 117 546 211 c 2,10,-1
 546 343 l 1,11,-1
 584 318 l 1,12,13
 551 241 551 241 490.5 204.5 c 128,-1,14
 430 168 430 168 348 168 c 0,15,16
 216 168 216 168 144 243.5 c 128,-1,17
 72 319 72 319 72 461 c 2,18,-1
 72 700 l 1,19,-1
 234 700 l 1,20,-1
 234 471 l 2,21,22
 234 387 234 387 273.5 346 c 128,-1,23
 313 305 313 305 383 305 c 0,24,25
 454 305 454 305 500 347 c 128,-1,26
 546 389 546 389 546 482 c 2,27,-1
 546 567 l 2,28,29
 546 620 546 620 564.5 657.5 c 128,-1,30
 583 695 583 695 614 718 c 128,-1,31
 645 741 645 741 683.5 750 c 128,-1,32
 722 759 722 759 762.5 755.5 c 128,-1,33
 803 752 803 752 840 737 c 1,34,-1
 804 625 l 1,35,36
 780 634 780 634 758 630 c 128,-1,37
 736 626 736 626 722 610 c 128,-1,38
 708 594 708 594 708 567 c 2,39,-1
 708 219 l 2,40,41
 708 113 708 113 668 40 c 128,-1,42
 628 -33 628 -33 553.5 -70.5 c 128,-1,43
 479 -108 479 -108 377 -108 c 0,0,1
EndSplineSet
Validated: 37
EndChar

StartChar: uni024E.ss01
Encoding: 65733 -1 559
Width: 785
GlyphClass: 2
Flags: W
AnchorPoint: "Ancre-3" 390 700 basechar 0
AnchorPoint: "Ancre-0" 671 0 basechar 0
LayerCount: 2
Fore
SplineSet
377 -108 m 0,0,1
 283 -108 283 -108 208.5 -81.5 c 128,-1,2
 134 -55 134 -55 83 -9 c 1,3,-1
 151 106 l 1,4,5
 199 68 199 68 255 48.5 c 128,-1,6
 311 29 311 29 373 29 c 0,7,8
 461 29 461 29 503.5 73 c 128,-1,9
 546 117 546 117 546 211 c 2,10,-1
 546 343 l 1,11,-1
 584 318 l 1,12,13
 551 241 551 241 490.5 204.5 c 128,-1,14
 430 168 430 168 348 168 c 0,15,16
 216 168 216 168 144 243.5 c 128,-1,17
 72 319 72 319 72 461 c 2,18,-1
 72 700 l 1,19,-1
 234 700 l 1,20,-1
 234 471 l 2,21,22
 234 387 234 387 273.5 346 c 128,-1,23
 313 305 313 305 383 305 c 0,24,25
 454 305 454 305 500 347 c 128,-1,26
 546 389 546 389 546 482 c 2,27,-1
 546 700 l 1,28,-1
 708 700 l 1,29,-1
 708 219 l 2,30,31
 708 113 708 113 668 40 c 128,-1,32
 628 -33 628 -33 553.5 -70.5 c 128,-1,33
 479 -108 479 -108 377 -108 c 0,0,1
-16 499 m 1,34,-1
 -16 608 l 1,35,-1
 797 608 l 1,36,-1
 797 499 l 1,37,-1
 -16 499 l 1,34,-1
EndSplineSet
Validated: 5
EndChar

StartChar: Z.ss01
Encoding: 65735 -1 561
Width: 681
GlyphClass: 2
Flags: W
AnchorPoint: "Ancre-3" 348 700 basechar 0
AnchorPoint: "Ancre-0" 351 0 basechar 0
LayerCount: 2
Fore
SplineSet
43 0 m 1,0,-1
 43 94 l 1,1,-1
 474 619 l 1,2,-1
 495 570 l 1,3,-1
 50 570 l 1,4,-1
 50 700 l 1,5,-1
 640 700 l 1,6,-1
 640 607 l 1,7,-1
 209 81 l 1,8,-1
 188 130 l 1,9,-1
 655 130 l 1,10,-1
 655 0 l 1,11,-1
 43 0 l 1,0,-1
333 294 m 1,12,-1
 291 296 l 1,13,-1
 98 296 l 1,14,-1
 98 417 l 1,15,-1
 368 417 l 1,16,-1
 410 414 l 1,17,-1
 584 414 l 1,18,-1
 584 294 l 1,19,-1
 333 294 l 1,12,-1
EndSplineSet
Validated: 5
EndChar

StartChar: uni01B2.loclTOD0.ss01
Encoding: 65746 -1 572
Width: 761
GlyphClass: 2
Flags: W
AnchorPoint: "Ancre-3" 373 700 basechar 0
AnchorPoint: "Ancre-0" 373 0 basechar 0
LayerCount: 2
Fore
SplineSet
294 0 m 1,0,-1
 -9 700 l 1,1,-1
 166 700 l 1,2,-1
 412 120 l 1,3,-1
 344 120 l 1,4,-1
 606 729 l 2,5,6
 630 786 630 786 663 819 c 128,-1,7
 696 852 696 852 734 863.5 c 128,-1,8
 772 875 772 875 812 868.5 c 128,-1,9
 852 862 852 862 888 840 c 1,10,-1
 838 723 l 1,11,12
 810 738 810 738 785 728.5 c 128,-1,13
 760 719 760 719 744 683 c 2,14,-1
 453 0 l 1,15,-1
 294 0 l 1,0,-1
EndSplineSet
Validated: 37
EndChar

StartChar: T_h
Encoding: 65747 -1 573
Width: 1243
GlyphClass: 3
LigCaretCntFixed: 1
Flags: W
AnchorPoint: "Ancre-8" 311 700 baselig 0
AnchorPoint: "Ancre-6" 311 350 baselig 0
AnchorPoint: "Ancre-5" 311 0 baselig 0
AnchorPoint: "Ancre-8" 932 700 baselig 1
AnchorPoint: "Ancre-5" 932 0 baselig 1
AnchorPoint: "Ancre-6" 932 350 baselig 1
LayerCount: 2
Fore
SplineSet
228 0 m 1,0,-1
 228 568 l 1,1,-1
 4 568 l 1,2,-1
 4 700 l 1,3,-1
 646 700 l 1,4,-1
 646 568 l 1,5,-1
 390 568 l 1,6,-1
 390 0 l 1,7,-1
 228 0 l 1,0,-1
625 0 m 1,8,-1
 625 700 l 1,9,-1
 781 700 l 1,10,-1
 781 389 l 1,11,-1
 746 434 l 1,12,13
 775 488 775 488 828.5 517 c 128,-1,14
 882 546 882 546 951 546 c 0,15,16
 1015 546 1015 546 1065.5 520.5 c 128,-1,17
 1116 495 1116 495 1145.5 442.5 c 128,-1,18
 1175 390 1175 390 1175 308 c 2,19,-1
 1175 0 l 1,20,-1
 1019 0 l 1,21,-1
 1019 284 l 2,22,23
 1019 349 1019 349 990 380 c 128,-1,24
 961 411 961 411 910 411 c 0,25,26
 872 411 872 411 843 395.5 c 128,-1,27
 814 380 814 380 797.5 348 c 128,-1,28
 781 316 781 316 781 266 c 2,29,-1
 781 0 l 1,30,-1
 625 0 l 1,8,-1
EndSplineSet
Validated: 5
Ligature2: "sous-table 'dlig' Ligatures facultatives  lookups50" T h
LCarets2: 1 622
EndChar

StartChar: Iacute_J.loclNLD.ss01
Encoding: 65748 -1 574
Width: 724
GlyphClass: 2
LigCaretCntFixed: 1
Flags: W
LayerCount: 2
Fore
SplineSet
327 -108 m 0,0,1
 248 -108 248 -108 179.5 -86.5 c 128,-1,2
 111 -65 111 -65 61 -29 c 1,3,-1
 122 91 l 1,4,5
 168 60 168 60 220 44 c 128,-1,6
 272 28 272 28 321 28 c 0,7,8
 402 28 402 28 443 72.5 c 128,-1,9
 484 117 484 117 484 211 c 2,10,-1
 484 700 l 1,11,-1
 647 700 l 1,12,-1
 647 219 l 2,13,14
 647 113 647 113 607 40 c 128,-1,15
 567 -33 567 -33 495.5 -70.5 c 128,-1,16
 424 -108 424 -108 327 -108 c 0,0,1
77 222 m 1,17,-1
 77 700 l 1,18,-1
 239 700 l 1,19,-1
 239 222 l 1,20,-1
 77 222 l 1,17,-1
84 757 m 1,21,-1
 218 901 l 1,22,-1
 374 901 l 1,23,-1
 193 757 l 1,24,-1
 84 757 l 1,21,-1
491 757 m 1,25,-1
 626 901 l 1,26,-1
 782 901 l 1,27,-1
 600 757 l 1,28,-1
 491 757 l 1,25,-1
EndSplineSet
Validated: 1
LCarets2: 1 363
EndChar

StartChar: uni026A
Encoding: 618 618 575
Width: 396
GlyphClass: 2
Flags: W
AnchorPoint: "Ancre-3" 198 538 basechar 0
AnchorPoint: "Ancre-2" 276 0 basechar 0
AnchorPoint: "Ancre-0" 198 0 basechar 0
LayerCount: 2
Fore
SplineSet
30 420 m 1,0,-1
 30 538 l 1,1,-1
 366 538 l 1,2,-1
 366 420 l 1,3,-1
 30 420 l 1,0,-1
30 0 m 1,4,-1
 30 118 l 1,5,-1
 366 118 l 1,6,-1
 366 0 l 1,7,-1
 30 0 l 1,4,-1
120 0 m 1,8,-1
 120 538 l 1,9,-1
 276 538 l 1,10,-1
 276 0 l 1,11,-1
 120 0 l 1,8,-1
EndSplineSet
Validated: 5
Substitution2: "sous-table 'smcp' Bas-de-casse vers petites capitales lookups48" uni026A.sc
Substitution2: "sous-table 'aalt' Activer toutes les variantes lookups2" uni026A.sc
EndChar

StartChar: uni1D7B
Encoding: 7547 7547 576
Width: 440
GlyphClass: 2
Flags: W
AnchorPoint: "Ancre-3" 220 538 basechar 0
AnchorPoint: "Ancre-2" 298 0 basechar 0
AnchorPoint: "Ancre-0" 220 0 basechar 0
LayerCount: 2
Fore
SplineSet
52 420 m 1,0,-1
 52 538 l 1,1,-1
 388 538 l 1,2,-1
 388 420 l 1,3,-1
 52 420 l 1,0,-1
52 0 m 1,4,-1
 52 118 l 1,5,-1
 388 118 l 1,6,-1
 388 0 l 1,7,-1
 52 0 l 1,4,-1
142 0 m 1,8,-1
 142 538 l 1,9,-1
 298 538 l 1,10,-1
 298 0 l 1,11,-1
 142 0 l 1,8,-1
59 229 m 1,12,-1
 59 319 l 1,13,-1
 381 319 l 1,14,-1
 381 229 l 1,15,-1
 59 229 l 1,12,-1
EndSplineSet
Validated: 5
Substitution2: "sous-table 'smcp' Bas-de-casse vers petites capitales lookups48" uni1D7B.sc
Substitution2: "sous-table 'aalt' Activer toutes les variantes lookups2" uni1D7B.sc
EndChar

StartChar: uni0274
Encoding: 628 628 577
Width: 671
GlyphClass: 2
Flags: W
AnchorPoint: "Ancre-3" 336 538 basechar 0
AnchorPoint: "Ancre-0" 336 0 basechar 0
LayerCount: 2
Fore
SplineSet
61 0 m 1,0,-1
 61 538 l 1,1,-1
 189 538 l 1,2,-1
 516 186 l 1,3,-1
 456 186 l 1,4,-1
 456 538 l 1,5,-1
 609 538 l 1,6,-1
 609 0 l 1,7,-1
 483 0 l 1,8,-1
 156 355 l 1,9,-1
 215 355 l 1,10,-1
 215 0 l 1,11,-1
 61 0 l 1,0,-1
EndSplineSet
Validated: 5
Substitution2: "sous-table 'smcp' Bas-de-casse vers petites capitales lookups48" uni0274.sc
Substitution2: "sous-table 'aalt' Activer toutes les variantes lookups2" uni0274.sc
EndChar

StartChar: uni0280
Encoding: 640 640 578
Width: 625
GlyphClass: 2
Flags: W
AnchorPoint: "Ancre-3" 323 538 basechar 0
AnchorPoint: "Ancre-0" 323 0 basechar 0
LayerCount: 2
Fore
SplineSet
72 0 m 1,0,-1
 72 538 l 1,1,-1
 334 538 l 2,2,3
 454 538 454 538 522.5 484.5 c 128,-1,4
 591 431 591 431 591 340 c 0,5,6
 591 280 591 280 559.5 235.5 c 128,-1,7
 528 191 528 191 470.5 167.5 c 128,-1,8
 413 144 413 144 334 144 c 2,9,-1
 159 144 l 1,10,-1
 228 209 l 1,11,-1
 228 0 l 1,12,-1
 72 0 l 1,0,-1
434 0 m 1,13,-1
 289 197 l 1,14,-1
 456 197 l 1,15,-1
 602 0 l 1,16,-1
 434 0 l 1,13,-1
228 191 m 1,17,-1
 159 265 l 1,18,-1
 327 265 l 2,19,20
 379 265 379 265 406 284 c 128,-1,21
 433 303 433 303 433 340 c 256,22,23
 433 377 433 377 406 396.5 c 128,-1,24
 379 416 379 416 327 416 c 2,25,-1
 159 416 l 1,26,-1
 228 486 l 1,27,-1
 228 191 l 1,17,-1
EndSplineSet
Validated: 5
Substitution2: "sous-table 'smcp' Bas-de-casse vers petites capitales lookups48" uni0280.sc
Substitution2: "sous-table 'aalt' Activer toutes les variantes lookups2" uni0280.sc
EndChar

StartChar: a
Encoding: 97 97 580
Width: 617
GlyphClass: 2
Flags: W
AnchorPoint: "Ancre-3" 305 538 basechar 0
AnchorPoint: "Ancre-2" 548 0 basechar 0
AnchorPoint: "Ancre-0" 293 0 basechar 0
LayerCount: 2
Fore
SplineSet
402 0 m 1,0,-1
 402 105 l 1,1,-1
 392 128 l 1,2,-1
 392 316 l 2,3,4
 392 366 392 366 361.5 394 c 128,-1,5
 331 422 331 422 268 422 c 0,6,7
 225 422 225 422 183.5 408.5 c 128,-1,8
 142 395 142 395 113 372 c 1,9,-1
 57 481 l 1,10,11
 101 512 101 512 163 529 c 128,-1,12
 225 546 225 546 289 546 c 0,13,14
 412 546 412 546 480 488 c 128,-1,15
 548 430 548 430 548 307 c 2,16,-1
 548 0 l 1,17,-1
 402 0 l 1,0,-1
238 -8 m 0,18,19
 175 -8 175 -8 130 13.5 c 128,-1,20
 85 35 85 35 61 72 c 128,-1,21
 37 109 37 109 37 155 c 0,22,23
 37 203 37 203 60.5 239 c 128,-1,24
 84 275 84 275 135 295.5 c 128,-1,25
 186 316 186 316 268 316 c 2,26,-1
 411 316 l 1,27,-1
 411 225 l 1,28,-1
 285 225 l 2,29,30
 230 225 230 225 209.5 207 c 128,-1,31
 189 189 189 189 189 162 c 0,32,33
 189 132 189 132 212.5 114.5 c 128,-1,34
 236 97 236 97 277 97 c 0,35,36
 316 97 316 97 347 115.5 c 128,-1,37
 378 134 378 134 392 170 c 1,38,-1
 416 98 l 1,39,40
 399 46 399 46 354 19 c 128,-1,41
 309 -8 309 -8 238 -8 c 0,18,19
EndSplineSet
Validated: 5
Substitution2: "sous-table 'ss01' Jeu stylistique 1 lookups52" a.ss01
Substitution2: "sous-table 'smcp' Bas-de-casse vers petites capitales lookups48" a.sc
Substitution2: "sous-table Substitution simple lookups41" ordfeminine
AlternateSubs2: "sous-table 'aalt' Activer toutes les variantes lookups3" ordfeminine a.sc a.ss01
EndChar

StartChar: abreve
Encoding: 259 259 582
Width: 1310
VWidth: 1481
GlyphClass: 2
Flags: W
LayerCount: 2
Fore
SplineSet
484 563.25 m 1,0,-1
 484 297.75 l 1,1,-1
 826 297.75 l 1,2,-1
 826 563.25 l 1,3,-1
 484 563.25 l 1,0,-1
307 -18.75 m 1,4,-1
 278.5 9.75 l 1,5,-1
 278.5 113.25 l 1,6,-1
 431.5 267.75 l 1,7,-1
 431.5 567.75 l 1,8,-1
 299.5 683.25 l 1,9,-1
 299.5 819.75 l 1,10,-1
 343 861.75 l 1,11,-1
 478 861.75 l 1,12,-1
 503.5 836.25 l 1,13,-1
 503.5 797.25 l 1,14,-1
 547 797.25 l 1,15,-1
 547 836.25 l 1,16,-1
 572.5 861.75 l 1,17,-1
 737.5 861.75 l 1,18,-1
 763 836.25 l 1,19,-1
 763 797.25 l 1,20,-1
 805 797.25 l 1,21,-1
 805 836.25 l 1,22,-1
 832 861.75 l 1,23,-1
 967 861.75 l 1,24,-1
 1010.5 819.75 l 1,25,-1
 1010.5 683.25 l 1,26,-1
 878.5 567.75 l 1,27,-1
 878.5 267.75 l 1,28,-1
 1031.5 113.25 l 1,29,-1
 1031.5 9.75 l 1,30,-1
 1003 -18.75 l 1,31,-1
 307 -18.75 l 1,4,-1
331 99.75 m 1,32,-1
 331 41.25 l 1,33,-1
 979 41.25 l 1,34,-1
 979 99.75 l 1,35,-1
 331 99.75 l 1,32,-1
478 248.25 m 1,36,-1
 379 152.25 l 1,37,-1
 931 152.25 l 1,38,-1
 832 248.25 l 1,39,-1
 478 248.25 l 1,36,-1
598 798.75 m 1,40,-1
 598 759.75 l 1,41,-1
 575.5 738.75 l 1,42,-1
 478 738.75 l 1,43,-1
 455.5 759.75 l 1,44,-1
 455.5 801.75 l 1,45,-1
 371.5 801.75 l 1,46,-1
 352 780.75 l 1,47,-1
 352 696.75 l 1,48,-1
 454 614.25 l 1,49,-1
 856 614.25 l 1,50,-1
 958 696.75 l 1,51,-1
 958 780.75 l 1,52,-1
 938.5 801.75 l 1,53,-1
 854.5 801.75 l 1,54,-1
 854.5 759.75 l 1,55,-1
 832 738.75 l 1,56,-1
 734.5 738.75 l 1,57,-1
 712 759.75 l 1,58,-1
 712 798.75 l 1,59,-1
 598 798.75 l 1,40,-1
EndSplineSet
Substitution2: "sous-table 'ss01' Jeu stylistique 1 lookups52" abreve.ss01
Substitution2: "sous-table 'smcp' Bas-de-casse vers petites capitales lookups48" abreve.sc
AlternateSubs2: "sous-table 'aalt' Activer toutes les variantes lookups3" abreve.sc abreve.ss01
EndChar

